%TF.GenerationSoftware,KiCad,Pcbnew,(5.1.12)-1*%
%TF.CreationDate,2023-02-20T19:38:16+01:00*%
%TF.ProjectId,SolarSensorTagEFM32,536f6c61-7253-4656-9e73-6f7254616745,rev?*%
%TF.SameCoordinates,Original*%
%TF.FileFunction,Soldermask,Top*%
%TF.FilePolarity,Negative*%
%FSLAX46Y46*%
G04 Gerber Fmt 4.6, Leading zero omitted, Abs format (unit mm)*
G04 Created by KiCad (PCBNEW (5.1.12)-1) date 2023-02-20 19:38:16*
%MOMM*%
%LPD*%
G01*
G04 APERTURE LIST*
%ADD10R,1.200000X0.900000*%
%ADD11C,2.200000*%
%ADD12C,0.100000*%
%ADD13R,2.600000X5.100000*%
%ADD14C,17.000000*%
%ADD15C,1.850000*%
%ADD16R,1.500000X1.500000*%
%ADD17O,1.700000X1.700000*%
%ADD18C,1.700000*%
%ADD19R,0.800000X1.200000*%
%ADD20R,0.650000X1.200000*%
%ADD21R,0.600000X1.200000*%
%ADD22R,0.800000X1.800000*%
%ADD23R,1.700000X2.000000*%
%ADD24R,0.800000X0.800000*%
%ADD25R,0.350000X0.500000*%
%ADD26R,1.700000X1.700000*%
%ADD27R,0.900000X1.200000*%
G04 APERTURE END LIST*
D10*
%TO.C,D7*%
X12362000Y3048000D03*
X14562000Y3048000D03*
%TD*%
%TO.C,IC_S2*%
G36*
G01*
X-9548500Y-12971000D02*
X-9723500Y-12971000D01*
G75*
G02*
X-9811000Y-12883500I0J87500D01*
G01*
X-9811000Y-12448500D01*
G75*
G02*
X-9723500Y-12361000I87500J0D01*
G01*
X-9548500Y-12361000D01*
G75*
G02*
X-9461000Y-12448500I0J-87500D01*
G01*
X-9461000Y-12883500D01*
G75*
G02*
X-9548500Y-12971000I-87500J0D01*
G01*
G37*
G36*
G01*
X-8548500Y-12971000D02*
X-8723500Y-12971000D01*
G75*
G02*
X-8811000Y-12883500I0J87500D01*
G01*
X-8811000Y-12448500D01*
G75*
G02*
X-8723500Y-12361000I87500J0D01*
G01*
X-8548500Y-12361000D01*
G75*
G02*
X-8461000Y-12448500I0J-87500D01*
G01*
X-8461000Y-12883500D01*
G75*
G02*
X-8548500Y-12971000I-87500J0D01*
G01*
G37*
G36*
G01*
X-7548500Y-12971000D02*
X-7723500Y-12971000D01*
G75*
G02*
X-7811000Y-12883500I0J87500D01*
G01*
X-7811000Y-12448500D01*
G75*
G02*
X-7723500Y-12361000I87500J0D01*
G01*
X-7548500Y-12361000D01*
G75*
G02*
X-7461000Y-12448500I0J-87500D01*
G01*
X-7461000Y-12883500D01*
G75*
G02*
X-7548500Y-12971000I-87500J0D01*
G01*
G37*
G36*
G01*
X-7548500Y-15071000D02*
X-7723500Y-15071000D01*
G75*
G02*
X-7811000Y-14983500I0J87500D01*
G01*
X-7811000Y-14548500D01*
G75*
G02*
X-7723500Y-14461000I87500J0D01*
G01*
X-7548500Y-14461000D01*
G75*
G02*
X-7461000Y-14548500I0J-87500D01*
G01*
X-7461000Y-14983500D01*
G75*
G02*
X-7548500Y-15071000I-87500J0D01*
G01*
G37*
G36*
G01*
X-8548500Y-15071000D02*
X-8723500Y-15071000D01*
G75*
G02*
X-8811000Y-14983500I0J87500D01*
G01*
X-8811000Y-14548500D01*
G75*
G02*
X-8723500Y-14461000I87500J0D01*
G01*
X-8548500Y-14461000D01*
G75*
G02*
X-8461000Y-14548500I0J-87500D01*
G01*
X-8461000Y-14983500D01*
G75*
G02*
X-8548500Y-15071000I-87500J0D01*
G01*
G37*
G36*
G01*
X-9548500Y-15071000D02*
X-9723500Y-15071000D01*
G75*
G02*
X-9811000Y-14983500I0J87500D01*
G01*
X-9811000Y-14548500D01*
G75*
G02*
X-9723500Y-14461000I87500J0D01*
G01*
X-9548500Y-14461000D01*
G75*
G02*
X-9461000Y-14548500I0J-87500D01*
G01*
X-9461000Y-14983500D01*
G75*
G02*
X-9548500Y-15071000I-87500J0D01*
G01*
G37*
%TD*%
D11*
%TO.C,IC6*%
X8144000Y7869000D03*
%TD*%
D12*
%TO.C,BT1*%
G36*
X7800000Y15800000D02*
G01*
X10800000Y15800000D01*
X10800000Y15400000D01*
X11500000Y14700000D01*
X12800000Y14700000D01*
X12800000Y10800000D01*
X7800000Y10800000D01*
X7800000Y15800000D01*
G37*
G36*
X5800000Y20000000D02*
G01*
X5800000Y22300000D01*
X8900000Y22300000D01*
X8900000Y18600000D01*
X6700000Y18600000D01*
X5800000Y20000000D01*
G37*
G36*
G01*
X-9863604Y6502082D02*
X-9297918Y5936396D01*
G75*
G02*
X-9297918Y5370710I-282843J-282843D01*
G01*
X-10570710Y4097918D01*
G75*
G02*
X-11136396Y4097918I-282843J282843D01*
G01*
X-11702082Y4663604D01*
G75*
G02*
X-11702082Y5229290I282843J282843D01*
G01*
X-10429290Y6502082D01*
G75*
G02*
X-9863604Y6502082I282843J-282843D01*
G01*
G37*
G36*
G01*
X-1000000Y2550000D02*
X-1000000Y450000D01*
G75*
G02*
X-1750000Y-300000I-750000J0D01*
G01*
X-3250000Y-300000D01*
G75*
G02*
X-4000000Y450000I0J750000D01*
G01*
X-4000000Y2550000D01*
G75*
G02*
X-3250000Y3300000I750000J0D01*
G01*
X-1750000Y3300000D01*
G75*
G02*
X-1000000Y2550000I0J-750000D01*
G01*
G37*
D13*
X-14100000Y13300000D03*
D14*
X-2500000Y13300000D03*
%TD*%
D15*
%TO.C,TRX1*%
X-13500000Y9200000D03*
X-13500000Y6700000D03*
%TD*%
%TO.C,J4*%
G36*
G01*
X-9985000Y520000D02*
X-10935000Y520000D01*
G75*
G02*
X-11310000Y895000I0J375000D01*
G01*
X-11310000Y1645000D01*
G75*
G02*
X-10935000Y2020000I375000J0D01*
G01*
X-9985000Y2020000D01*
G75*
G02*
X-9610000Y1645000I0J-375000D01*
G01*
X-9610000Y895000D01*
G75*
G02*
X-9985000Y520000I-375000J0D01*
G01*
G37*
%TD*%
%TO.C,IC_S8*%
G36*
G01*
X8223000Y-5333000D02*
X8073000Y-5333000D01*
G75*
G02*
X7998000Y-5258000I0J75000D01*
G01*
X7998000Y-4558000D01*
G75*
G02*
X8073000Y-4483000I75000J0D01*
G01*
X8223000Y-4483000D01*
G75*
G02*
X8298000Y-4558000I0J-75000D01*
G01*
X8298000Y-5258000D01*
G75*
G02*
X8223000Y-5333000I-75000J0D01*
G01*
G37*
G36*
G01*
X8723000Y-5333000D02*
X8573000Y-5333000D01*
G75*
G02*
X8498000Y-5258000I0J75000D01*
G01*
X8498000Y-4558000D01*
G75*
G02*
X8573000Y-4483000I75000J0D01*
G01*
X8723000Y-4483000D01*
G75*
G02*
X8798000Y-4558000I0J-75000D01*
G01*
X8798000Y-5258000D01*
G75*
G02*
X8723000Y-5333000I-75000J0D01*
G01*
G37*
G36*
G01*
X9223000Y-5333000D02*
X9073000Y-5333000D01*
G75*
G02*
X8998000Y-5258000I0J75000D01*
G01*
X8998000Y-4558000D01*
G75*
G02*
X9073000Y-4483000I75000J0D01*
G01*
X9223000Y-4483000D01*
G75*
G02*
X9298000Y-4558000I0J-75000D01*
G01*
X9298000Y-5258000D01*
G75*
G02*
X9223000Y-5333000I-75000J0D01*
G01*
G37*
G36*
G01*
X9723000Y-5333000D02*
X9573000Y-5333000D01*
G75*
G02*
X9498000Y-5258000I0J75000D01*
G01*
X9498000Y-4558000D01*
G75*
G02*
X9573000Y-4483000I75000J0D01*
G01*
X9723000Y-4483000D01*
G75*
G02*
X9798000Y-4558000I0J-75000D01*
G01*
X9798000Y-5258000D01*
G75*
G02*
X9723000Y-5333000I-75000J0D01*
G01*
G37*
G36*
G01*
X10223000Y-5333000D02*
X10073000Y-5333000D01*
G75*
G02*
X9998000Y-5258000I0J75000D01*
G01*
X9998000Y-4558000D01*
G75*
G02*
X10073000Y-4483000I75000J0D01*
G01*
X10223000Y-4483000D01*
G75*
G02*
X10298000Y-4558000I0J-75000D01*
G01*
X10298000Y-5258000D01*
G75*
G02*
X10223000Y-5333000I-75000J0D01*
G01*
G37*
G36*
G01*
X10723000Y-5333000D02*
X10573000Y-5333000D01*
G75*
G02*
X10498000Y-5258000I0J75000D01*
G01*
X10498000Y-4558000D01*
G75*
G02*
X10573000Y-4483000I75000J0D01*
G01*
X10723000Y-4483000D01*
G75*
G02*
X10798000Y-4558000I0J-75000D01*
G01*
X10798000Y-5258000D01*
G75*
G02*
X10723000Y-5333000I-75000J0D01*
G01*
G37*
G36*
G01*
X10923000Y-5683000D02*
X10923000Y-5533000D01*
G75*
G02*
X10998000Y-5458000I75000J0D01*
G01*
X11698000Y-5458000D01*
G75*
G02*
X11773000Y-5533000I0J-75000D01*
G01*
X11773000Y-5683000D01*
G75*
G02*
X11698000Y-5758000I-75000J0D01*
G01*
X10998000Y-5758000D01*
G75*
G02*
X10923000Y-5683000I0J75000D01*
G01*
G37*
G36*
G01*
X10923000Y-6183000D02*
X10923000Y-6033000D01*
G75*
G02*
X10998000Y-5958000I75000J0D01*
G01*
X11698000Y-5958000D01*
G75*
G02*
X11773000Y-6033000I0J-75000D01*
G01*
X11773000Y-6183000D01*
G75*
G02*
X11698000Y-6258000I-75000J0D01*
G01*
X10998000Y-6258000D01*
G75*
G02*
X10923000Y-6183000I0J75000D01*
G01*
G37*
G36*
G01*
X10923000Y-6683000D02*
X10923000Y-6533000D01*
G75*
G02*
X10998000Y-6458000I75000J0D01*
G01*
X11698000Y-6458000D01*
G75*
G02*
X11773000Y-6533000I0J-75000D01*
G01*
X11773000Y-6683000D01*
G75*
G02*
X11698000Y-6758000I-75000J0D01*
G01*
X10998000Y-6758000D01*
G75*
G02*
X10923000Y-6683000I0J75000D01*
G01*
G37*
G36*
G01*
X10923000Y-7183000D02*
X10923000Y-7033000D01*
G75*
G02*
X10998000Y-6958000I75000J0D01*
G01*
X11698000Y-6958000D01*
G75*
G02*
X11773000Y-7033000I0J-75000D01*
G01*
X11773000Y-7183000D01*
G75*
G02*
X11698000Y-7258000I-75000J0D01*
G01*
X10998000Y-7258000D01*
G75*
G02*
X10923000Y-7183000I0J75000D01*
G01*
G37*
G36*
G01*
X10923000Y-7683000D02*
X10923000Y-7533000D01*
G75*
G02*
X10998000Y-7458000I75000J0D01*
G01*
X11698000Y-7458000D01*
G75*
G02*
X11773000Y-7533000I0J-75000D01*
G01*
X11773000Y-7683000D01*
G75*
G02*
X11698000Y-7758000I-75000J0D01*
G01*
X10998000Y-7758000D01*
G75*
G02*
X10923000Y-7683000I0J75000D01*
G01*
G37*
G36*
G01*
X10923000Y-8183000D02*
X10923000Y-8033000D01*
G75*
G02*
X10998000Y-7958000I75000J0D01*
G01*
X11698000Y-7958000D01*
G75*
G02*
X11773000Y-8033000I0J-75000D01*
G01*
X11773000Y-8183000D01*
G75*
G02*
X11698000Y-8258000I-75000J0D01*
G01*
X10998000Y-8258000D01*
G75*
G02*
X10923000Y-8183000I0J75000D01*
G01*
G37*
G36*
G01*
X10723000Y-9233000D02*
X10573000Y-9233000D01*
G75*
G02*
X10498000Y-9158000I0J75000D01*
G01*
X10498000Y-8458000D01*
G75*
G02*
X10573000Y-8383000I75000J0D01*
G01*
X10723000Y-8383000D01*
G75*
G02*
X10798000Y-8458000I0J-75000D01*
G01*
X10798000Y-9158000D01*
G75*
G02*
X10723000Y-9233000I-75000J0D01*
G01*
G37*
G36*
G01*
X10223000Y-9233000D02*
X10073000Y-9233000D01*
G75*
G02*
X9998000Y-9158000I0J75000D01*
G01*
X9998000Y-8458000D01*
G75*
G02*
X10073000Y-8383000I75000J0D01*
G01*
X10223000Y-8383000D01*
G75*
G02*
X10298000Y-8458000I0J-75000D01*
G01*
X10298000Y-9158000D01*
G75*
G02*
X10223000Y-9233000I-75000J0D01*
G01*
G37*
G36*
G01*
X9723000Y-9233000D02*
X9573000Y-9233000D01*
G75*
G02*
X9498000Y-9158000I0J75000D01*
G01*
X9498000Y-8458000D01*
G75*
G02*
X9573000Y-8383000I75000J0D01*
G01*
X9723000Y-8383000D01*
G75*
G02*
X9798000Y-8458000I0J-75000D01*
G01*
X9798000Y-9158000D01*
G75*
G02*
X9723000Y-9233000I-75000J0D01*
G01*
G37*
G36*
G01*
X9223000Y-9233000D02*
X9073000Y-9233000D01*
G75*
G02*
X8998000Y-9158000I0J75000D01*
G01*
X8998000Y-8458000D01*
G75*
G02*
X9073000Y-8383000I75000J0D01*
G01*
X9223000Y-8383000D01*
G75*
G02*
X9298000Y-8458000I0J-75000D01*
G01*
X9298000Y-9158000D01*
G75*
G02*
X9223000Y-9233000I-75000J0D01*
G01*
G37*
G36*
G01*
X8723000Y-9233000D02*
X8573000Y-9233000D01*
G75*
G02*
X8498000Y-9158000I0J75000D01*
G01*
X8498000Y-8458000D01*
G75*
G02*
X8573000Y-8383000I75000J0D01*
G01*
X8723000Y-8383000D01*
G75*
G02*
X8798000Y-8458000I0J-75000D01*
G01*
X8798000Y-9158000D01*
G75*
G02*
X8723000Y-9233000I-75000J0D01*
G01*
G37*
G36*
G01*
X8223000Y-9233000D02*
X8073000Y-9233000D01*
G75*
G02*
X7998000Y-9158000I0J75000D01*
G01*
X7998000Y-8458000D01*
G75*
G02*
X8073000Y-8383000I75000J0D01*
G01*
X8223000Y-8383000D01*
G75*
G02*
X8298000Y-8458000I0J-75000D01*
G01*
X8298000Y-9158000D01*
G75*
G02*
X8223000Y-9233000I-75000J0D01*
G01*
G37*
G36*
G01*
X7023000Y-8183000D02*
X7023000Y-8033000D01*
G75*
G02*
X7098000Y-7958000I75000J0D01*
G01*
X7798000Y-7958000D01*
G75*
G02*
X7873000Y-8033000I0J-75000D01*
G01*
X7873000Y-8183000D01*
G75*
G02*
X7798000Y-8258000I-75000J0D01*
G01*
X7098000Y-8258000D01*
G75*
G02*
X7023000Y-8183000I0J75000D01*
G01*
G37*
G36*
G01*
X7023000Y-7683000D02*
X7023000Y-7533000D01*
G75*
G02*
X7098000Y-7458000I75000J0D01*
G01*
X7798000Y-7458000D01*
G75*
G02*
X7873000Y-7533000I0J-75000D01*
G01*
X7873000Y-7683000D01*
G75*
G02*
X7798000Y-7758000I-75000J0D01*
G01*
X7098000Y-7758000D01*
G75*
G02*
X7023000Y-7683000I0J75000D01*
G01*
G37*
G36*
G01*
X7023000Y-7183000D02*
X7023000Y-7033000D01*
G75*
G02*
X7098000Y-6958000I75000J0D01*
G01*
X7798000Y-6958000D01*
G75*
G02*
X7873000Y-7033000I0J-75000D01*
G01*
X7873000Y-7183000D01*
G75*
G02*
X7798000Y-7258000I-75000J0D01*
G01*
X7098000Y-7258000D01*
G75*
G02*
X7023000Y-7183000I0J75000D01*
G01*
G37*
G36*
G01*
X7023000Y-6683000D02*
X7023000Y-6533000D01*
G75*
G02*
X7098000Y-6458000I75000J0D01*
G01*
X7798000Y-6458000D01*
G75*
G02*
X7873000Y-6533000I0J-75000D01*
G01*
X7873000Y-6683000D01*
G75*
G02*
X7798000Y-6758000I-75000J0D01*
G01*
X7098000Y-6758000D01*
G75*
G02*
X7023000Y-6683000I0J75000D01*
G01*
G37*
G36*
G01*
X7023000Y-6183000D02*
X7023000Y-6033000D01*
G75*
G02*
X7098000Y-5958000I75000J0D01*
G01*
X7798000Y-5958000D01*
G75*
G02*
X7873000Y-6033000I0J-75000D01*
G01*
X7873000Y-6183000D01*
G75*
G02*
X7798000Y-6258000I-75000J0D01*
G01*
X7098000Y-6258000D01*
G75*
G02*
X7023000Y-6183000I0J75000D01*
G01*
G37*
G36*
G01*
X7023000Y-5683000D02*
X7023000Y-5533000D01*
G75*
G02*
X7098000Y-5458000I75000J0D01*
G01*
X7798000Y-5458000D01*
G75*
G02*
X7873000Y-5533000I0J-75000D01*
G01*
X7873000Y-5683000D01*
G75*
G02*
X7798000Y-5758000I-75000J0D01*
G01*
X7098000Y-5758000D01*
G75*
G02*
X7023000Y-5683000I0J75000D01*
G01*
G37*
%TD*%
%TO.C,IC_S1*%
G36*
G01*
X-11280000Y-4215000D02*
X-11580000Y-4215000D01*
G75*
G02*
X-11730000Y-4065000I0J150000D01*
G01*
X-11730000Y-2415000D01*
G75*
G02*
X-11580000Y-2265000I150000J0D01*
G01*
X-11280000Y-2265000D01*
G75*
G02*
X-11130000Y-2415000I0J-150000D01*
G01*
X-11130000Y-4065000D01*
G75*
G02*
X-11280000Y-4215000I-150000J0D01*
G01*
G37*
G36*
G01*
X-10010000Y-4215000D02*
X-10310000Y-4215000D01*
G75*
G02*
X-10460000Y-4065000I0J150000D01*
G01*
X-10460000Y-2415000D01*
G75*
G02*
X-10310000Y-2265000I150000J0D01*
G01*
X-10010000Y-2265000D01*
G75*
G02*
X-9860000Y-2415000I0J-150000D01*
G01*
X-9860000Y-4065000D01*
G75*
G02*
X-10010000Y-4215000I-150000J0D01*
G01*
G37*
G36*
G01*
X-8740000Y-4215000D02*
X-9040000Y-4215000D01*
G75*
G02*
X-9190000Y-4065000I0J150000D01*
G01*
X-9190000Y-2415000D01*
G75*
G02*
X-9040000Y-2265000I150000J0D01*
G01*
X-8740000Y-2265000D01*
G75*
G02*
X-8590000Y-2415000I0J-150000D01*
G01*
X-8590000Y-4065000D01*
G75*
G02*
X-8740000Y-4215000I-150000J0D01*
G01*
G37*
G36*
G01*
X-7470000Y-4215000D02*
X-7770000Y-4215000D01*
G75*
G02*
X-7920000Y-4065000I0J150000D01*
G01*
X-7920000Y-2415000D01*
G75*
G02*
X-7770000Y-2265000I150000J0D01*
G01*
X-7470000Y-2265000D01*
G75*
G02*
X-7320000Y-2415000I0J-150000D01*
G01*
X-7320000Y-4065000D01*
G75*
G02*
X-7470000Y-4215000I-150000J0D01*
G01*
G37*
G36*
G01*
X-7470000Y-9165000D02*
X-7770000Y-9165000D01*
G75*
G02*
X-7920000Y-9015000I0J150000D01*
G01*
X-7920000Y-7365000D01*
G75*
G02*
X-7770000Y-7215000I150000J0D01*
G01*
X-7470000Y-7215000D01*
G75*
G02*
X-7320000Y-7365000I0J-150000D01*
G01*
X-7320000Y-9015000D01*
G75*
G02*
X-7470000Y-9165000I-150000J0D01*
G01*
G37*
G36*
G01*
X-8740000Y-9165000D02*
X-9040000Y-9165000D01*
G75*
G02*
X-9190000Y-9015000I0J150000D01*
G01*
X-9190000Y-7365000D01*
G75*
G02*
X-9040000Y-7215000I150000J0D01*
G01*
X-8740000Y-7215000D01*
G75*
G02*
X-8590000Y-7365000I0J-150000D01*
G01*
X-8590000Y-9015000D01*
G75*
G02*
X-8740000Y-9165000I-150000J0D01*
G01*
G37*
G36*
G01*
X-10010000Y-9165000D02*
X-10310000Y-9165000D01*
G75*
G02*
X-10460000Y-9015000I0J150000D01*
G01*
X-10460000Y-7365000D01*
G75*
G02*
X-10310000Y-7215000I150000J0D01*
G01*
X-10010000Y-7215000D01*
G75*
G02*
X-9860000Y-7365000I0J-150000D01*
G01*
X-9860000Y-9015000D01*
G75*
G02*
X-10010000Y-9165000I-150000J0D01*
G01*
G37*
G36*
G01*
X-11280000Y-9165000D02*
X-11580000Y-9165000D01*
G75*
G02*
X-11730000Y-9015000I0J150000D01*
G01*
X-11730000Y-7365000D01*
G75*
G02*
X-11580000Y-7215000I150000J0D01*
G01*
X-11280000Y-7215000D01*
G75*
G02*
X-11130000Y-7365000I0J-150000D01*
G01*
X-11130000Y-9015000D01*
G75*
G02*
X-11280000Y-9165000I-150000J0D01*
G01*
G37*
%TD*%
D16*
%TO.C,D4*%
X-2540000Y-16891000D03*
D17*
X0Y-16891000D03*
X2540000Y-16891000D03*
%TD*%
D18*
%TO.C,J2*%
X-10160000Y-16510000D03*
%TD*%
%TO.C,SP1*%
G36*
G01*
X8871000Y16695000D02*
X8871000Y17595000D01*
G75*
G02*
X9321000Y18045000I450000J0D01*
G01*
X10221000Y18045000D01*
G75*
G02*
X10671000Y17595000I0J-450000D01*
G01*
X10671000Y16695000D01*
G75*
G02*
X10221000Y16245000I-450000J0D01*
G01*
X9321000Y16245000D01*
G75*
G02*
X8871000Y16695000I0J450000D01*
G01*
G37*
%TD*%
D10*
%TO.C,R3*%
X4297500Y571500D03*
X6497500Y571500D03*
%TD*%
D19*
%TO.C,IC5*%
X12893000Y7192000D03*
X14793000Y7192000D03*
D20*
X14793000Y4492000D03*
D21*
X13843000Y4492000D03*
D20*
X12893000Y4492000D03*
%TD*%
D22*
%TO.C,Y2*%
X10160000Y5207000D03*
X11660000Y5207000D03*
X8660000Y5207000D03*
%TD*%
%TO.C,TA1*%
G36*
G01*
X8912400Y-831000D02*
X8912400Y69000D01*
G75*
G02*
X9362400Y519000I450000J0D01*
G01*
X11262400Y519000D01*
G75*
G02*
X11712400Y69000I0J-450000D01*
G01*
X11712400Y-831000D01*
G75*
G02*
X11262400Y-1281000I-450000J0D01*
G01*
X9362400Y-1281000D01*
G75*
G02*
X8912400Y-831000I0J450000D01*
G01*
G37*
%TD*%
D23*
%TO.C,C4*%
X14351000Y9766800D03*
X14351000Y13766800D03*
%TD*%
D24*
%TO.C,IC1*%
X8985500Y2225000D03*
X10985500Y3175000D03*
X10985500Y1275000D03*
%TD*%
D25*
%TO.C,IC_S4*%
X9357000Y-12818000D03*
X8707000Y-12818000D03*
X8057000Y-12818000D03*
X7407000Y-12818000D03*
X7407000Y-14868000D03*
X8057000Y-14868000D03*
X8707000Y-14868000D03*
X9357000Y-14868000D03*
%TD*%
D26*
%TO.C,J1*%
X-15240000Y-3810000D03*
D17*
X-15240000Y-6350000D03*
X-15240000Y-8890000D03*
X-15240000Y-11430000D03*
X-15240000Y-13970000D03*
%TD*%
D26*
%TO.C,J5*%
X15240000Y-3810000D03*
D17*
X15240000Y-6350000D03*
X15240000Y-8890000D03*
X15240000Y-11430000D03*
X15240000Y-13970000D03*
%TD*%
%TO.C,J3*%
G36*
G01*
X-13750000Y-4285000D02*
X-13750000Y-3335000D01*
G75*
G02*
X-13375000Y-2960000I375000J0D01*
G01*
X-12625000Y-2960000D01*
G75*
G02*
X-12250000Y-3335000I0J-375000D01*
G01*
X-12250000Y-4285000D01*
G75*
G02*
X-12625000Y-4660000I-375000J0D01*
G01*
X-13375000Y-4660000D01*
G75*
G02*
X-13750000Y-4285000I0J375000D01*
G01*
G37*
G36*
G01*
X-13750000Y-6825000D02*
X-13750000Y-5875000D01*
G75*
G02*
X-13375000Y-5500000I375000J0D01*
G01*
X-12625000Y-5500000D01*
G75*
G02*
X-12250000Y-5875000I0J-375000D01*
G01*
X-12250000Y-6825000D01*
G75*
G02*
X-12625000Y-7200000I-375000J0D01*
G01*
X-13375000Y-7200000D01*
G75*
G02*
X-13750000Y-6825000I0J375000D01*
G01*
G37*
G36*
G01*
X-13750000Y-9365000D02*
X-13750000Y-8415000D01*
G75*
G02*
X-13375000Y-8040000I375000J0D01*
G01*
X-12625000Y-8040000D01*
G75*
G02*
X-12250000Y-8415000I0J-375000D01*
G01*
X-12250000Y-9365000D01*
G75*
G02*
X-12625000Y-9740000I-375000J0D01*
G01*
X-13375000Y-9740000D01*
G75*
G02*
X-13750000Y-9365000I0J375000D01*
G01*
G37*
G36*
G01*
X-13750000Y-11905000D02*
X-13750000Y-10955000D01*
G75*
G02*
X-13375000Y-10580000I375000J0D01*
G01*
X-12625000Y-10580000D01*
G75*
G02*
X-12250000Y-10955000I0J-375000D01*
G01*
X-12250000Y-11905000D01*
G75*
G02*
X-12625000Y-12280000I-375000J0D01*
G01*
X-13375000Y-12280000D01*
G75*
G02*
X-13750000Y-11905000I0J375000D01*
G01*
G37*
G36*
G01*
X-13750000Y-14445000D02*
X-13750000Y-13495000D01*
G75*
G02*
X-13375000Y-13120000I375000J0D01*
G01*
X-12625000Y-13120000D01*
G75*
G02*
X-12250000Y-13495000I0J-375000D01*
G01*
X-12250000Y-14445000D01*
G75*
G02*
X-12625000Y-14820000I-375000J0D01*
G01*
X-13375000Y-14820000D01*
G75*
G02*
X-13750000Y-14445000I0J375000D01*
G01*
G37*
%TD*%
%TO.C,J6*%
G36*
G01*
X12331000Y-4285000D02*
X12331000Y-3335000D01*
G75*
G02*
X12706000Y-2960000I375000J0D01*
G01*
X13456000Y-2960000D01*
G75*
G02*
X13831000Y-3335000I0J-375000D01*
G01*
X13831000Y-4285000D01*
G75*
G02*
X13456000Y-4660000I-375000J0D01*
G01*
X12706000Y-4660000D01*
G75*
G02*
X12331000Y-4285000I0J375000D01*
G01*
G37*
G36*
G01*
X12331000Y-6825000D02*
X12331000Y-5875000D01*
G75*
G02*
X12706000Y-5500000I375000J0D01*
G01*
X13456000Y-5500000D01*
G75*
G02*
X13831000Y-5875000I0J-375000D01*
G01*
X13831000Y-6825000D01*
G75*
G02*
X13456000Y-7200000I-375000J0D01*
G01*
X12706000Y-7200000D01*
G75*
G02*
X12331000Y-6825000I0J375000D01*
G01*
G37*
G36*
G01*
X12331000Y-9365000D02*
X12331000Y-8415000D01*
G75*
G02*
X12706000Y-8040000I375000J0D01*
G01*
X13456000Y-8040000D01*
G75*
G02*
X13831000Y-8415000I0J-375000D01*
G01*
X13831000Y-9365000D01*
G75*
G02*
X13456000Y-9740000I-375000J0D01*
G01*
X12706000Y-9740000D01*
G75*
G02*
X12331000Y-9365000I0J375000D01*
G01*
G37*
G36*
G01*
X12331000Y-11905000D02*
X12331000Y-10955000D01*
G75*
G02*
X12706000Y-10580000I375000J0D01*
G01*
X13456000Y-10580000D01*
G75*
G02*
X13831000Y-10955000I0J-375000D01*
G01*
X13831000Y-11905000D01*
G75*
G02*
X13456000Y-12280000I-375000J0D01*
G01*
X12706000Y-12280000D01*
G75*
G02*
X12331000Y-11905000I0J375000D01*
G01*
G37*
G36*
G01*
X12331000Y-14445000D02*
X12331000Y-13495000D01*
G75*
G02*
X12706000Y-13120000I375000J0D01*
G01*
X13456000Y-13120000D01*
G75*
G02*
X13831000Y-13495000I0J-375000D01*
G01*
X13831000Y-14445000D01*
G75*
G02*
X13456000Y-14820000I-375000J0D01*
G01*
X12706000Y-14820000D01*
G75*
G02*
X12331000Y-14445000I0J375000D01*
G01*
G37*
%TD*%
D27*
%TO.C,C8*%
X10261600Y9362800D03*
X10261600Y7162800D03*
%TD*%
D10*
%TO.C,R_IN1*%
X5875200Y-1270000D03*
X3675200Y-1270000D03*
%TD*%
D27*
%TO.C,C9*%
X11582400Y9380400D03*
X11582400Y7180400D03*
%TD*%
%TO.C,R1*%
X7620000Y-3386000D03*
X7620000Y-1186000D03*
%TD*%
D10*
%TO.C,C_S6_1*%
X9804400Y-16205200D03*
X7604400Y-16205200D03*
%TD*%
D27*
%TO.C,C_S2*%
X-10922000Y-10965000D03*
X-10922000Y-13165000D03*
%TD*%
%TO.C,IN1*%
G36*
G01*
X10472000Y-12011200D02*
X11372000Y-12011200D01*
G75*
G02*
X11822000Y-12461200I0J-450000D01*
G01*
X11822000Y-14361200D01*
G75*
G02*
X11372000Y-14811200I-450000J0D01*
G01*
X10472000Y-14811200D01*
G75*
G02*
X10022000Y-14361200I0J450000D01*
G01*
X10022000Y-12461200D01*
G75*
G02*
X10472000Y-12011200I450000J0D01*
G01*
G37*
%TD*%
%TO.C,SP2*%
G36*
G01*
X8633000Y-3371000D02*
X8633000Y-2471000D01*
G75*
G02*
X9083000Y-2021000I450000J0D01*
G01*
X10983000Y-2021000D01*
G75*
G02*
X11433000Y-2471000I0J-450000D01*
G01*
X11433000Y-3371000D01*
G75*
G02*
X10983000Y-3821000I-450000J0D01*
G01*
X9083000Y-3821000D01*
G75*
G02*
X8633000Y-3371000I0J450000D01*
G01*
G37*
%TD*%
M02*
