%TF.GenerationSoftware,KiCad,Pcbnew,(5.1.12)-1*%
%TF.CreationDate,2023-02-20T19:38:16+01:00*%
%TF.ProjectId,SolarSensorTagEFM32,536f6c61-7253-4656-9e73-6f7254616745,rev?*%
%TF.SameCoordinates,Original*%
%TF.FileFunction,Legend,Bot*%
%TF.FilePolarity,Positive*%
%FSLAX46Y46*%
G04 Gerber Fmt 4.6, Leading zero omitted, Abs format (unit mm)*
G04 Created by KiCad (PCBNEW (5.1.12)-1) date 2023-02-20 19:38:16*
%MOMM*%
%LPD*%
G01*
G04 APERTURE LIST*
%ADD10C,0.120000*%
%ADD11C,0.150000*%
%ADD12C,0.100000*%
%ADD13C,0.200000*%
%ADD14C,2.200000*%
%ADD15R,0.700000X0.350000*%
%ADD16R,0.350000X0.700000*%
%ADD17R,1.500000X1.200000*%
%ADD18R,0.900000X1.200000*%
%ADD19R,1.400000X1.400000*%
%ADD20C,1.850000*%
%ADD21R,1.400000X1.300000*%
%ADD22R,1.200000X0.800000*%
%ADD23R,1.200000X0.650000*%
%ADD24R,1.200000X0.600000*%
%ADD25R,1.500000X1.500000*%
%ADD26O,1.700000X1.700000*%
%ADD27C,1.700000*%
%ADD28R,1.700000X2.000000*%
%ADD29R,0.800000X0.800000*%
%ADD30R,1.700000X1.700000*%
%ADD31R,1.200000X0.900000*%
%ADD32R,1.500000X1.300000*%
%ADD33R,0.250000X0.275000*%
%ADD34R,0.275000X0.250000*%
%ADD35R,1.400000X1.000000*%
%ADD36R,0.450000X0.300000*%
%ADD37R,0.300000X0.450000*%
%ADD38R,0.700000X0.450000*%
%ADD39R,0.350000X0.375000*%
%ADD40R,0.375000X0.350000*%
G04 APERTURE END LIST*
D10*
X8706142Y-17245000D02*
X8991857Y-17245000D01*
X8627571Y-17416428D02*
X8902571Y-16816428D01*
X9027571Y-17416428D01*
D11*
X8465461Y-14504142D02*
X8577961Y-13604142D01*
X8830937Y-14247000D01*
X9244627Y-13604142D01*
X9132127Y-14504142D01*
%TO.C,IC6*%
X5969000Y5334000D02*
X6477000Y5334000D01*
X12319000Y11684000D02*
X11811000Y11684000D01*
X12319000Y5334000D02*
X11844000Y5334000D01*
X5969000Y11811000D02*
X5969000Y11209000D01*
X12319000Y11684000D02*
X12319000Y11209000D01*
X12319000Y5334000D02*
X12319000Y5809000D01*
X5969000Y5334000D02*
X5969000Y5809000D01*
D10*
%TO.C,D6*%
X6234000Y21928000D02*
X6234000Y19128000D01*
X6234000Y19128000D02*
X4434000Y19128000D01*
X4434000Y19128000D02*
X4434000Y21928000D01*
%TO.C,C13*%
X7591500Y20810500D02*
X7591500Y20210500D01*
X8791500Y20210500D02*
X8791500Y20810500D01*
D11*
%TO.C,TRX1*%
X3650000Y18850000D02*
X-15650000Y18850000D01*
X-15650000Y18850000D02*
X-15650000Y12825000D01*
X-15650000Y5575000D02*
X-15650000Y1550000D01*
X-15650000Y1550000D02*
X3650000Y1550000D01*
X3650000Y1550000D02*
X3650000Y2300000D01*
X3650000Y18100000D02*
X3650000Y18850000D01*
D10*
%TO.C,C12*%
X5807000Y15321000D02*
X5807000Y15921000D01*
X4607000Y15921000D02*
X4607000Y15321000D01*
%TO.C,IC_S3*%
X-7268000Y-13270800D02*
X-7268000Y-14770800D01*
X-8988000Y-14020800D02*
X-8988000Y-14770800D01*
%TO.C,IC4*%
X-8139000Y1356000D02*
X-6339000Y1356000D01*
X-6339000Y-1864000D02*
X-8789000Y-1864000D01*
%TO.C,JP1*%
X-13319000Y-3110000D02*
X-13319000Y-4510000D01*
X-12019000Y-2410000D02*
X-12619000Y-2410000D01*
X-11319000Y-4510000D02*
X-11319000Y-3110000D01*
X-12619000Y-5210000D02*
X-12019000Y-5210000D01*
X-13319000Y-4510000D02*
G75*
G03*
X-12619000Y-5210000I700000J0D01*
G01*
X-12619000Y-2410000D02*
G75*
G03*
X-13319000Y-3110000I0J-700000D01*
G01*
X-11319000Y-3110000D02*
G75*
G03*
X-12019000Y-2410000I-700000J0D01*
G01*
X-12019000Y-5210000D02*
G75*
G03*
X-11319000Y-4510000I0J700000D01*
G01*
%TO.C,JP3*%
X5064000Y-954000D02*
X5064000Y446000D01*
X3764000Y-1654000D02*
X4364000Y-1654000D01*
X3064000Y446000D02*
X3064000Y-954000D01*
X4364000Y1146000D02*
X3764000Y1146000D01*
X5064000Y446000D02*
G75*
G03*
X4364000Y1146000I-700000J0D01*
G01*
X4364000Y-1654000D02*
G75*
G03*
X5064000Y-954000I0J700000D01*
G01*
X3064000Y-954000D02*
G75*
G03*
X3764000Y-1654000I700000J0D01*
G01*
X3764000Y1146000D02*
G75*
G03*
X3064000Y446000I0J-700000D01*
G01*
%TO.C,JP2*%
X-7447000Y22600000D02*
X-8047000Y22600000D01*
X-8747000Y21900000D02*
X-8747000Y20500000D01*
X-8047000Y19800000D02*
X-7447000Y19800000D01*
X-6747000Y20500000D02*
X-6747000Y21900000D01*
X-6747000Y21900000D02*
G75*
G03*
X-7447000Y22600000I-700000J0D01*
G01*
X-7447000Y19800000D02*
G75*
G03*
X-6747000Y20500000I0J700000D01*
G01*
X-8747000Y20500000D02*
G75*
G03*
X-8047000Y19800000I700000J0D01*
G01*
X-8047000Y22600000D02*
G75*
G03*
X-8747000Y21900000I0J-700000D01*
G01*
%TO.C,C_S61_2*%
X11985600Y-10884000D02*
X11985600Y-12484000D01*
X14125600Y-12484000D02*
X14125600Y-10884000D01*
%TO.C,Q1*%
X1917600Y21001000D02*
X1917600Y20401000D01*
X357600Y19121000D02*
X1817600Y19121000D01*
X367600Y22281000D02*
X1817600Y22281000D01*
X367600Y22281000D02*
X367600Y21451000D01*
X357600Y19121000D02*
X357600Y19951000D01*
%TO.C,D2*%
X8209000Y419000D02*
X8809000Y419000D01*
X10089000Y-1141000D02*
X10089000Y319000D01*
X6929000Y-1131000D02*
X6929000Y319000D01*
X6929000Y-1131000D02*
X7759000Y-1131000D01*
X10089000Y-1141000D02*
X9259000Y-1141000D01*
%TO.C,D3*%
X-5135600Y19774000D02*
X-5735600Y19774000D01*
X-7015600Y21334000D02*
X-7015600Y19874000D01*
X-3855600Y21324000D02*
X-3855600Y19874000D01*
X-3855600Y21324000D02*
X-4685600Y21324000D01*
X-7015600Y21334000D02*
X-6185600Y21334000D01*
%TO.C,R14*%
X-1305000Y-554000D02*
X-1305000Y46000D01*
X-2505000Y46000D02*
X-2505000Y-554000D01*
%TO.C,R5*%
X-7020000Y-7767600D02*
X-7020000Y-7167600D01*
X-8220000Y-7167600D02*
X-8220000Y-7767600D01*
%TO.C,R4*%
X-8417000Y-7767600D02*
X-8417000Y-7167600D01*
X-9617000Y-7167600D02*
X-9617000Y-7767600D01*
%TO.C,R9*%
X-2327200Y21001000D02*
X-2327200Y20401000D01*
X-1127200Y20401000D02*
X-1127200Y21001000D01*
%TO.C,R8*%
X4054400Y20401000D02*
X4054400Y21001000D01*
X2854400Y21001000D02*
X2854400Y20401000D01*
%TO.C,R7*%
X-11903000Y46000D02*
X-11903000Y-554000D01*
X-10703000Y-554000D02*
X-10703000Y46000D01*
%TO.C,R6*%
X-10633000Y46000D02*
X-10633000Y-554000D01*
X-9433000Y-554000D02*
X-9433000Y46000D01*
%TO.C,R12*%
X-6269000Y-18380000D02*
X-5669000Y-18380000D01*
X-5669000Y-17180000D02*
X-6269000Y-17180000D01*
%TO.C,R11*%
X-5888000Y-17110000D02*
X-5288000Y-17110000D01*
X-5288000Y-15910000D02*
X-5888000Y-15910000D01*
%TO.C,R10*%
X12481000Y-4399000D02*
X12481000Y-4999000D01*
X13681000Y-4999000D02*
X13681000Y-4399000D01*
%TO.C,R13*%
X-12608000Y-7970800D02*
X-12608000Y-7370800D01*
X-13808000Y-7370800D02*
X-13808000Y-7970800D01*
%TO.C,C_S8*%
X11903000Y-11857000D02*
X11903000Y-11257000D01*
X10703000Y-11257000D02*
X10703000Y-11857000D01*
%TO.C,C11*%
X-2575000Y-554000D02*
X-2575000Y46000D01*
X-3775000Y46000D02*
X-3775000Y-554000D01*
%TO.C,C10*%
X-3845000Y-554000D02*
X-3845000Y46000D01*
X-5045000Y46000D02*
X-5045000Y-554000D01*
%TO.C,C2*%
X-11211000Y-7767600D02*
X-11211000Y-7167600D01*
X-12411000Y-7167600D02*
X-12411000Y-7767600D01*
%TO.C,C1*%
X-9814000Y-7767600D02*
X-9814000Y-7167600D01*
X-11014000Y-7167600D02*
X-11014000Y-7767600D01*
%TO.C,C6*%
X10587000Y2886000D02*
X9987000Y2886000D01*
X9987000Y1686000D02*
X10587000Y1686000D01*
%TO.C,C5*%
X5732500Y1686000D02*
X6332500Y1686000D01*
X6332500Y2886000D02*
X5732500Y2886000D01*
%TO.C,C3*%
X-3749600Y21001000D02*
X-3749600Y20401000D01*
X-2549600Y20401000D02*
X-2549600Y21001000D01*
%TO.C,C7*%
X6258000Y2819400D02*
X7458000Y2819400D01*
X7458000Y4597400D02*
X6258000Y4597400D01*
D12*
%TO.C,IC_S5*%
X-11219000Y-14562000D02*
X-11419000Y-14562000D01*
X-11219000Y-14562000D02*
X-11219000Y-14362000D01*
X-13419000Y-14562000D02*
X-13419000Y-14362000D01*
X-13419000Y-14562000D02*
X-13219000Y-14562000D01*
X-13219000Y-12362000D02*
X-13419000Y-12362000D01*
X-13419000Y-12362000D02*
X-13419000Y-12562000D01*
X-11219000Y-12562000D02*
X-11219000Y-12222000D01*
D10*
%TO.C,IC7*%
X1789000Y-2016400D02*
X-11000Y-2016400D01*
X-11000Y1203600D02*
X2439000Y1203600D01*
%TO.C,IC2*%
X-10044000Y-2200000D02*
X-8244000Y-2200000D01*
X-8244000Y-5420000D02*
X-10694000Y-5420000D01*
%TO.C,Y1*%
X10628600Y15022200D02*
X10628600Y16372200D01*
X8878600Y15022200D02*
X8878600Y16372200D01*
%TO.C,D5*%
X11949000Y1446000D02*
X11949000Y-1354000D01*
X10149000Y1446000D02*
X11949000Y1446000D01*
X10149000Y-1354000D02*
X10149000Y1446000D01*
%TO.C,D1*%
X5069000Y-1954000D02*
X5069000Y846000D01*
X6869000Y-1954000D02*
X5069000Y-1954000D01*
X6869000Y846000D02*
X6869000Y-1954000D01*
D12*
%TO.C,IC_S6*%
X9863000Y-15570000D02*
X10363000Y-15570000D01*
X10363000Y-15570000D02*
X10363000Y-15070000D01*
X10363000Y-12370000D02*
X10363000Y-12870000D01*
X10363000Y-12870000D02*
X10363000Y-12370000D01*
X10363000Y-12370000D02*
X9863000Y-12370000D01*
X7163000Y-12370000D02*
X7663000Y-12370000D01*
X7163000Y-12370000D02*
X7163000Y-12870000D01*
X7163000Y-15570000D02*
X7163000Y-15070000D01*
D10*
%TO.C,D_S78*%
X4985000Y-17822800D02*
X4985000Y-18482800D01*
X4985000Y-16162800D02*
X4985000Y-16822800D01*
X4985000Y-16162800D02*
X7015000Y-16162800D01*
X6395000Y-18482800D02*
X4985000Y-18482800D01*
%TO.C,IC_S7*%
X9490000Y-18245000D02*
X9990000Y-18245000D01*
X9990000Y-18245000D02*
X9990000Y-17745000D01*
X9990000Y-17745000D02*
X9990000Y-17745000D01*
X9990000Y-16545000D02*
X9990000Y-16045000D01*
X9990000Y-16045000D02*
X9490000Y-16045000D01*
X9490000Y-16045000D02*
X9490000Y-16045000D01*
X8290000Y-16045000D02*
X7790000Y-16045000D01*
X7790000Y-16045000D02*
X7790000Y-16545000D01*
X7790000Y-16545000D02*
X7790000Y-16545000D01*
X8290000Y-18245000D02*
X7790000Y-18245000D01*
X7790000Y-18245000D02*
X7790000Y-18245000D01*
%TO.C,IC3*%
X6838000Y-5842000D02*
X6838000Y-3892000D01*
X6838000Y-5842000D02*
X6838000Y-7792000D01*
X11958000Y-5842000D02*
X11958000Y-3892000D01*
X11958000Y-5842000D02*
X11958000Y-9292000D01*
%TO.C,TRX1*%
D11*
X-749190Y12940952D02*
X-749190Y12026666D01*
X850809Y12483809D02*
X-749190Y12483809D01*
X850809Y10579047D02*
X88904Y11112380D01*
X850809Y11493333D02*
X-749190Y11493333D01*
X-749190Y10883809D01*
X-673000Y10731428D01*
X-596809Y10655238D01*
X-444428Y10579047D01*
X-215857Y10579047D01*
X-63476Y10655238D01*
X12714Y10731428D01*
X88904Y10883809D01*
X88904Y11493333D01*
X-749190Y10045714D02*
X850809Y8979047D01*
X-749190Y8979047D02*
X850809Y10045714D01*
X850809Y7531428D02*
X850809Y8445714D01*
X850809Y7988571D02*
X-749190Y7988571D01*
X-520619Y8140952D01*
X-368238Y8293333D01*
X-292047Y8445714D01*
%TD*%
%LPC*%
D13*
X15011161Y14400523D02*
X14594495Y13150523D01*
X14177828Y14400523D01*
X13106400Y13150523D02*
X13820685Y13150523D01*
X13463542Y13150523D02*
X13463542Y14400523D01*
X13582590Y14221952D01*
X13701638Y14102904D01*
X13820685Y14043380D01*
X12570685Y13269571D02*
X12511161Y13210047D01*
X12570685Y13150523D01*
X12630209Y13210047D01*
X12570685Y13269571D01*
X12570685Y13150523D01*
X11737352Y14400523D02*
X11618304Y14400523D01*
X11499257Y14341000D01*
X11439733Y14281476D01*
X11380209Y14162428D01*
X11320685Y13924333D01*
X11320685Y13626714D01*
X11380209Y13388619D01*
X11439733Y13269571D01*
X11499257Y13210047D01*
X11618304Y13150523D01*
X11737352Y13150523D01*
X11856400Y13210047D01*
X11915923Y13269571D01*
X11975447Y13388619D01*
X12034971Y13626714D01*
X12034971Y13924333D01*
X11975447Y14162428D01*
X11915923Y14281476D01*
X11856400Y14341000D01*
X11737352Y14400523D01*
D12*
%TO.C,IC6*%
G36*
X6944000Y6309000D02*
G01*
X6944000Y10709000D01*
X11344000Y10709000D01*
X11344000Y6309000D01*
X6944000Y6309000D01*
G37*
D14*
X8144000Y7869000D03*
D15*
X6144000Y10784000D03*
X6144000Y10134000D03*
X6144000Y9484000D03*
X6144000Y8834000D03*
X6144000Y8184000D03*
X6144000Y7534000D03*
X6144000Y6884000D03*
X6144000Y6234000D03*
D16*
X6869000Y5509000D03*
X7519000Y5509000D03*
X8169000Y5509000D03*
X8819000Y5509000D03*
X9469000Y5509000D03*
X10119000Y5509000D03*
X10769000Y5509000D03*
X11419000Y5509000D03*
D15*
X12144000Y6234000D03*
X12144000Y6884000D03*
X12144000Y7534000D03*
X12144000Y8184000D03*
X12144000Y8834000D03*
X12144000Y9484000D03*
X12144000Y10134000D03*
X12144000Y10784000D03*
D16*
X11419000Y11509000D03*
X10769000Y11509000D03*
X10119000Y11509000D03*
X9469000Y11509000D03*
X8819000Y11509000D03*
X8169000Y11509000D03*
X7519000Y11509000D03*
X6869000Y11509000D03*
%TD*%
D17*
%TO.C,D6*%
X5334000Y19878000D03*
X5334000Y21778000D03*
%TD*%
D18*
%TO.C,C13*%
X8191500Y21610500D03*
X8191500Y19410500D03*
%TD*%
D19*
%TO.C,TRX1*%
X-14800000Y11700000D03*
D20*
X-13500000Y9200000D03*
X-13500000Y6700000D03*
D21*
X3000000Y3200000D03*
X3000000Y5200000D03*
X3000000Y7200000D03*
X3000000Y9200000D03*
X3000000Y11200000D03*
X3000000Y13200000D03*
X3000000Y15200000D03*
X3000000Y17200000D03*
%TD*%
D18*
%TO.C,C12*%
X5207000Y16721000D03*
X5207000Y14521000D03*
%TD*%
%TO.C,IC_S3*%
G36*
G01*
X-8615500Y-14445800D02*
X-8440500Y-14445800D01*
G75*
G02*
X-8353000Y-14533300I0J-87500D01*
G01*
X-8353000Y-14908300D01*
G75*
G02*
X-8440500Y-14995800I-87500J0D01*
G01*
X-8615500Y-14995800D01*
G75*
G02*
X-8703000Y-14908300I0J87500D01*
G01*
X-8703000Y-14533300D01*
G75*
G02*
X-8615500Y-14445800I87500J0D01*
G01*
G37*
G36*
G01*
X-7815500Y-14445800D02*
X-7640500Y-14445800D01*
G75*
G02*
X-7553000Y-14533300I0J-87500D01*
G01*
X-7553000Y-14908300D01*
G75*
G02*
X-7640500Y-14995800I-87500J0D01*
G01*
X-7815500Y-14995800D01*
G75*
G02*
X-7903000Y-14908300I0J87500D01*
G01*
X-7903000Y-14533300D01*
G75*
G02*
X-7815500Y-14445800I87500J0D01*
G01*
G37*
G36*
G01*
X-7815500Y-13045800D02*
X-7640500Y-13045800D01*
G75*
G02*
X-7553000Y-13133300I0J-87500D01*
G01*
X-7553000Y-13508300D01*
G75*
G02*
X-7640500Y-13595800I-87500J0D01*
G01*
X-7815500Y-13595800D01*
G75*
G02*
X-7903000Y-13508300I0J87500D01*
G01*
X-7903000Y-13133300D01*
G75*
G02*
X-7815500Y-13045800I87500J0D01*
G01*
G37*
G36*
G01*
X-8615500Y-13045800D02*
X-8440500Y-13045800D01*
G75*
G02*
X-8353000Y-13133300I0J-87500D01*
G01*
X-8353000Y-13508300D01*
G75*
G02*
X-8440500Y-13595800I-87500J0D01*
G01*
X-8615500Y-13595800D01*
G75*
G02*
X-8703000Y-13508300I0J87500D01*
G01*
X-8703000Y-13133300D01*
G75*
G02*
X-8615500Y-13045800I87500J0D01*
G01*
G37*
%TD*%
D22*
%TO.C,IC4*%
X-5889000Y-1204000D03*
X-5889000Y696000D03*
D23*
X-8589000Y696000D03*
D24*
X-8589000Y-254000D03*
D23*
X-8589000Y-1204000D03*
%TD*%
D25*
%TO.C,D4*%
X-2540000Y-16891000D03*
D26*
X0Y-16891000D03*
X2540000Y-16891000D03*
%TD*%
D27*
%TO.C,J2*%
X-10160000Y-16510000D03*
%TD*%
D12*
%TO.C,JP1*%
G36*
X-11669602Y-4460000D02*
G01*
X-11669602Y-4484534D01*
X-11674412Y-4533365D01*
X-11683984Y-4581490D01*
X-11698228Y-4628445D01*
X-11717005Y-4673778D01*
X-11740136Y-4717051D01*
X-11767396Y-4757850D01*
X-11798524Y-4795779D01*
X-11833221Y-4830476D01*
X-11871150Y-4861604D01*
X-11911949Y-4888864D01*
X-11955222Y-4911995D01*
X-12000555Y-4930772D01*
X-12047510Y-4945016D01*
X-12095635Y-4954588D01*
X-12119000Y-4956890D01*
X-12119000Y-4960000D01*
X-12519000Y-4960000D01*
X-12519000Y-4956890D01*
X-12542365Y-4954588D01*
X-12590490Y-4945016D01*
X-12637445Y-4930772D01*
X-12682778Y-4911995D01*
X-12726051Y-4888864D01*
X-12766850Y-4861604D01*
X-12804779Y-4830476D01*
X-12839476Y-4795779D01*
X-12870604Y-4757850D01*
X-12897864Y-4717051D01*
X-12920995Y-4673778D01*
X-12939772Y-4628445D01*
X-12954016Y-4581490D01*
X-12963588Y-4533365D01*
X-12968398Y-4484534D01*
X-12968398Y-4460000D01*
X-12969000Y-4460000D01*
X-12969000Y-3960000D01*
X-11669000Y-3960000D01*
X-11669000Y-4460000D01*
X-11669602Y-4460000D01*
G37*
G36*
X-12969000Y-3660000D02*
G01*
X-12969000Y-3160000D01*
X-12968398Y-3160000D01*
X-12968398Y-3135466D01*
X-12963588Y-3086635D01*
X-12954016Y-3038510D01*
X-12939772Y-2991555D01*
X-12920995Y-2946222D01*
X-12897864Y-2902949D01*
X-12870604Y-2862150D01*
X-12839476Y-2824221D01*
X-12804779Y-2789524D01*
X-12766850Y-2758396D01*
X-12726051Y-2731136D01*
X-12682778Y-2708005D01*
X-12637445Y-2689228D01*
X-12590490Y-2674984D01*
X-12542365Y-2665412D01*
X-12519000Y-2663110D01*
X-12519000Y-2660000D01*
X-12119000Y-2660000D01*
X-12119000Y-2663110D01*
X-12095635Y-2665412D01*
X-12047510Y-2674984D01*
X-12000555Y-2689228D01*
X-11955222Y-2708005D01*
X-11911949Y-2731136D01*
X-11871150Y-2758396D01*
X-11833221Y-2789524D01*
X-11798524Y-2824221D01*
X-11767396Y-2862150D01*
X-11740136Y-2902949D01*
X-11717005Y-2946222D01*
X-11698228Y-2991555D01*
X-11683984Y-3038510D01*
X-11674412Y-3086635D01*
X-11669602Y-3135466D01*
X-11669602Y-3160000D01*
X-11669000Y-3160000D01*
X-11669000Y-3660000D01*
X-12969000Y-3660000D01*
G37*
%TD*%
%TO.C,JP3*%
G36*
X3414602Y396000D02*
G01*
X3414602Y420534D01*
X3419412Y469365D01*
X3428984Y517490D01*
X3443228Y564445D01*
X3462005Y609778D01*
X3485136Y653051D01*
X3512396Y693850D01*
X3543524Y731779D01*
X3578221Y766476D01*
X3616150Y797604D01*
X3656949Y824864D01*
X3700222Y847995D01*
X3745555Y866772D01*
X3792510Y881016D01*
X3840635Y890588D01*
X3864000Y892890D01*
X3864000Y896000D01*
X4264000Y896000D01*
X4264000Y892890D01*
X4287365Y890588D01*
X4335490Y881016D01*
X4382445Y866772D01*
X4427778Y847995D01*
X4471051Y824864D01*
X4511850Y797604D01*
X4549779Y766476D01*
X4584476Y731779D01*
X4615604Y693850D01*
X4642864Y653051D01*
X4665995Y609778D01*
X4684772Y564445D01*
X4699016Y517490D01*
X4708588Y469365D01*
X4713398Y420534D01*
X4713398Y396000D01*
X4714000Y396000D01*
X4714000Y-104000D01*
X3414000Y-104000D01*
X3414000Y396000D01*
X3414602Y396000D01*
G37*
G36*
X4714000Y-404000D02*
G01*
X4714000Y-904000D01*
X4713398Y-904000D01*
X4713398Y-928534D01*
X4708588Y-977365D01*
X4699016Y-1025490D01*
X4684772Y-1072445D01*
X4665995Y-1117778D01*
X4642864Y-1161051D01*
X4615604Y-1201850D01*
X4584476Y-1239779D01*
X4549779Y-1274476D01*
X4511850Y-1305604D01*
X4471051Y-1332864D01*
X4427778Y-1355995D01*
X4382445Y-1374772D01*
X4335490Y-1389016D01*
X4287365Y-1398588D01*
X4264000Y-1400890D01*
X4264000Y-1404000D01*
X3864000Y-1404000D01*
X3864000Y-1400890D01*
X3840635Y-1398588D01*
X3792510Y-1389016D01*
X3745555Y-1374772D01*
X3700222Y-1355995D01*
X3656949Y-1332864D01*
X3616150Y-1305604D01*
X3578221Y-1274476D01*
X3543524Y-1239779D01*
X3512396Y-1201850D01*
X3485136Y-1161051D01*
X3462005Y-1117778D01*
X3443228Y-1072445D01*
X3428984Y-1025490D01*
X3419412Y-977365D01*
X3414602Y-928534D01*
X3414602Y-904000D01*
X3414000Y-904000D01*
X3414000Y-404000D01*
X4714000Y-404000D01*
G37*
%TD*%
%TO.C,JP2*%
G36*
X-8396398Y21850000D02*
G01*
X-8396398Y21874534D01*
X-8391588Y21923365D01*
X-8382016Y21971490D01*
X-8367772Y22018445D01*
X-8348995Y22063778D01*
X-8325864Y22107051D01*
X-8298604Y22147850D01*
X-8267476Y22185779D01*
X-8232779Y22220476D01*
X-8194850Y22251604D01*
X-8154051Y22278864D01*
X-8110778Y22301995D01*
X-8065445Y22320772D01*
X-8018490Y22335016D01*
X-7970365Y22344588D01*
X-7947000Y22346890D01*
X-7947000Y22350000D01*
X-7547000Y22350000D01*
X-7547000Y22346890D01*
X-7523635Y22344588D01*
X-7475510Y22335016D01*
X-7428555Y22320772D01*
X-7383222Y22301995D01*
X-7339949Y22278864D01*
X-7299150Y22251604D01*
X-7261221Y22220476D01*
X-7226524Y22185779D01*
X-7195396Y22147850D01*
X-7168136Y22107051D01*
X-7145005Y22063778D01*
X-7126228Y22018445D01*
X-7111984Y21971490D01*
X-7102412Y21923365D01*
X-7097602Y21874534D01*
X-7097602Y21850000D01*
X-7097000Y21850000D01*
X-7097000Y21350000D01*
X-8397000Y21350000D01*
X-8397000Y21850000D01*
X-8396398Y21850000D01*
G37*
G36*
X-7097000Y21050000D02*
G01*
X-7097000Y20550000D01*
X-7097602Y20550000D01*
X-7097602Y20525466D01*
X-7102412Y20476635D01*
X-7111984Y20428510D01*
X-7126228Y20381555D01*
X-7145005Y20336222D01*
X-7168136Y20292949D01*
X-7195396Y20252150D01*
X-7226524Y20214221D01*
X-7261221Y20179524D01*
X-7299150Y20148396D01*
X-7339949Y20121136D01*
X-7383222Y20098005D01*
X-7428555Y20079228D01*
X-7475510Y20064984D01*
X-7523635Y20055412D01*
X-7547000Y20053110D01*
X-7547000Y20050000D01*
X-7947000Y20050000D01*
X-7947000Y20053110D01*
X-7970365Y20055412D01*
X-8018490Y20064984D01*
X-8065445Y20079228D01*
X-8110778Y20098005D01*
X-8154051Y20121136D01*
X-8194850Y20148396D01*
X-8232779Y20179524D01*
X-8267476Y20214221D01*
X-8298604Y20252150D01*
X-8325864Y20292949D01*
X-8348995Y20336222D01*
X-8367772Y20381555D01*
X-8382016Y20428510D01*
X-8391588Y20476635D01*
X-8396398Y20525466D01*
X-8396398Y20550000D01*
X-8397000Y20550000D01*
X-8397000Y21050000D01*
X-7097000Y21050000D01*
G37*
%TD*%
D28*
%TO.C,C_S61_2*%
X13055600Y-9684000D03*
X13055600Y-13684000D03*
%TD*%
D29*
%TO.C,Q1*%
X117600Y20701000D03*
X2117600Y19751000D03*
X2117600Y21651000D03*
%TD*%
%TO.C,D2*%
X8509000Y-1381000D03*
X9459000Y619000D03*
X7559000Y619000D03*
%TD*%
%TO.C,D3*%
X-5435600Y21574000D03*
X-6385600Y19574000D03*
X-4485600Y19574000D03*
%TD*%
D30*
%TO.C,J1*%
X-15240000Y-3810000D03*
D26*
X-15240000Y-6350000D03*
X-15240000Y-8890000D03*
X-15240000Y-11430000D03*
X-15240000Y-13970000D03*
%TD*%
D30*
%TO.C,J5*%
X15240000Y-3810000D03*
D26*
X15240000Y-6350000D03*
X15240000Y-8890000D03*
X15240000Y-11430000D03*
X15240000Y-13970000D03*
%TD*%
D18*
%TO.C,R14*%
X-1905000Y846000D03*
X-1905000Y-1354000D03*
%TD*%
%TO.C,R5*%
X-7620000Y-6367600D03*
X-7620000Y-8567600D03*
%TD*%
%TO.C,R4*%
X-9017000Y-6367600D03*
X-9017000Y-8567600D03*
%TD*%
%TO.C,R9*%
X-1727200Y19601000D03*
X-1727200Y21801000D03*
%TD*%
%TO.C,R8*%
X3454400Y21801000D03*
X3454400Y19601000D03*
%TD*%
%TO.C,R7*%
X-11303000Y-1354000D03*
X-11303000Y846000D03*
%TD*%
%TO.C,R6*%
X-10033000Y-1354000D03*
X-10033000Y846000D03*
%TD*%
D31*
%TO.C,R12*%
X-4869000Y-17780000D03*
X-7069000Y-17780000D03*
%TD*%
%TO.C,R11*%
X-4488000Y-16510000D03*
X-6688000Y-16510000D03*
%TD*%
D18*
%TO.C,R10*%
X13081000Y-5799000D03*
X13081000Y-3599000D03*
%TD*%
%TO.C,R13*%
X-13208000Y-6570800D03*
X-13208000Y-8770800D03*
%TD*%
%TO.C,C_S8*%
X11303000Y-10457000D03*
X11303000Y-12657000D03*
%TD*%
%TO.C,C11*%
X-3175000Y846000D03*
X-3175000Y-1354000D03*
%TD*%
%TO.C,C10*%
X-4445000Y846000D03*
X-4445000Y-1354000D03*
%TD*%
%TO.C,C2*%
X-11811000Y-6367600D03*
X-11811000Y-8567600D03*
%TD*%
%TO.C,C1*%
X-10414000Y-6367600D03*
X-10414000Y-8567600D03*
%TD*%
D31*
%TO.C,C6*%
X9187000Y2286000D03*
X11387000Y2286000D03*
%TD*%
%TO.C,C5*%
X7132500Y2286000D03*
X4932500Y2286000D03*
%TD*%
D18*
%TO.C,C3*%
X-3149600Y19601000D03*
X-3149600Y21801000D03*
%TD*%
D32*
%TO.C,C7*%
X8208000Y3708400D03*
X5508000Y3708400D03*
%TD*%
D33*
%TO.C,IC_S5*%
X-12319000Y-12700000D03*
X-12819000Y-12700000D03*
D34*
X-13081500Y-13208000D03*
X-13081500Y-13712000D03*
D33*
X-12819000Y-14224000D03*
X-12319000Y-14224000D03*
X-11819000Y-14224500D03*
D34*
X-11556500Y-13712000D03*
D33*
X-11819000Y-12699500D03*
D34*
X-11556500Y-13212000D03*
%TD*%
D22*
%TO.C,IC7*%
X-461000Y543600D03*
X-461000Y-1356400D03*
D23*
X2239000Y-1356400D03*
D24*
X2239000Y-406400D03*
D23*
X2239000Y543600D03*
%TD*%
D22*
%TO.C,IC2*%
X-7794000Y-4760000D03*
X-7794000Y-2860000D03*
D23*
X-10494000Y-2860000D03*
D24*
X-10494000Y-3810000D03*
D23*
X-10494000Y-4760000D03*
%TD*%
D35*
%TO.C,Y1*%
X9753600Y17197200D03*
X9753600Y14197200D03*
%TD*%
D17*
%TO.C,D5*%
X11049000Y696000D03*
X11049000Y-1204000D03*
%TD*%
%TO.C,D1*%
X5969000Y-1204000D03*
X5969000Y696000D03*
%TD*%
D36*
%TO.C,IC_S6*%
X10038000Y-13720000D03*
X10038000Y-14220000D03*
X10038000Y-14720000D03*
X10038000Y-13220000D03*
D37*
X8013000Y-12695000D03*
X9013000Y-12695000D03*
X8513000Y-12695000D03*
X9513000Y-12695000D03*
D36*
X7488000Y-13220000D03*
X7488000Y-13720000D03*
X7488000Y-14220000D03*
X7488000Y-14720000D03*
D37*
X9013000Y-15245000D03*
X8513000Y-15245000D03*
X8013000Y-15245000D03*
X9513000Y-15245000D03*
%TD*%
D38*
%TO.C,D_S78*%
X4715000Y-17322800D03*
X6715000Y-17972800D03*
X6715000Y-16672800D03*
%TD*%
D39*
%TO.C,IC_S7*%
X8640000Y-17907500D03*
X9140000Y-17907500D03*
X9140000Y-16382500D03*
X8640000Y-16382500D03*
D40*
X9652500Y-17895000D03*
X8127500Y-17895000D03*
X9652500Y-16395000D03*
X8127500Y-16395000D03*
X9652500Y-16895000D03*
X9652500Y-17395000D03*
X8127500Y-16895000D03*
X8127500Y-17395000D03*
%TD*%
%TO.C,IC3*%
G36*
G01*
X11453000Y-4342000D02*
X11153000Y-4342000D01*
G75*
G02*
X11003000Y-4192000I0J150000D01*
G01*
X11003000Y-2542000D01*
G75*
G02*
X11153000Y-2392000I150000J0D01*
G01*
X11453000Y-2392000D01*
G75*
G02*
X11603000Y-2542000I0J-150000D01*
G01*
X11603000Y-4192000D01*
G75*
G02*
X11453000Y-4342000I-150000J0D01*
G01*
G37*
G36*
G01*
X10183000Y-4342000D02*
X9883000Y-4342000D01*
G75*
G02*
X9733000Y-4192000I0J150000D01*
G01*
X9733000Y-2542000D01*
G75*
G02*
X9883000Y-2392000I150000J0D01*
G01*
X10183000Y-2392000D01*
G75*
G02*
X10333000Y-2542000I0J-150000D01*
G01*
X10333000Y-4192000D01*
G75*
G02*
X10183000Y-4342000I-150000J0D01*
G01*
G37*
G36*
G01*
X8913000Y-4342000D02*
X8613000Y-4342000D01*
G75*
G02*
X8463000Y-4192000I0J150000D01*
G01*
X8463000Y-2542000D01*
G75*
G02*
X8613000Y-2392000I150000J0D01*
G01*
X8913000Y-2392000D01*
G75*
G02*
X9063000Y-2542000I0J-150000D01*
G01*
X9063000Y-4192000D01*
G75*
G02*
X8913000Y-4342000I-150000J0D01*
G01*
G37*
G36*
G01*
X7643000Y-4342000D02*
X7343000Y-4342000D01*
G75*
G02*
X7193000Y-4192000I0J150000D01*
G01*
X7193000Y-2542000D01*
G75*
G02*
X7343000Y-2392000I150000J0D01*
G01*
X7643000Y-2392000D01*
G75*
G02*
X7793000Y-2542000I0J-150000D01*
G01*
X7793000Y-4192000D01*
G75*
G02*
X7643000Y-4342000I-150000J0D01*
G01*
G37*
G36*
G01*
X7643000Y-9292000D02*
X7343000Y-9292000D01*
G75*
G02*
X7193000Y-9142000I0J150000D01*
G01*
X7193000Y-7492000D01*
G75*
G02*
X7343000Y-7342000I150000J0D01*
G01*
X7643000Y-7342000D01*
G75*
G02*
X7793000Y-7492000I0J-150000D01*
G01*
X7793000Y-9142000D01*
G75*
G02*
X7643000Y-9292000I-150000J0D01*
G01*
G37*
G36*
G01*
X8913000Y-9292000D02*
X8613000Y-9292000D01*
G75*
G02*
X8463000Y-9142000I0J150000D01*
G01*
X8463000Y-7492000D01*
G75*
G02*
X8613000Y-7342000I150000J0D01*
G01*
X8913000Y-7342000D01*
G75*
G02*
X9063000Y-7492000I0J-150000D01*
G01*
X9063000Y-9142000D01*
G75*
G02*
X8913000Y-9292000I-150000J0D01*
G01*
G37*
G36*
G01*
X10183000Y-9292000D02*
X9883000Y-9292000D01*
G75*
G02*
X9733000Y-9142000I0J150000D01*
G01*
X9733000Y-7492000D01*
G75*
G02*
X9883000Y-7342000I150000J0D01*
G01*
X10183000Y-7342000D01*
G75*
G02*
X10333000Y-7492000I0J-150000D01*
G01*
X10333000Y-9142000D01*
G75*
G02*
X10183000Y-9292000I-150000J0D01*
G01*
G37*
G36*
G01*
X11453000Y-9292000D02*
X11153000Y-9292000D01*
G75*
G02*
X11003000Y-9142000I0J150000D01*
G01*
X11003000Y-7492000D01*
G75*
G02*
X11153000Y-7342000I150000J0D01*
G01*
X11453000Y-7342000D01*
G75*
G02*
X11603000Y-7492000I0J-150000D01*
G01*
X11603000Y-9142000D01*
G75*
G02*
X11453000Y-9292000I-150000J0D01*
G01*
G37*
%TD*%
M02*
