%TF.GenerationSoftware,KiCad,Pcbnew,(5.1.12)-1*%
%TF.CreationDate,2023-02-20T19:38:16+01:00*%
%TF.ProjectId,SolarSensorTagEFM32,536f6c61-7253-4656-9e73-6f7254616745,rev?*%
%TF.SameCoordinates,Original*%
%TF.FileFunction,Profile,NP*%
%FSLAX46Y46*%
G04 Gerber Fmt 4.6, Leading zero omitted, Abs format (unit mm)*
G04 Created by KiCad (PCBNEW (5.1.12)-1) date 2023-02-20 19:38:16*
%MOMM*%
%LPD*%
G01*
G04 APERTURE LIST*
%TA.AperFunction,Profile*%
%ADD10C,0.200000*%
%TD*%
G04 APERTURE END LIST*
D10*
X9850000Y-10800000D02*
G75*
G03*
X9850000Y-10800000I-1200000J0D01*
G01*
X-7450000Y-10800000D02*
G75*
G03*
X-7450000Y-10800000I-1200000J0D01*
G01*
X6800000Y-14800000D02*
X6800000Y-3200000D01*
X6800000Y-14799998D02*
G75*
G02*
X5800000Y-15800000I-1000001J-1D01*
G01*
X-5800000Y-15800000D02*
X5800000Y-15800000D01*
X-5799998Y-15800000D02*
G75*
G02*
X-6800000Y-14800000I-1J1000001D01*
G01*
X-6800000Y-9000000D02*
X-6800000Y-14800000D01*
X-6800000Y-3200000D02*
X-6800000Y-9000000D01*
X-6799999Y-3200001D02*
G75*
G02*
X-5800000Y-2200000I1000000J1D01*
G01*
X5800000Y-2200000D02*
X-5800000Y-2200000D01*
X5799999Y-2199999D02*
G75*
G02*
X6800000Y-3200000I0J-1000001D01*
G01*
X-15500000Y18700000D02*
X-9699999Y18700000D01*
X-15500000Y10600000D02*
X-15500000Y18700000D01*
X-14400000Y10600000D02*
X-15500000Y10600000D01*
X-14400001Y10599999D02*
G75*
G02*
X-13400000Y9600000I1J-1000000D01*
G01*
X-13400000Y2354992D02*
X-13400000Y9600000D01*
X-13399999Y2354991D02*
G75*
G02*
X-12000000Y599999I-400000J-1754992D01*
G01*
X-12000000Y-599999D02*
X-12000000Y599999D01*
X-12000000Y-599999D02*
G75*
G02*
X-13800000Y-2399999I-1800000J0D01*
G01*
X-15240000Y-2399999D02*
X-13800000Y-2399999D01*
X-15240000Y-15400000D02*
X-15240000Y-2399999D01*
X-11492306Y-15400000D02*
X-15240000Y-15400000D01*
X-11492306Y-15400000D02*
G75*
G02*
X-10160000Y-16732306I0J-1332306D01*
G01*
X-10160000Y-18600000D02*
X-10160000Y-16732306D01*
X-2400000Y-18600000D02*
X-10160000Y-18600000D01*
X-2400000Y-18600001D02*
G75*
G02*
X-1800000Y-18400000I600001J-799999D01*
G01*
X1800000Y-18400000D02*
X-1800000Y-18400000D01*
X1800000Y-18399999D02*
G75*
G02*
X2400000Y-18600000I-1J-1000001D01*
G01*
X10600000Y-18600000D02*
X2400000Y-18600000D01*
X10600000Y-16399999D02*
X10600000Y-18600000D01*
X10600000Y-16400000D02*
G75*
G02*
X11600000Y-15400000I1000000J0D01*
G01*
X15240000Y-15400000D02*
X11600000Y-15400000D01*
X15240000Y-2399999D02*
X15240000Y-15400000D01*
X13800000Y-2399999D02*
X15240000Y-2399999D01*
X13800000Y-2399999D02*
G75*
G02*
X12000000Y-599999I0J1800000D01*
G01*
X12000000Y599999D02*
X12000000Y-599999D01*
X11999999Y600000D02*
G75*
G02*
X13800000Y2399999I1800000J-1D01*
G01*
X15500000Y2399999D02*
X13800000Y2399999D01*
X15500000Y14900000D02*
X15500000Y2399999D01*
X12000000Y14900000D02*
X15500000Y14900000D01*
X12000000Y14900000D02*
G75*
G02*
X11000000Y15900000I0J1000000D01*
G01*
X11000000Y18300000D02*
X11000000Y15900000D01*
X10200000Y18300000D02*
X11000000Y18300000D01*
X10200000Y18300000D02*
G75*
G02*
X9200000Y19300000I0J1000000D01*
G01*
X9200000Y22600000D02*
X9200000Y19300000D01*
X-8699999Y22600000D02*
X9200000Y22600000D01*
X-8699999Y19700000D02*
X-8699999Y22600000D01*
X-8699999Y19700000D02*
G75*
G02*
X-9699999Y18700000I-1000000J0D01*
G01*
M02*
