M48
; DRILL file {KiCad (5.1.12)-1} date 02/20/23 19:38:41
; FORMAT={-:-/ absolute / inch / decimal}
; #@! TF.CreationDate,2023-02-20T19:38:41+01:00
; #@! TF.GenerationSoftware,Kicad,Pcbnew,(5.1.12)-1
; #@! TF.FileFunction,Plated,1,4,PTH
FMAT,2
INCH
T1C0.0079
T2C0.0315
T3C0.0394
T4C0.0551
%
G90
G05
T1
X-0.574Y0.6524
X-0.554Y-0.388
X-0.546Y0.6524
X-0.52Y-0.3
X-0.498Y-0.3
X-0.476Y-0.294
X-0.4646Y0.13
X-0.464Y-0.378
X-0.458Y-0.206
X-0.452Y-0.468
X-0.444Y0.68
X-0.44Y0.11
X-0.44Y-0.565
X-0.4369Y-0.2166
X-0.43Y0.275
X-0.428Y-0.378
X-0.405Y0.305
X-0.396Y0.11
X-0.388Y-0.528
X-0.384Y0.158
X-0.3794Y-0.55
X-0.372Y-0.186
X-0.37Y-0.705
X-0.354Y-0.212
X-0.35Y-0.182
X-0.3325Y-0.69
X-0.325Y0.15
X-0.32Y-0.64
X-0.3175Y-0.6675
X-0.3Y0.0945
X-0.292Y0.15
X-0.29Y-0.61
X-0.288Y-0.38
X-0.2875Y-0.5525
X-0.282Y-0.066
X-0.27Y-0.0433
X-0.1299Y0.084
X-0.1Y0.084
X-0.058Y0.71
X-0.0517Y0.355
X-0.01Y0.162
X-0.002Y0.116
X0.022Y0.018
X0.024Y-0.064
X0.026Y0.146
X0.0262Y0.0618
X0.035Y0.355
X0.046Y-0.016
X0.052Y0.062
X0.082Y0.062
X0.1026Y0.08
X0.1075Y0.815
X0.1275Y0.044
X0.142Y-0.7
X0.152Y0.082
X0.1604Y0.276
X0.1625Y0.5984
X0.176Y0.292
X0.1825Y0.7425
X0.184Y0.236
X0.186Y-0.06
X0.186Y-0.654
X0.188Y0.202
X0.19Y0.055
X0.21Y0.742
X0.212Y0.714
X0.212Y0.314
X0.216Y0.212
X0.22Y-0.7
X0.234Y0.1996
X0.2375Y0.065
X0.2375Y-0.6775
X0.242Y0.714
X0.2475Y0.6575
X0.252Y0.186
X0.255Y0.685
X0.2575Y0.82
X0.2575Y0.795
X0.264Y0.484
X0.266Y0.168
X0.268Y-0.084
X0.274Y0.516
X0.275Y0.5925
X0.28Y0.056
X0.282Y0.552
X0.2875Y0.8575
X0.288Y0.19
X0.29Y-0.476
X0.295Y-0.0075
X0.3Y0.705
X0.3005Y-0.2
X0.305Y0.395
X0.31Y0.188
X0.312Y-0.084
X0.3176Y-0.5298
X0.318Y-0.554
X0.33Y0.675
X0.332Y-0.262
X0.3344Y-0.5402
X0.338Y0.01
X0.338Y-0.624
X0.342Y-0.684
X0.344Y0.032
X0.346Y-0.236
X0.358Y-0.67
X0.3627Y-0.5399
X0.368Y-0.064
X0.37Y0.3475
X0.37Y0.2575
X0.37Y-0.164
X0.372Y0.1304
X0.3725Y-0.0875
X0.3831Y-0.4751
X0.395Y-0.24
X0.396Y0.154
X0.4Y-0.71
X0.4007Y-0.598
X0.404Y0.114
X0.415Y-0.2775
X0.43Y0.405
X0.43Y-0.564
X0.434Y0.156
X0.446Y-0.456
X0.4607Y-0.1841
X0.4677Y-0.456
X0.472Y-0.136
X0.478Y-0.2
X0.48Y-0.294
X0.482Y0.492
X0.482Y0.468
X0.49Y-0.098
X0.492Y0.216
X0.5019Y-0.3001
X0.504Y0.398
X0.506Y0.35
X0.506Y0.326
X0.5118Y0.2301
X0.522Y0.466
X0.528Y-0.302
X0.528Y-0.466
X0.532Y0.128
X0.534Y0.328
X0.534Y0.24
X0.545Y0.213
X0.552Y-0.3
X0.555Y-0.485
X0.556Y-0.208
X0.576Y0.326
X0.582Y0.116
X0.59Y0.486
X0.59Y0.456
T2
X-0.1Y-0.665
X0.0Y-0.665
X0.1Y-0.665
T3
X-0.6Y-0.15
X-0.6Y-0.25
X-0.6Y-0.35
X-0.6Y-0.45
X-0.6Y-0.55
X-0.5315Y0.3622
X-0.5315Y0.2638
X-0.4Y-0.65
X0.6Y-0.15
X0.6Y-0.25
X0.6Y-0.35
X0.6Y-0.45
X0.6Y-0.55
T4
X0.3206Y0.3098
X0.3206Y0.3098
T0
M30
