%TF.GenerationSoftware,KiCad,Pcbnew,(5.1.12)-1*%
%TF.CreationDate,2023-02-20T19:38:16+01:00*%
%TF.ProjectId,SolarSensorTagEFM32,536f6c61-7253-4656-9e73-6f7254616745,rev?*%
%TF.SameCoordinates,Original*%
%TF.FileFunction,Copper,L1,Top*%
%TF.FilePolarity,Positive*%
%FSLAX46Y46*%
G04 Gerber Fmt 4.6, Leading zero omitted, Abs format (unit mm)*
G04 Created by KiCad (PCBNEW (5.1.12)-1) date 2023-02-20 19:38:16*
%MOMM*%
%LPD*%
G01*
G04 APERTURE LIST*
%TA.AperFunction,NonConductor*%
%ADD10C,0.150000*%
%TD*%
%TA.AperFunction,NonConductor*%
%ADD11C,0.200000*%
%TD*%
%TA.AperFunction,NonConductor*%
%ADD12C,0.300000*%
%TD*%
%TA.AperFunction,EtchedComponent*%
%ADD13C,0.200000*%
%TD*%
%TA.AperFunction,SMDPad,CuDef*%
%ADD14R,1.200000X0.900000*%
%TD*%
%TA.AperFunction,ComponentPad*%
%ADD15C,2.200000*%
%TD*%
%TA.AperFunction,SMDPad,CuDef*%
%ADD16C,0.100000*%
%TD*%
%TA.AperFunction,SMDPad,CuDef*%
%ADD17R,2.600000X5.100000*%
%TD*%
%TA.AperFunction,SMDPad,CuDef*%
%ADD18C,17.000000*%
%TD*%
%TA.AperFunction,ComponentPad*%
%ADD19C,1.850000*%
%TD*%
%TA.AperFunction,ComponentPad*%
%ADD20R,1.500000X1.500000*%
%TD*%
%TA.AperFunction,ComponentPad*%
%ADD21O,1.700000X1.700000*%
%TD*%
%TA.AperFunction,ComponentPad*%
%ADD22C,1.700000*%
%TD*%
%TA.AperFunction,SMDPad,CuDef*%
%ADD23R,0.800000X1.200000*%
%TD*%
%TA.AperFunction,SMDPad,CuDef*%
%ADD24R,0.650000X1.200000*%
%TD*%
%TA.AperFunction,SMDPad,CuDef*%
%ADD25R,0.600000X1.200000*%
%TD*%
%TA.AperFunction,SMDPad,CuDef*%
%ADD26R,0.800000X1.800000*%
%TD*%
%TA.AperFunction,SMDPad,CuDef*%
%ADD27R,1.700000X2.000000*%
%TD*%
%TA.AperFunction,SMDPad,CuDef*%
%ADD28R,0.800000X0.800000*%
%TD*%
%TA.AperFunction,SMDPad,CuDef*%
%ADD29R,0.350000X0.500000*%
%TD*%
%TA.AperFunction,ComponentPad*%
%ADD30R,1.700000X1.700000*%
%TD*%
%TA.AperFunction,SMDPad,CuDef*%
%ADD31R,0.900000X1.200000*%
%TD*%
%TA.AperFunction,ViaPad*%
%ADD32C,0.400000*%
%TD*%
%TA.AperFunction,Conductor*%
%ADD33C,0.200000*%
%TD*%
%TA.AperFunction,Conductor*%
%ADD34C,0.100000*%
%TD*%
%TA.AperFunction,Conductor*%
%ADD35C,0.400000*%
%TD*%
%TA.AperFunction,Conductor*%
%ADD36C,0.300000*%
%TD*%
%TA.AperFunction,Conductor*%
%ADD37C,0.240000*%
%TD*%
G04 APERTURE END LIST*
D10*
X-3873500Y-1005000D02*
G75*
G03*
X-3873500Y-1005000I-700000J0D01*
G01*
X-4953000Y-1016000D02*
X-4191000Y-1016000D01*
X5080000Y-12192000D02*
X-5080000Y-12192000D01*
X5080000Y-9144000D02*
X5080000Y-12192000D01*
X2540000Y-9144000D02*
X2540000Y-12192000D01*
X0Y-9144000D02*
X0Y-12192000D01*
X-5080000Y-12192000D02*
X-5080000Y-9144000D01*
X-2540000Y-9144000D02*
X-2540000Y-12192000D01*
X-5080000Y-9144000D02*
X5080000Y-9144000D01*
D11*
X-3330628Y-11378571D02*
X-4187771Y-11378571D01*
X-3759200Y-11378571D02*
X-3759200Y-9878571D01*
X-3902057Y-10092857D01*
X-4044914Y-10235714D01*
X-4187771Y-10307142D01*
D12*
X8331261Y9727142D02*
X9321738Y9727142D01*
X8826500Y9231904D02*
X8826500Y10222380D01*
X4381561Y21700342D02*
X5372038Y21700342D01*
X4876800Y21205104D02*
X4876800Y22195580D01*
X-14846238Y17727142D02*
X-13855761Y17727142D01*
X-14351000Y17231904D02*
X-14351000Y18222380D01*
D11*
X-1710285Y-6442971D02*
X-853142Y-6442971D01*
X-1281714Y-7942971D02*
X-1281714Y-6442971D01*
X-67428Y-6442971D02*
X218285Y-6442971D01*
X361142Y-6514400D01*
X504000Y-6657257D01*
X575428Y-6942971D01*
X575428Y-7442971D01*
X504000Y-7728685D01*
X361142Y-7871542D01*
X218285Y-7942971D01*
X-67428Y-7942971D01*
X-210285Y-7871542D01*
X-353142Y-7728685D01*
X-424571Y-7442971D01*
X-424571Y-6942971D01*
X-353142Y-6657257D01*
X-210285Y-6514400D01*
X-67428Y-6442971D01*
X1218285Y-7942971D02*
X1218285Y-6442971D01*
X1789714Y-6442971D01*
X1932571Y-6514400D01*
X2003999Y-6585828D01*
X2075428Y-6728685D01*
X2075428Y-6942971D01*
X2003999Y-7085828D01*
X1932571Y-7157257D01*
X1789714Y-7228685D01*
X1218285Y-7228685D01*
D13*
%TO.C,R3*%
X4847500Y571500D02*
X5947500Y571500D01*
%TD*%
D14*
%TO.P,D7,2*%
%TO.N,/SP+*%
X12362000Y3048000D03*
%TO.P,D7,1*%
%TO.N,/VBAT*%
X14562000Y3048000D03*
%TD*%
%TO.P,IC_S2,6*%
%TO.N,GND*%
%TA.AperFunction,SMDPad,CuDef*%
G36*
G01*
X-9548500Y-12971000D02*
X-9723500Y-12971000D01*
G75*
G02*
X-9811000Y-12883500I0J87500D01*
G01*
X-9811000Y-12448500D01*
G75*
G02*
X-9723500Y-12361000I87500J0D01*
G01*
X-9548500Y-12361000D01*
G75*
G02*
X-9461000Y-12448500I0J-87500D01*
G01*
X-9461000Y-12883500D01*
G75*
G02*
X-9548500Y-12971000I-87500J0D01*
G01*
G37*
%TD.AperFunction*%
%TO.P,IC_S2,5*%
%TO.N,N/C*%
%TA.AperFunction,SMDPad,CuDef*%
G36*
G01*
X-8548500Y-12971000D02*
X-8723500Y-12971000D01*
G75*
G02*
X-8811000Y-12883500I0J87500D01*
G01*
X-8811000Y-12448500D01*
G75*
G02*
X-8723500Y-12361000I87500J0D01*
G01*
X-8548500Y-12361000D01*
G75*
G02*
X-8461000Y-12448500I0J-87500D01*
G01*
X-8461000Y-12883500D01*
G75*
G02*
X-8548500Y-12971000I-87500J0D01*
G01*
G37*
%TD.AperFunction*%
%TO.P,IC_S2,4*%
%TO.N,/VI2C*%
%TA.AperFunction,SMDPad,CuDef*%
G36*
G01*
X-7548500Y-12971000D02*
X-7723500Y-12971000D01*
G75*
G02*
X-7811000Y-12883500I0J87500D01*
G01*
X-7811000Y-12448500D01*
G75*
G02*
X-7723500Y-12361000I87500J0D01*
G01*
X-7548500Y-12361000D01*
G75*
G02*
X-7461000Y-12448500I0J-87500D01*
G01*
X-7461000Y-12883500D01*
G75*
G02*
X-7548500Y-12971000I-87500J0D01*
G01*
G37*
%TD.AperFunction*%
%TO.P,IC_S2,3*%
%TO.N,Net-(C_S2-Pad2)*%
%TA.AperFunction,SMDPad,CuDef*%
G36*
G01*
X-7548500Y-15071000D02*
X-7723500Y-15071000D01*
G75*
G02*
X-7811000Y-14983500I0J87500D01*
G01*
X-7811000Y-14548500D01*
G75*
G02*
X-7723500Y-14461000I87500J0D01*
G01*
X-7548500Y-14461000D01*
G75*
G02*
X-7461000Y-14548500I0J-87500D01*
G01*
X-7461000Y-14983500D01*
G75*
G02*
X-7548500Y-15071000I-87500J0D01*
G01*
G37*
%TD.AperFunction*%
%TO.P,IC_S2,2*%
%TO.N,/I2C_SDA*%
%TA.AperFunction,SMDPad,CuDef*%
G36*
G01*
X-8548500Y-15071000D02*
X-8723500Y-15071000D01*
G75*
G02*
X-8811000Y-14983500I0J87500D01*
G01*
X-8811000Y-14548500D01*
G75*
G02*
X-8723500Y-14461000I87500J0D01*
G01*
X-8548500Y-14461000D01*
G75*
G02*
X-8461000Y-14548500I0J-87500D01*
G01*
X-8461000Y-14983500D01*
G75*
G02*
X-8548500Y-15071000I-87500J0D01*
G01*
G37*
%TD.AperFunction*%
%TO.P,IC_S2,1*%
%TO.N,/I2C_SCL*%
%TA.AperFunction,SMDPad,CuDef*%
G36*
G01*
X-9548500Y-15071000D02*
X-9723500Y-15071000D01*
G75*
G02*
X-9811000Y-14983500I0J87500D01*
G01*
X-9811000Y-14548500D01*
G75*
G02*
X-9723500Y-14461000I87500J0D01*
G01*
X-9548500Y-14461000D01*
G75*
G02*
X-9461000Y-14548500I0J-87500D01*
G01*
X-9461000Y-14983500D01*
G75*
G02*
X-9548500Y-15071000I-87500J0D01*
G01*
G37*
%TD.AperFunction*%
%TD*%
D15*
%TO.P,IC6,33*%
%TO.N,GND*%
X8144000Y7869000D03*
%TD*%
%TA.AperFunction,SMDPad,CuDef*%
D16*
%TO.P,BT1,1*%
%TO.N,/VBAT*%
G36*
X7800000Y15800000D02*
G01*
X10800000Y15800000D01*
X10800000Y15400000D01*
X11500000Y14700000D01*
X12800000Y14700000D01*
X12800000Y10800000D01*
X7800000Y10800000D01*
X7800000Y15800000D01*
G37*
%TD.AperFunction*%
%TA.AperFunction,SMDPad,CuDef*%
G36*
X5800000Y20000000D02*
G01*
X5800000Y22300000D01*
X8900000Y22300000D01*
X8900000Y18600000D01*
X6700000Y18600000D01*
X5800000Y20000000D01*
G37*
%TD.AperFunction*%
%TO.P,BT1,2*%
%TO.N,GND*%
%TA.AperFunction,SMDPad,CuDef*%
G36*
G01*
X-7930762Y8152081D02*
X-7647919Y7869238D01*
G75*
G02*
X-7647919Y7586396I-141421J-141421D01*
G01*
X-9486396Y5747919D01*
G75*
G02*
X-9769238Y5747919I-141421J141421D01*
G01*
X-10052081Y6030762D01*
G75*
G02*
X-10052081Y6313604I141421J141421D01*
G01*
X-8213604Y8152081D01*
G75*
G02*
X-7930762Y8152081I141421J-141421D01*
G01*
G37*
%TD.AperFunction*%
%TA.AperFunction,SMDPad,CuDef*%
G36*
G01*
X-9863604Y6502082D02*
X-9297918Y5936396D01*
G75*
G02*
X-9297918Y5370710I-282843J-282843D01*
G01*
X-10570710Y4097918D01*
G75*
G02*
X-11136396Y4097918I-282843J282843D01*
G01*
X-11702082Y4663604D01*
G75*
G02*
X-11702082Y5229290I282843J282843D01*
G01*
X-10429290Y6502082D01*
G75*
G02*
X-9863604Y6502082I282843J-282843D01*
G01*
G37*
%TD.AperFunction*%
%TA.AperFunction,SMDPad,CuDef*%
G36*
G01*
X-1000000Y2550000D02*
X-1000000Y450000D01*
G75*
G02*
X-1750000Y-300000I-750000J0D01*
G01*
X-3250000Y-300000D01*
G75*
G02*
X-4000000Y450000I0J750000D01*
G01*
X-4000000Y2550000D01*
G75*
G02*
X-3250000Y3300000I750000J0D01*
G01*
X-1750000Y3300000D01*
G75*
G02*
X-1000000Y2550000I0J-750000D01*
G01*
G37*
%TD.AperFunction*%
D17*
%TO.P,BT1,1*%
%TO.N,/VBAT*%
X-14100000Y13300000D03*
D18*
%TO.P,BT1,2*%
%TO.N,GND*%
X-2500000Y13300000D03*
%TA.AperFunction,SMDPad,CuDef*%
G36*
G01*
X-1900000Y6000000D02*
X-1900000Y2600000D01*
G75*
G02*
X-2200000Y2300000I-300000J0D01*
G01*
X-2800000Y2300000D01*
G75*
G02*
X-3100000Y2600000I0J300000D01*
G01*
X-3100000Y6000000D01*
G75*
G02*
X-2800000Y6300000I300000J0D01*
G01*
X-2200000Y6300000D01*
G75*
G02*
X-1900000Y6000000I0J-300000D01*
G01*
G37*
%TD.AperFunction*%
%TD*%
D19*
%TO.P,TRX1,10*%
%TO.N,N/C*%
X-13500000Y9200000D03*
%TO.P,TRX1,9*%
X-13500000Y6700000D03*
%TD*%
%TO.P,J4,1*%
%TO.N,/VBAT*%
%TA.AperFunction,SMDPad,CuDef*%
G36*
G01*
X-9985000Y520000D02*
X-10935000Y520000D01*
G75*
G02*
X-11310000Y895000I0J375000D01*
G01*
X-11310000Y1645000D01*
G75*
G02*
X-10935000Y2020000I375000J0D01*
G01*
X-9985000Y2020000D01*
G75*
G02*
X-9610000Y1645000I0J-375000D01*
G01*
X-9610000Y895000D01*
G75*
G02*
X-9985000Y520000I-375000J0D01*
G01*
G37*
%TD.AperFunction*%
%TD*%
%TO.P,IC_S8,24*%
%TO.N,/I2C_SDA*%
%TA.AperFunction,SMDPad,CuDef*%
G36*
G01*
X8223000Y-5333000D02*
X8073000Y-5333000D01*
G75*
G02*
X7998000Y-5258000I0J75000D01*
G01*
X7998000Y-4558000D01*
G75*
G02*
X8073000Y-4483000I75000J0D01*
G01*
X8223000Y-4483000D01*
G75*
G02*
X8298000Y-4558000I0J-75000D01*
G01*
X8298000Y-5258000D01*
G75*
G02*
X8223000Y-5333000I-75000J0D01*
G01*
G37*
%TD.AperFunction*%
%TO.P,IC_S8,23*%
%TO.N,/I2C_SCL*%
%TA.AperFunction,SMDPad,CuDef*%
G36*
G01*
X8723000Y-5333000D02*
X8573000Y-5333000D01*
G75*
G02*
X8498000Y-5258000I0J75000D01*
G01*
X8498000Y-4558000D01*
G75*
G02*
X8573000Y-4483000I75000J0D01*
G01*
X8723000Y-4483000D01*
G75*
G02*
X8798000Y-4558000I0J-75000D01*
G01*
X8798000Y-5258000D01*
G75*
G02*
X8723000Y-5333000I-75000J0D01*
G01*
G37*
%TD.AperFunction*%
%TO.P,IC_S8,22*%
%TO.N,/VI2C*%
%TA.AperFunction,SMDPad,CuDef*%
G36*
G01*
X9223000Y-5333000D02*
X9073000Y-5333000D01*
G75*
G02*
X8998000Y-5258000I0J75000D01*
G01*
X8998000Y-4558000D01*
G75*
G02*
X9073000Y-4483000I75000J0D01*
G01*
X9223000Y-4483000D01*
G75*
G02*
X9298000Y-4558000I0J-75000D01*
G01*
X9298000Y-5258000D01*
G75*
G02*
X9223000Y-5333000I-75000J0D01*
G01*
G37*
%TD.AperFunction*%
%TO.P,IC_S8,21*%
%TO.N,N/C*%
%TA.AperFunction,SMDPad,CuDef*%
G36*
G01*
X9723000Y-5333000D02*
X9573000Y-5333000D01*
G75*
G02*
X9498000Y-5258000I0J75000D01*
G01*
X9498000Y-4558000D01*
G75*
G02*
X9573000Y-4483000I75000J0D01*
G01*
X9723000Y-4483000D01*
G75*
G02*
X9798000Y-4558000I0J-75000D01*
G01*
X9798000Y-5258000D01*
G75*
G02*
X9723000Y-5333000I-75000J0D01*
G01*
G37*
%TD.AperFunction*%
%TO.P,IC_S8,20*%
%TO.N,GND*%
%TA.AperFunction,SMDPad,CuDef*%
G36*
G01*
X10223000Y-5333000D02*
X10073000Y-5333000D01*
G75*
G02*
X9998000Y-5258000I0J75000D01*
G01*
X9998000Y-4558000D01*
G75*
G02*
X10073000Y-4483000I75000J0D01*
G01*
X10223000Y-4483000D01*
G75*
G02*
X10298000Y-4558000I0J-75000D01*
G01*
X10298000Y-5258000D01*
G75*
G02*
X10223000Y-5333000I-75000J0D01*
G01*
G37*
%TD.AperFunction*%
%TO.P,IC_S8,19*%
%TO.N,N/C*%
%TA.AperFunction,SMDPad,CuDef*%
G36*
G01*
X10723000Y-5333000D02*
X10573000Y-5333000D01*
G75*
G02*
X10498000Y-5258000I0J75000D01*
G01*
X10498000Y-4558000D01*
G75*
G02*
X10573000Y-4483000I75000J0D01*
G01*
X10723000Y-4483000D01*
G75*
G02*
X10798000Y-4558000I0J-75000D01*
G01*
X10798000Y-5258000D01*
G75*
G02*
X10723000Y-5333000I-75000J0D01*
G01*
G37*
%TD.AperFunction*%
%TO.P,IC_S8,18*%
%TO.N,GND*%
%TA.AperFunction,SMDPad,CuDef*%
G36*
G01*
X10923000Y-5683000D02*
X10923000Y-5533000D01*
G75*
G02*
X10998000Y-5458000I75000J0D01*
G01*
X11698000Y-5458000D01*
G75*
G02*
X11773000Y-5533000I0J-75000D01*
G01*
X11773000Y-5683000D01*
G75*
G02*
X11698000Y-5758000I-75000J0D01*
G01*
X10998000Y-5758000D01*
G75*
G02*
X10923000Y-5683000I0J75000D01*
G01*
G37*
%TD.AperFunction*%
%TO.P,IC_S8,17*%
%TO.N,N/C*%
%TA.AperFunction,SMDPad,CuDef*%
G36*
G01*
X10923000Y-6183000D02*
X10923000Y-6033000D01*
G75*
G02*
X10998000Y-5958000I75000J0D01*
G01*
X11698000Y-5958000D01*
G75*
G02*
X11773000Y-6033000I0J-75000D01*
G01*
X11773000Y-6183000D01*
G75*
G02*
X11698000Y-6258000I-75000J0D01*
G01*
X10998000Y-6258000D01*
G75*
G02*
X10923000Y-6183000I0J75000D01*
G01*
G37*
%TD.AperFunction*%
%TO.P,IC_S8,16*%
%TA.AperFunction,SMDPad,CuDef*%
G36*
G01*
X10923000Y-6683000D02*
X10923000Y-6533000D01*
G75*
G02*
X10998000Y-6458000I75000J0D01*
G01*
X11698000Y-6458000D01*
G75*
G02*
X11773000Y-6533000I0J-75000D01*
G01*
X11773000Y-6683000D01*
G75*
G02*
X11698000Y-6758000I-75000J0D01*
G01*
X10998000Y-6758000D01*
G75*
G02*
X10923000Y-6683000I0J75000D01*
G01*
G37*
%TD.AperFunction*%
%TO.P,IC_S8,15*%
%TA.AperFunction,SMDPad,CuDef*%
G36*
G01*
X10923000Y-7183000D02*
X10923000Y-7033000D01*
G75*
G02*
X10998000Y-6958000I75000J0D01*
G01*
X11698000Y-6958000D01*
G75*
G02*
X11773000Y-7033000I0J-75000D01*
G01*
X11773000Y-7183000D01*
G75*
G02*
X11698000Y-7258000I-75000J0D01*
G01*
X10998000Y-7258000D01*
G75*
G02*
X10923000Y-7183000I0J75000D01*
G01*
G37*
%TD.AperFunction*%
%TO.P,IC_S8,14*%
%TA.AperFunction,SMDPad,CuDef*%
G36*
G01*
X10923000Y-7683000D02*
X10923000Y-7533000D01*
G75*
G02*
X10998000Y-7458000I75000J0D01*
G01*
X11698000Y-7458000D01*
G75*
G02*
X11773000Y-7533000I0J-75000D01*
G01*
X11773000Y-7683000D01*
G75*
G02*
X11698000Y-7758000I-75000J0D01*
G01*
X10998000Y-7758000D01*
G75*
G02*
X10923000Y-7683000I0J75000D01*
G01*
G37*
%TD.AperFunction*%
%TO.P,IC_S8,13*%
%TO.N,+3V0*%
%TA.AperFunction,SMDPad,CuDef*%
G36*
G01*
X10923000Y-8183000D02*
X10923000Y-8033000D01*
G75*
G02*
X10998000Y-7958000I75000J0D01*
G01*
X11698000Y-7958000D01*
G75*
G02*
X11773000Y-8033000I0J-75000D01*
G01*
X11773000Y-8183000D01*
G75*
G02*
X11698000Y-8258000I-75000J0D01*
G01*
X10998000Y-8258000D01*
G75*
G02*
X10923000Y-8183000I0J75000D01*
G01*
G37*
%TD.AperFunction*%
%TO.P,IC_S8,12*%
%TO.N,Net-(D_S78-Pad2)*%
%TA.AperFunction,SMDPad,CuDef*%
G36*
G01*
X10723000Y-9233000D02*
X10573000Y-9233000D01*
G75*
G02*
X10498000Y-9158000I0J75000D01*
G01*
X10498000Y-8458000D01*
G75*
G02*
X10573000Y-8383000I75000J0D01*
G01*
X10723000Y-8383000D01*
G75*
G02*
X10798000Y-8458000I0J-75000D01*
G01*
X10798000Y-9158000D01*
G75*
G02*
X10723000Y-9233000I-75000J0D01*
G01*
G37*
%TD.AperFunction*%
%TO.P,IC_S8,11*%
%TO.N,GND*%
%TA.AperFunction,SMDPad,CuDef*%
G36*
G01*
X10223000Y-9233000D02*
X10073000Y-9233000D01*
G75*
G02*
X9998000Y-9158000I0J75000D01*
G01*
X9998000Y-8458000D01*
G75*
G02*
X10073000Y-8383000I75000J0D01*
G01*
X10223000Y-8383000D01*
G75*
G02*
X10298000Y-8458000I0J-75000D01*
G01*
X10298000Y-9158000D01*
G75*
G02*
X10223000Y-9233000I-75000J0D01*
G01*
G37*
%TD.AperFunction*%
%TO.P,IC_S8,10*%
%TO.N,Net-(C_S8-Pad2)*%
%TA.AperFunction,SMDPad,CuDef*%
G36*
G01*
X9723000Y-9233000D02*
X9573000Y-9233000D01*
G75*
G02*
X9498000Y-9158000I0J75000D01*
G01*
X9498000Y-8458000D01*
G75*
G02*
X9573000Y-8383000I75000J0D01*
G01*
X9723000Y-8383000D01*
G75*
G02*
X9798000Y-8458000I0J-75000D01*
G01*
X9798000Y-9158000D01*
G75*
G02*
X9723000Y-9233000I-75000J0D01*
G01*
G37*
%TD.AperFunction*%
%TO.P,IC_S8,9*%
%TO.N,GND*%
%TA.AperFunction,SMDPad,CuDef*%
G36*
G01*
X9223000Y-9233000D02*
X9073000Y-9233000D01*
G75*
G02*
X8998000Y-9158000I0J75000D01*
G01*
X8998000Y-8458000D01*
G75*
G02*
X9073000Y-8383000I75000J0D01*
G01*
X9223000Y-8383000D01*
G75*
G02*
X9298000Y-8458000I0J-75000D01*
G01*
X9298000Y-9158000D01*
G75*
G02*
X9223000Y-9233000I-75000J0D01*
G01*
G37*
%TD.AperFunction*%
%TO.P,IC_S8,8*%
%TO.N,/VI2C*%
%TA.AperFunction,SMDPad,CuDef*%
G36*
G01*
X8723000Y-9233000D02*
X8573000Y-9233000D01*
G75*
G02*
X8498000Y-9158000I0J75000D01*
G01*
X8498000Y-8458000D01*
G75*
G02*
X8573000Y-8383000I75000J0D01*
G01*
X8723000Y-8383000D01*
G75*
G02*
X8798000Y-8458000I0J-75000D01*
G01*
X8798000Y-9158000D01*
G75*
G02*
X8723000Y-9233000I-75000J0D01*
G01*
G37*
%TD.AperFunction*%
%TO.P,IC_S8,7*%
%TO.N,N/C*%
%TA.AperFunction,SMDPad,CuDef*%
G36*
G01*
X8223000Y-9233000D02*
X8073000Y-9233000D01*
G75*
G02*
X7998000Y-9158000I0J75000D01*
G01*
X7998000Y-8458000D01*
G75*
G02*
X8073000Y-8383000I75000J0D01*
G01*
X8223000Y-8383000D01*
G75*
G02*
X8298000Y-8458000I0J-75000D01*
G01*
X8298000Y-9158000D01*
G75*
G02*
X8223000Y-9233000I-75000J0D01*
G01*
G37*
%TD.AperFunction*%
%TO.P,IC_S8,6*%
%TA.AperFunction,SMDPad,CuDef*%
G36*
G01*
X7023000Y-8183000D02*
X7023000Y-8033000D01*
G75*
G02*
X7098000Y-7958000I75000J0D01*
G01*
X7798000Y-7958000D01*
G75*
G02*
X7873000Y-8033000I0J-75000D01*
G01*
X7873000Y-8183000D01*
G75*
G02*
X7798000Y-8258000I-75000J0D01*
G01*
X7098000Y-8258000D01*
G75*
G02*
X7023000Y-8183000I0J75000D01*
G01*
G37*
%TD.AperFunction*%
%TO.P,IC_S8,5*%
%TA.AperFunction,SMDPad,CuDef*%
G36*
G01*
X7023000Y-7683000D02*
X7023000Y-7533000D01*
G75*
G02*
X7098000Y-7458000I75000J0D01*
G01*
X7798000Y-7458000D01*
G75*
G02*
X7873000Y-7533000I0J-75000D01*
G01*
X7873000Y-7683000D01*
G75*
G02*
X7798000Y-7758000I-75000J0D01*
G01*
X7098000Y-7758000D01*
G75*
G02*
X7023000Y-7683000I0J75000D01*
G01*
G37*
%TD.AperFunction*%
%TO.P,IC_S8,4*%
%TA.AperFunction,SMDPad,CuDef*%
G36*
G01*
X7023000Y-7183000D02*
X7023000Y-7033000D01*
G75*
G02*
X7098000Y-6958000I75000J0D01*
G01*
X7798000Y-6958000D01*
G75*
G02*
X7873000Y-7033000I0J-75000D01*
G01*
X7873000Y-7183000D01*
G75*
G02*
X7798000Y-7258000I-75000J0D01*
G01*
X7098000Y-7258000D01*
G75*
G02*
X7023000Y-7183000I0J75000D01*
G01*
G37*
%TD.AperFunction*%
%TO.P,IC_S8,3*%
%TA.AperFunction,SMDPad,CuDef*%
G36*
G01*
X7023000Y-6683000D02*
X7023000Y-6533000D01*
G75*
G02*
X7098000Y-6458000I75000J0D01*
G01*
X7798000Y-6458000D01*
G75*
G02*
X7873000Y-6533000I0J-75000D01*
G01*
X7873000Y-6683000D01*
G75*
G02*
X7798000Y-6758000I-75000J0D01*
G01*
X7098000Y-6758000D01*
G75*
G02*
X7023000Y-6683000I0J75000D01*
G01*
G37*
%TD.AperFunction*%
%TO.P,IC_S8,2*%
%TA.AperFunction,SMDPad,CuDef*%
G36*
G01*
X7023000Y-6183000D02*
X7023000Y-6033000D01*
G75*
G02*
X7098000Y-5958000I75000J0D01*
G01*
X7798000Y-5958000D01*
G75*
G02*
X7873000Y-6033000I0J-75000D01*
G01*
X7873000Y-6183000D01*
G75*
G02*
X7798000Y-6258000I-75000J0D01*
G01*
X7098000Y-6258000D01*
G75*
G02*
X7023000Y-6183000I0J75000D01*
G01*
G37*
%TD.AperFunction*%
%TO.P,IC_S8,1*%
%TO.N,GND*%
%TA.AperFunction,SMDPad,CuDef*%
G36*
G01*
X7023000Y-5683000D02*
X7023000Y-5533000D01*
G75*
G02*
X7098000Y-5458000I75000J0D01*
G01*
X7798000Y-5458000D01*
G75*
G02*
X7873000Y-5533000I0J-75000D01*
G01*
X7873000Y-5683000D01*
G75*
G02*
X7798000Y-5758000I-75000J0D01*
G01*
X7098000Y-5758000D01*
G75*
G02*
X7023000Y-5683000I0J75000D01*
G01*
G37*
%TD.AperFunction*%
%TD*%
%TO.P,IC_S1,8*%
%TO.N,/VI2C*%
%TA.AperFunction,SMDPad,CuDef*%
G36*
G01*
X-11280000Y-4215000D02*
X-11580000Y-4215000D01*
G75*
G02*
X-11730000Y-4065000I0J150000D01*
G01*
X-11730000Y-2415000D01*
G75*
G02*
X-11580000Y-2265000I150000J0D01*
G01*
X-11280000Y-2265000D01*
G75*
G02*
X-11130000Y-2415000I0J-150000D01*
G01*
X-11130000Y-4065000D01*
G75*
G02*
X-11280000Y-4215000I-150000J0D01*
G01*
G37*
%TD.AperFunction*%
%TO.P,IC_S1,7*%
%TO.N,GND*%
%TA.AperFunction,SMDPad,CuDef*%
G36*
G01*
X-10010000Y-4215000D02*
X-10310000Y-4215000D01*
G75*
G02*
X-10460000Y-4065000I0J150000D01*
G01*
X-10460000Y-2415000D01*
G75*
G02*
X-10310000Y-2265000I150000J0D01*
G01*
X-10010000Y-2265000D01*
G75*
G02*
X-9860000Y-2415000I0J-150000D01*
G01*
X-9860000Y-4065000D01*
G75*
G02*
X-10010000Y-4215000I-150000J0D01*
G01*
G37*
%TD.AperFunction*%
%TO.P,IC_S1,6*%
%TA.AperFunction,SMDPad,CuDef*%
G36*
G01*
X-8740000Y-4215000D02*
X-9040000Y-4215000D01*
G75*
G02*
X-9190000Y-4065000I0J150000D01*
G01*
X-9190000Y-2415000D01*
G75*
G02*
X-9040000Y-2265000I150000J0D01*
G01*
X-8740000Y-2265000D01*
G75*
G02*
X-8590000Y-2415000I0J-150000D01*
G01*
X-8590000Y-4065000D01*
G75*
G02*
X-8740000Y-4215000I-150000J0D01*
G01*
G37*
%TD.AperFunction*%
%TO.P,IC_S1,5*%
%TA.AperFunction,SMDPad,CuDef*%
G36*
G01*
X-7470000Y-4215000D02*
X-7770000Y-4215000D01*
G75*
G02*
X-7920000Y-4065000I0J150000D01*
G01*
X-7920000Y-2415000D01*
G75*
G02*
X-7770000Y-2265000I150000J0D01*
G01*
X-7470000Y-2265000D01*
G75*
G02*
X-7320000Y-2415000I0J-150000D01*
G01*
X-7320000Y-4065000D01*
G75*
G02*
X-7470000Y-4215000I-150000J0D01*
G01*
G37*
%TD.AperFunction*%
%TO.P,IC_S1,4*%
%TA.AperFunction,SMDPad,CuDef*%
G36*
G01*
X-7470000Y-9165000D02*
X-7770000Y-9165000D01*
G75*
G02*
X-7920000Y-9015000I0J150000D01*
G01*
X-7920000Y-7365000D01*
G75*
G02*
X-7770000Y-7215000I150000J0D01*
G01*
X-7470000Y-7215000D01*
G75*
G02*
X-7320000Y-7365000I0J-150000D01*
G01*
X-7320000Y-9015000D01*
G75*
G02*
X-7470000Y-9165000I-150000J0D01*
G01*
G37*
%TD.AperFunction*%
%TO.P,IC_S1,3*%
%TO.N,N/C*%
%TA.AperFunction,SMDPad,CuDef*%
G36*
G01*
X-8740000Y-9165000D02*
X-9040000Y-9165000D01*
G75*
G02*
X-9190000Y-9015000I0J150000D01*
G01*
X-9190000Y-7365000D01*
G75*
G02*
X-9040000Y-7215000I150000J0D01*
G01*
X-8740000Y-7215000D01*
G75*
G02*
X-8590000Y-7365000I0J-150000D01*
G01*
X-8590000Y-9015000D01*
G75*
G02*
X-8740000Y-9165000I-150000J0D01*
G01*
G37*
%TD.AperFunction*%
%TO.P,IC_S1,2*%
%TO.N,/I2C_SCL*%
%TA.AperFunction,SMDPad,CuDef*%
G36*
G01*
X-10010000Y-9165000D02*
X-10310000Y-9165000D01*
G75*
G02*
X-10460000Y-9015000I0J150000D01*
G01*
X-10460000Y-7365000D01*
G75*
G02*
X-10310000Y-7215000I150000J0D01*
G01*
X-10010000Y-7215000D01*
G75*
G02*
X-9860000Y-7365000I0J-150000D01*
G01*
X-9860000Y-9015000D01*
G75*
G02*
X-10010000Y-9165000I-150000J0D01*
G01*
G37*
%TD.AperFunction*%
%TO.P,IC_S1,1*%
%TO.N,/I2C_SDA*%
%TA.AperFunction,SMDPad,CuDef*%
G36*
G01*
X-11280000Y-9165000D02*
X-11580000Y-9165000D01*
G75*
G02*
X-11730000Y-9015000I0J150000D01*
G01*
X-11730000Y-7365000D01*
G75*
G02*
X-11580000Y-7215000I150000J0D01*
G01*
X-11280000Y-7215000D01*
G75*
G02*
X-11130000Y-7365000I0J-150000D01*
G01*
X-11130000Y-9015000D01*
G75*
G02*
X-11280000Y-9165000I-150000J0D01*
G01*
G37*
%TD.AperFunction*%
%TD*%
D20*
%TO.P,D4,1*%
%TO.N,/DLED_R*%
X-2540000Y-16891000D03*
D21*
%TO.P,D4,2*%
%TO.N,GND*%
X0Y-16891000D03*
%TO.P,D4,3*%
%TO.N,/DLED_G*%
X2540000Y-16891000D03*
%TD*%
D22*
%TO.P,J2,1*%
%TO.N,/~TA~*%
X-10160000Y-16510000D03*
%TD*%
%TO.P,SP1,~*%
%TO.N,/SP+*%
%TA.AperFunction,SMDPad,CuDef*%
G36*
G01*
X8871000Y16695000D02*
X8871000Y17595000D01*
G75*
G02*
X9321000Y18045000I450000J0D01*
G01*
X10221000Y18045000D01*
G75*
G02*
X10671000Y17595000I0J-450000D01*
G01*
X10671000Y16695000D01*
G75*
G02*
X10221000Y16245000I-450000J0D01*
G01*
X9321000Y16245000D01*
G75*
G02*
X8871000Y16695000I0J450000D01*
G01*
G37*
%TD.AperFunction*%
%TD*%
D14*
%TO.P,R3,1*%
%TO.N,/~TA~*%
X4297500Y571500D03*
%TO.P,R3,2*%
%TO.N,Net-(D2-Pad1)*%
X6497500Y571500D03*
%TD*%
D23*
%TO.P,IC5,5*%
%TO.N,+3V0*%
X12893000Y7192000D03*
%TO.P,IC5,4*%
%TO.N,N/C*%
X14793000Y7192000D03*
D24*
%TO.P,IC5,3*%
%TO.N,Net-(C3-Pad2)*%
X14793000Y4492000D03*
D25*
%TO.P,IC5,2*%
%TO.N,GND*%
X13843000Y4492000D03*
D24*
%TO.P,IC5,1*%
%TO.N,/VBAT*%
X12893000Y4492000D03*
%TD*%
D26*
%TO.P,Y2,2*%
%TO.N,GND*%
X10160000Y5207000D03*
%TO.P,Y2,1*%
%TO.N,/X2*%
X11660000Y5207000D03*
%TO.P,Y2,3*%
%TO.N,/X1*%
X8660000Y5207000D03*
%TD*%
%TO.P,TA1,~*%
%TO.N,/TA1*%
%TA.AperFunction,SMDPad,CuDef*%
G36*
G01*
X8912400Y-831000D02*
X8912400Y69000D01*
G75*
G02*
X9362400Y519000I450000J0D01*
G01*
X11262400Y519000D01*
G75*
G02*
X11712400Y69000I0J-450000D01*
G01*
X11712400Y-831000D01*
G75*
G02*
X11262400Y-1281000I-450000J0D01*
G01*
X9362400Y-1281000D01*
G75*
G02*
X8912400Y-831000I0J450000D01*
G01*
G37*
%TD.AperFunction*%
%TD*%
D27*
%TO.P,C4,1*%
%TO.N,+3V0*%
X14351000Y9766800D03*
%TO.P,C4,2*%
%TO.N,GND*%
X14351000Y13766800D03*
%TD*%
D28*
%TO.P,IC1,3*%
%TO.N,N/C*%
X8985500Y2225000D03*
%TO.P,IC1,2*%
%TO.N,GND*%
X10985500Y3175000D03*
%TO.P,IC1,1*%
%TO.N,/SP+*%
X10985500Y1275000D03*
%TD*%
D29*
%TO.P,IC_S4,4*%
%TO.N,/I2C_SCL*%
X9357000Y-12818000D03*
%TO.P,IC_S4,3*%
%TO.N,/I2C_SDA*%
X8707000Y-12818000D03*
%TO.P,IC_S4,2*%
%TO.N,/VI2C*%
X8057000Y-12818000D03*
%TO.P,IC_S4,1*%
%TO.N,GND*%
X7407000Y-12818000D03*
%TO.P,IC_S4,8*%
%TO.N,/VI2C*%
X7407000Y-14868000D03*
%TO.P,IC_S4,7*%
%TO.N,GND*%
X8057000Y-14868000D03*
%TO.P,IC_S4,6*%
%TO.N,/VI2C*%
X8707000Y-14868000D03*
%TO.P,IC_S4,5*%
X9357000Y-14868000D03*
%TD*%
D30*
%TO.P,J1,1*%
%TO.N,+3V0*%
X-15240000Y-3810000D03*
D21*
%TO.P,J1,2*%
%TO.N,/SWDIO*%
X-15240000Y-6350000D03*
%TO.P,J1,3*%
%TO.N,/SWCLK*%
X-15240000Y-8890000D03*
%TO.P,J1,4*%
%TO.N,/~RESET~*%
X-15240000Y-11430000D03*
%TO.P,J1,5*%
%TO.N,GND*%
X-15240000Y-13970000D03*
%TD*%
D30*
%TO.P,J5,1*%
%TO.N,/VSPI*%
X15240000Y-3810000D03*
D21*
%TO.P,J5,2*%
%TO.N,/SPI_MISO*%
X15240000Y-6350000D03*
%TO.P,J5,3*%
%TO.N,/SPI_SCK*%
X15240000Y-8890000D03*
%TO.P,J5,4*%
%TO.N,/SPI_MOSI*%
X15240000Y-11430000D03*
%TO.P,J5,5*%
%TO.N,/~SPI_SS~*%
X15240000Y-13970000D03*
%TD*%
%TO.P,J3,1*%
%TO.N,+3V0*%
%TA.AperFunction,SMDPad,CuDef*%
G36*
G01*
X-13750000Y-4285000D02*
X-13750000Y-3335000D01*
G75*
G02*
X-13375000Y-2960000I375000J0D01*
G01*
X-12625000Y-2960000D01*
G75*
G02*
X-12250000Y-3335000I0J-375000D01*
G01*
X-12250000Y-4285000D01*
G75*
G02*
X-12625000Y-4660000I-375000J0D01*
G01*
X-13375000Y-4660000D01*
G75*
G02*
X-13750000Y-4285000I0J375000D01*
G01*
G37*
%TD.AperFunction*%
%TO.P,J3,2*%
%TO.N,/VI2C*%
%TA.AperFunction,SMDPad,CuDef*%
G36*
G01*
X-13750000Y-6825000D02*
X-13750000Y-5875000D01*
G75*
G02*
X-13375000Y-5500000I375000J0D01*
G01*
X-12625000Y-5500000D01*
G75*
G02*
X-12250000Y-5875000I0J-375000D01*
G01*
X-12250000Y-6825000D01*
G75*
G02*
X-12625000Y-7200000I-375000J0D01*
G01*
X-13375000Y-7200000D01*
G75*
G02*
X-13750000Y-6825000I0J375000D01*
G01*
G37*
%TD.AperFunction*%
%TO.P,J3,3*%
%TO.N,/I2C_SCL*%
%TA.AperFunction,SMDPad,CuDef*%
G36*
G01*
X-13750000Y-9365000D02*
X-13750000Y-8415000D01*
G75*
G02*
X-13375000Y-8040000I375000J0D01*
G01*
X-12625000Y-8040000D01*
G75*
G02*
X-12250000Y-8415000I0J-375000D01*
G01*
X-12250000Y-9365000D01*
G75*
G02*
X-12625000Y-9740000I-375000J0D01*
G01*
X-13375000Y-9740000D01*
G75*
G02*
X-13750000Y-9365000I0J375000D01*
G01*
G37*
%TD.AperFunction*%
%TO.P,J3,4*%
%TO.N,/I2C_SDA*%
%TA.AperFunction,SMDPad,CuDef*%
G36*
G01*
X-13750000Y-11905000D02*
X-13750000Y-10955000D01*
G75*
G02*
X-13375000Y-10580000I375000J0D01*
G01*
X-12625000Y-10580000D01*
G75*
G02*
X-12250000Y-10955000I0J-375000D01*
G01*
X-12250000Y-11905000D01*
G75*
G02*
X-12625000Y-12280000I-375000J0D01*
G01*
X-13375000Y-12280000D01*
G75*
G02*
X-13750000Y-11905000I0J375000D01*
G01*
G37*
%TD.AperFunction*%
%TO.P,J3,5*%
%TO.N,GND*%
%TA.AperFunction,SMDPad,CuDef*%
G36*
G01*
X-13750000Y-14445000D02*
X-13750000Y-13495000D01*
G75*
G02*
X-13375000Y-13120000I375000J0D01*
G01*
X-12625000Y-13120000D01*
G75*
G02*
X-12250000Y-13495000I0J-375000D01*
G01*
X-12250000Y-14445000D01*
G75*
G02*
X-12625000Y-14820000I-375000J0D01*
G01*
X-13375000Y-14820000D01*
G75*
G02*
X-13750000Y-14445000I0J375000D01*
G01*
G37*
%TD.AperFunction*%
%TD*%
%TO.P,J6,1*%
%TO.N,/PB0*%
%TA.AperFunction,SMDPad,CuDef*%
G36*
G01*
X12331000Y-4285000D02*
X12331000Y-3335000D01*
G75*
G02*
X12706000Y-2960000I375000J0D01*
G01*
X13456000Y-2960000D01*
G75*
G02*
X13831000Y-3335000I0J-375000D01*
G01*
X13831000Y-4285000D01*
G75*
G02*
X13456000Y-4660000I-375000J0D01*
G01*
X12706000Y-4660000D01*
G75*
G02*
X12331000Y-4285000I0J375000D01*
G01*
G37*
%TD.AperFunction*%
%TO.P,J6,2*%
%TO.N,/ADC0*%
%TA.AperFunction,SMDPad,CuDef*%
G36*
G01*
X12331000Y-6825000D02*
X12331000Y-5875000D01*
G75*
G02*
X12706000Y-5500000I375000J0D01*
G01*
X13456000Y-5500000D01*
G75*
G02*
X13831000Y-5875000I0J-375000D01*
G01*
X13831000Y-6825000D01*
G75*
G02*
X13456000Y-7200000I-375000J0D01*
G01*
X12706000Y-7200000D01*
G75*
G02*
X12331000Y-6825000I0J375000D01*
G01*
G37*
%TD.AperFunction*%
%TO.P,J6,3*%
%TO.N,/PWR_ON*%
%TA.AperFunction,SMDPad,CuDef*%
G36*
G01*
X12331000Y-9365000D02*
X12331000Y-8415000D01*
G75*
G02*
X12706000Y-8040000I375000J0D01*
G01*
X13456000Y-8040000D01*
G75*
G02*
X13831000Y-8415000I0J-375000D01*
G01*
X13831000Y-9365000D01*
G75*
G02*
X13456000Y-9740000I-375000J0D01*
G01*
X12706000Y-9740000D01*
G75*
G02*
X12331000Y-9365000I0J375000D01*
G01*
G37*
%TD.AperFunction*%
%TO.P,J6,4*%
%TO.N,/~INT0~*%
%TA.AperFunction,SMDPad,CuDef*%
G36*
G01*
X12331000Y-11905000D02*
X12331000Y-10955000D01*
G75*
G02*
X12706000Y-10580000I375000J0D01*
G01*
X13456000Y-10580000D01*
G75*
G02*
X13831000Y-10955000I0J-375000D01*
G01*
X13831000Y-11905000D01*
G75*
G02*
X13456000Y-12280000I-375000J0D01*
G01*
X12706000Y-12280000D01*
G75*
G02*
X12331000Y-11905000I0J375000D01*
G01*
G37*
%TD.AperFunction*%
%TO.P,J6,5*%
%TO.N,/PWR_ON_EXT*%
%TA.AperFunction,SMDPad,CuDef*%
G36*
G01*
X12331000Y-14445000D02*
X12331000Y-13495000D01*
G75*
G02*
X12706000Y-13120000I375000J0D01*
G01*
X13456000Y-13120000D01*
G75*
G02*
X13831000Y-13495000I0J-375000D01*
G01*
X13831000Y-14445000D01*
G75*
G02*
X13456000Y-14820000I-375000J0D01*
G01*
X12706000Y-14820000D01*
G75*
G02*
X12331000Y-14445000I0J375000D01*
G01*
G37*
%TD.AperFunction*%
%TD*%
D31*
%TO.P,C8,1*%
%TO.N,GND*%
X10261600Y9362800D03*
%TO.P,C8,2*%
%TO.N,/X1*%
X10261600Y7162800D03*
%TD*%
D14*
%TO.P,R_IN1,1*%
%TO.N,/ADC0*%
X5875200Y-1270000D03*
%TO.P,R_IN1,2*%
%TO.N,+3V0*%
X3675200Y-1270000D03*
%TD*%
D31*
%TO.P,C9,1*%
%TO.N,GND*%
X11582400Y9380400D03*
%TO.P,C9,2*%
%TO.N,/X2*%
X11582400Y7180400D03*
%TD*%
%TO.P,R1,1*%
%TO.N,Net-(D2-Pad1)*%
X7620000Y-3386000D03*
%TO.P,R1,2*%
%TO.N,+3V0*%
X7620000Y-1186000D03*
%TD*%
D14*
%TO.P,C_S6_1,1*%
%TO.N,Net-(C_S6_1-Pad1)*%
X9804400Y-16205200D03*
%TO.P,C_S6_1,2*%
%TO.N,Net-(C_S6_1-Pad2)*%
X7604400Y-16205200D03*
%TD*%
D31*
%TO.P,C_S2,1*%
%TO.N,GND*%
X-10922000Y-10965000D03*
%TO.P,C_S2,2*%
%TO.N,Net-(C_S2-Pad2)*%
X-10922000Y-13165000D03*
%TD*%
%TO.P,IN1,~*%
%TO.N,/ADC0*%
%TA.AperFunction,SMDPad,CuDef*%
G36*
G01*
X10472000Y-12011200D02*
X11372000Y-12011200D01*
G75*
G02*
X11822000Y-12461200I0J-450000D01*
G01*
X11822000Y-14361200D01*
G75*
G02*
X11372000Y-14811200I-450000J0D01*
G01*
X10472000Y-14811200D01*
G75*
G02*
X10022000Y-14361200I0J450000D01*
G01*
X10022000Y-12461200D01*
G75*
G02*
X10472000Y-12011200I450000J0D01*
G01*
G37*
%TD.AperFunction*%
%TD*%
%TO.P,SP2,~*%
%TO.N,GND*%
%TA.AperFunction,SMDPad,CuDef*%
G36*
G01*
X8633000Y-3371000D02*
X8633000Y-2471000D01*
G75*
G02*
X9083000Y-2021000I450000J0D01*
G01*
X10983000Y-2021000D01*
G75*
G02*
X11433000Y-2471000I0J-450000D01*
G01*
X11433000Y-3371000D01*
G75*
G02*
X10983000Y-3821000I-450000J0D01*
G01*
X9083000Y-3821000D01*
G75*
G02*
X8633000Y-3371000I0J450000D01*
G01*
G37*
%TD.AperFunction*%
%TD*%
D32*
%TO.N,/I2C_SCL*%
X-12649200Y-7620000D03*
X-10287000Y7747000D03*
X-8991600Y-5384800D03*
X8788400Y-5994400D03*
X8077200Y-14071606D03*
X-9635999Y-13970002D03*
X6477000Y17399000D03*
X9398000Y-4165600D03*
X-10871200Y-9601200D03*
%TO.N,/I2C_SDA*%
X-12090400Y-7467600D03*
X-10922000Y6985000D03*
X9347200Y-1625606D03*
X-9855200Y-13411200D03*
X8494211Y-13720946D03*
X8432800Y-6654800D03*
X-8128000Y-16256000D03*
X6286500Y16700500D03*
%TO.N,/VI2C*%
X3606800Y-17780000D03*
X-14071600Y-9855200D03*
X-11785600Y-9601200D03*
X-11633202Y-5232402D03*
X8067595Y-13456158D03*
X8686797Y-17373597D03*
X-7302500Y-14033500D03*
X10159993Y-18033993D03*
X-9398000Y-17907000D03*
X10033000Y-6096000D03*
%TO.N,GND*%
X7620000Y17907000D03*
X9461500Y-2222500D03*
X889000Y9017000D03*
X14986000Y11582400D03*
X7747000Y10033000D03*
X4127500Y15200000D03*
X14986000Y12344400D03*
X-7315200Y-9652000D03*
X-2540000Y2133600D03*
X-9448800Y-4724400D03*
X-1473200Y18034000D03*
X7366000Y-12090400D03*
X-11096688Y-5501693D03*
X-3300000Y2133600D03*
X10261600Y2895602D03*
X3860802Y2082800D03*
X8585206Y-15849600D03*
X9729748Y-12066554D03*
X7631989Y-5080000D03*
X10922000Y10287000D03*
X-11480799Y-11887199D03*
X1168368Y-406414D03*
X-11176000Y-14351000D03*
X-1314410Y9017000D03*
X9398000Y6540500D03*
X9398000Y8826500D03*
X-8064500Y-16954500D03*
X5588000Y-17780000D03*
X13843000Y5410200D03*
%TO.N,/~INT1~*%
X6959596Y13106400D03*
X6400800Y4724400D03*
%TO.N,+3V0*%
X5384800Y7975600D03*
X12192000Y-7467600D03*
X4724400Y-1524000D03*
X11988800Y-3454400D03*
X3238500Y1117600D03*
X-7162800Y-1676400D03*
X-13208000Y-7620000D03*
X558800Y457208D03*
X9093200Y-17018000D03*
X9448800Y3311579D03*
X13563600Y8331200D03*
X6985000Y15049500D03*
%TO.N,/PWR_ON*%
X6146798Y18135600D03*
X14020808Y-7620000D03*
%TO.N,/~TA~*%
X4775202Y5130800D03*
X4826000Y1397000D03*
X-11176000Y2794000D03*
%TO.N,/PB0*%
X12801600Y10109200D03*
X11703010Y-4676236D03*
%TO.N,/~SPI_SS~*%
X7112000Y1422404D03*
X7315200Y4826000D03*
%TO.N,/SPI_MOSI*%
X10058398Y3911600D03*
X-50800Y2946400D03*
%TO.N,/SPI_MISO*%
X11023600Y3962400D03*
X660400Y3708400D03*
X13411200Y-7670800D03*
%TO.N,/SPI_SCK*%
X6756400Y4267200D03*
X-254000Y4114800D03*
X10541000Y-7048500D03*
%TO.N,/VBAT_M_ON*%
X-7416799Y3809999D03*
X4075183Y7010400D03*
%TO.N,/VBAT_M*%
X12496800Y5486400D03*
X-10058400Y2794000D03*
%TO.N,/ADC0*%
X10922000Y-14325600D03*
X6807200Y-2133600D03*
X2606789Y2032000D03*
X12141200Y-5080000D03*
X12747350Y-7623450D03*
X13563600Y6096000D03*
X5334000Y18846800D03*
%TO.N,/~RESET~*%
X13258800Y11836400D03*
X-11800000Y3302000D03*
%TO.N,/~INT0~*%
X14122400Y-5283200D03*
X4724404Y-16611600D03*
X8737600Y812800D03*
X6705600Y12293600D03*
X13411200Y-11836400D03*
%TO.N,/VSPI*%
X665612Y1570768D03*
X4635492Y18859500D03*
%TO.N,/VBAT*%
X7302500Y21780500D03*
X12242800Y12496800D03*
X14782800Y2946400D03*
X6540500Y20193000D03*
X-14579600Y16570591D03*
X12242800Y11887200D03*
X6540500Y20828000D03*
X-13868408Y16570591D03*
X-6858000Y-1100000D03*
X13000198Y5843541D03*
%TO.N,/PWR_ON_EXT*%
X-11277600Y17272000D03*
X14097000Y-12319000D03*
%TO.N,/~PWR_ON~*%
X2082800Y1574800D03*
X6032500Y1651000D03*
X5384796Y18135600D03*
%TO.N,/LED_R*%
X4673604Y5994400D03*
X-7620000Y2400000D03*
X-7366000Y-15494000D03*
%TO.N,/LED_G*%
X4470400Y7416800D03*
X-8255000Y3810000D03*
X-8445500Y-17526000D03*
%TO.N,/SPI_PWR*%
X609602Y-1625600D03*
X7874000Y4775200D03*
%TO.N,/I2C_PWR*%
X-9753600Y4013200D03*
X7162800Y14020800D03*
X-8890000Y-4622800D03*
%TO.N,/TA1*%
X8585206Y254000D03*
%TO.N,/SP+*%
X13512796Y3251200D03*
X8382006Y17145000D03*
%TO.N,/X1*%
X12852400Y8890000D03*
%TO.N,/X2*%
X12852400Y8280400D03*
%TO.N,/SPI_SS*%
X12446000Y-2489200D03*
X1320800Y1574800D03*
%TO.N,Net-(C3-Pad2)*%
X14630400Y8280400D03*
X2730500Y20701000D03*
%TO.N,Net-(D2-Pad1)*%
X7924800Y-2133584D03*
X7493000Y-190500D03*
%TO.N,Net-(C_S8-Pad2)*%
X11328410Y-11582400D03*
%TO.N,Net-(C_S6_1-Pad1)*%
X10179010Y-15189200D03*
%TO.N,Net-(C_S6_1-Pad2)*%
X9211370Y-13712680D03*
%TO.N,Net-(D_S78-Pad2)*%
X11879213Y-11582400D03*
X6032500Y-17208500D03*
%TO.N,/SWDIO*%
X5486400Y5384798D03*
%TO.N,/SWCLK*%
X5943600Y5070165D03*
%TD*%
D33*
%TO.N,/I2C_SCL*%
X-12649200Y-8539200D02*
X-13000000Y-8890000D01*
X-12649200Y-7620000D02*
X-12649200Y-8539200D01*
X-10160000Y-6553200D02*
X-8991600Y-5384800D01*
X-10160000Y-8190000D02*
X-10160000Y-6553200D01*
X8648000Y-4908000D02*
X8648000Y-5854000D01*
X8648000Y-5854000D02*
X8788400Y-5994400D01*
X8854832Y-13446368D02*
X8854832Y-13497168D01*
X9357000Y-12944200D02*
X8854832Y-13446368D01*
X9357000Y-12818000D02*
X9357000Y-12944200D01*
X8178794Y-14173200D02*
X8077200Y-14071606D01*
X8646002Y-14173200D02*
X8178794Y-14173200D01*
X8854832Y-13964370D02*
X8646002Y-14173200D01*
D34*
X8854832Y-13497168D02*
X8854832Y-13964370D01*
D33*
X-9636000Y-14766000D02*
X-9635999Y-14252844D01*
X-9635999Y-14252844D02*
X-9635999Y-13970002D01*
X-10160000Y-8890000D02*
X-10871200Y-9601200D01*
X-10160000Y-8190000D02*
X-10160000Y-8890000D01*
D34*
%TO.N,/I2C_SDA*%
X-13000000Y-11430000D02*
X-13000000Y-11158500D01*
D33*
X-8636000Y-14766000D02*
X-8636000Y-13817600D01*
X-8636000Y-13817600D02*
X-9042400Y-13411200D01*
X-9042400Y-13411200D02*
X-9855200Y-13411200D01*
D34*
X-11430000Y-8190000D02*
X-11430000Y-7264400D01*
D33*
X-11430000Y-7467600D02*
X-11430000Y-8190000D01*
X-12090400Y-7467600D02*
X-11430000Y-7467600D01*
X8707000Y-12818000D02*
X8707000Y-13168000D01*
X8707000Y-13168000D02*
X8494211Y-13380789D01*
X8494211Y-13380789D02*
X8494211Y-13720946D01*
X8229600Y-6451600D02*
X8432800Y-6654800D01*
X8229600Y-5486400D02*
X8229600Y-6451600D01*
X8148000Y-5404800D02*
X8229600Y-5486400D01*
X8148000Y-4908000D02*
X8148000Y-5404800D01*
X-11322021Y-8297979D02*
X-11322021Y-9950421D01*
X-11430000Y-8190000D02*
X-11322021Y-8297979D01*
X-11322021Y-9950421D02*
X-12801600Y-11430000D01*
X-12801600Y-11430000D02*
X-13000000Y-11430000D01*
D34*
%TO.N,/VI2C*%
X9296400Y-14427200D02*
X9357000Y-14487800D01*
X9357000Y-14487800D02*
X9357000Y-14868000D01*
X8707000Y-14447400D02*
X8686800Y-14427200D01*
X8686800Y-14427200D02*
X9296400Y-14427200D01*
X8707000Y-14868000D02*
X8707000Y-14447400D01*
X-13000000Y-6350000D02*
X-13258800Y-6350000D01*
D35*
X-13258800Y-6350000D02*
X-14071600Y-7162800D01*
X-11430000Y-3240000D02*
X-11430000Y-5029200D01*
X-11430000Y-5029200D02*
X-11633202Y-5232402D01*
D33*
X7407000Y-14116753D02*
X8067595Y-13456158D01*
X8057000Y-12818000D02*
X8057000Y-13445563D01*
X7407000Y-14868000D02*
X7407000Y-14116753D01*
D34*
X8057000Y-13445563D02*
X8067595Y-13456158D01*
D35*
X-12750800Y-6350000D02*
X-11633202Y-5232402D01*
D34*
X-13000000Y-6350000D02*
X-12750800Y-6350000D01*
D36*
X-14071600Y-8128000D02*
X-14071600Y-9855200D01*
D35*
X-14071600Y-7162800D02*
X-14071600Y-8128000D01*
X-11785600Y-9753600D02*
X-11785600Y-9601200D01*
X-13766800Y-10160000D02*
X-12192000Y-10160000D01*
X-12192000Y-10160000D02*
X-11785600Y-9753600D01*
X-14071600Y-9855200D02*
X-13766800Y-10160000D01*
D34*
X7416800Y-14427200D02*
X8686800Y-14427200D01*
X7407000Y-14417400D02*
X7416800Y-14427200D01*
D33*
X-7636000Y-12666000D02*
X-7636000Y-13700000D01*
X-7636000Y-13700000D02*
X-7302500Y-14033500D01*
X8686797Y-17373597D02*
X9347193Y-18033993D01*
X9347193Y-18033993D02*
X10159993Y-18033993D01*
X9749750Y-6096000D02*
X10033000Y-6096000D01*
X9148000Y-5494250D02*
X9749750Y-6096000D01*
X9148000Y-4908000D02*
X9148000Y-5494250D01*
X8648000Y-7197750D02*
X8648000Y-8808000D01*
X9749750Y-6096000D02*
X8648000Y-7197750D01*
%TO.N,GND*%
X-8890000Y-1778000D02*
X-8890000Y-3240000D01*
D35*
X-7620000Y-3240000D02*
X-7620000Y-8190000D01*
X-13000000Y-13970000D02*
X-14630400Y-13970000D01*
D34*
X7407000Y-12131400D02*
X7366000Y-12090400D01*
D33*
X7407000Y-12818000D02*
X7407000Y-12131400D01*
D34*
X10033000Y-2921000D02*
X10033000Y-3276600D01*
D33*
X10148000Y-3391600D02*
X10148000Y-4908000D01*
D34*
X10033000Y-3276600D02*
X10148000Y-3391600D01*
X-10500000Y5300000D02*
X-2500000Y13300000D01*
X-10500000Y5300000D02*
X-8850000Y6950000D01*
X-2500000Y3300000D02*
X-2500000Y13300000D01*
X-2500000Y3300000D02*
X-3666400Y2133600D01*
D37*
X10160000Y5207000D02*
X10160000Y4673600D01*
X10160000Y4673600D02*
X10515600Y4318000D01*
X10515600Y4318000D02*
X10515600Y3644900D01*
D35*
X4216402Y2438400D02*
X3860802Y2082800D01*
X7467600Y2438400D02*
X4216402Y2438400D01*
X7467600Y2438400D02*
X7874000Y2032000D01*
D34*
X9626600Y-2921000D02*
X10033000Y-2921000D01*
X9118600Y-2921000D02*
X10033000Y-2921000D01*
D35*
X7874000Y2032000D02*
X7874000Y1320800D01*
X8534400Y-2336800D02*
X9118600Y-2921000D01*
X8534400Y-457200D02*
X8534400Y-2336800D01*
X7874000Y203200D02*
X8534400Y-457200D01*
X7874000Y1320800D02*
X7874000Y203200D01*
X10261600Y1930400D02*
X9666467Y1335267D01*
X10261600Y2895602D02*
X10261600Y1930400D01*
X7888467Y1335267D02*
X7874000Y1320800D01*
X9666467Y1335267D02*
X7888467Y1335267D01*
D34*
X10261602Y2895602D02*
X10261600Y2895602D01*
D37*
X10515600Y3644900D02*
X10985500Y3175000D01*
D34*
X10706102Y2895602D02*
X10985500Y3175000D01*
D37*
X10261600Y2895602D02*
X10706102Y2895602D01*
D35*
X-10769600Y-11176000D02*
X-11658596Y-12064996D01*
X-10769600Y-10965000D02*
X-10769600Y-11176000D01*
D36*
X-9636000Y-12411200D02*
X-9636000Y-12666000D01*
X-10769600Y-11277600D02*
X-9636000Y-12411200D01*
X-10769600Y-10965000D02*
X-10769600Y-11277600D01*
D34*
X-11049000Y-10965000D02*
X-11049000Y-10896600D01*
D35*
X-10160000Y-5130800D02*
X-10160000Y-4724400D01*
X-10160000Y-4724400D02*
X-10160000Y-3240000D01*
X-10530893Y-5501693D02*
X-10160000Y-5130800D01*
X-11096688Y-5501693D02*
X-10530893Y-5501693D01*
X-9448800Y-4724400D02*
X-10160000Y-4724400D01*
D34*
X-2500000Y1513200D02*
X-2500000Y3300000D01*
D33*
X-7620000Y-2184400D02*
X-7620000Y-3240000D01*
X-8026400Y-1778000D02*
X-7620000Y-2184400D01*
X-8890000Y-1778000D02*
X-8026400Y-1778000D01*
X-9753600Y-1778000D02*
X-8890000Y-1778000D01*
X-10160000Y-2184400D02*
X-9753600Y-1778000D01*
X-10160000Y-3240000D02*
X-10160000Y-2184400D01*
X10148000Y-5322000D02*
X10434000Y-5608000D01*
X10434000Y-5608000D02*
X11348000Y-5608000D01*
X10148000Y-4908000D02*
X10148000Y-5322000D01*
X9148000Y-8225600D02*
X9148000Y-8808000D01*
X9347200Y-8026400D02*
X9148000Y-8225600D01*
X9956800Y-8026400D02*
X9347200Y-8026400D01*
X10148000Y-8217600D02*
X9956800Y-8026400D01*
X10148000Y-8808000D02*
X10148000Y-8217600D01*
X3251200Y-18237200D02*
X5537200Y-18237200D01*
X3048000Y-18034000D02*
X3251200Y-18237200D01*
X2093907Y-18034000D02*
X3048000Y-18034000D01*
X1924852Y-17997233D02*
X2093907Y-18034000D01*
X1912298Y-18005302D02*
X1924852Y-17997233D01*
X1764892Y-17991737D02*
X1912298Y-18005302D01*
X1756726Y-17998527D02*
X1764892Y-17991737D01*
X1684965Y-17996331D02*
X1756726Y-17998527D01*
X1681075Y-17999990D02*
X1684965Y-17996331D01*
X1108990Y-17999990D02*
X1681075Y-17999990D01*
X0Y-16891000D02*
X1108990Y-17999990D01*
D34*
X14376400Y13741400D02*
X14351000Y13766800D01*
D35*
X14986000Y13131800D02*
X14351000Y13766800D01*
X14986000Y12344400D02*
X14986000Y13131800D01*
D33*
X7631989Y-4509211D02*
X7631989Y-5080000D01*
X8737600Y-4216400D02*
X7924800Y-4216400D01*
X10033000Y-2921000D02*
X8737600Y-4216400D01*
X7448000Y-5263989D02*
X7631989Y-5080000D01*
X7924800Y-4216400D02*
X7631989Y-4509211D01*
X7448000Y-5608000D02*
X7448000Y-5263989D01*
D35*
X-7315200Y-9652000D02*
X-7620000Y-9347200D01*
X-7620000Y-9347200D02*
X-7620000Y-8190000D01*
D34*
X13843000Y4492000D02*
X13843000Y4089900D01*
X10985500Y3213100D02*
X10985500Y3175000D01*
X-11658596Y-12065000D02*
X-11658596Y-12064996D01*
D35*
X-11684000Y-12090400D02*
X-11480799Y-11887199D01*
X-13000000Y-13914400D02*
X-13000000Y-13406400D01*
D34*
X-11658596Y-12064996D02*
X-11480799Y-11887199D01*
D35*
X-13000000Y-13406400D02*
X-11480799Y-11887199D01*
D33*
X7721600Y-18237200D02*
X5537200Y-18237200D01*
X8077200Y-17881600D02*
X7721600Y-18237200D01*
X8077200Y-17259300D02*
X8077200Y-17881600D01*
X8585206Y-16751294D02*
X8077200Y-17259300D01*
X8585206Y-15849600D02*
X8585206Y-16751294D01*
D35*
X-12619000Y-14351000D02*
X-13000000Y-13970000D01*
X-11176000Y-14351000D02*
X-12619000Y-14351000D01*
X-4724400Y2133600D02*
X-3300000Y2133600D01*
X-5842000Y1016000D02*
X-4724400Y2133600D01*
X-5842000Y-1213600D02*
X-5842000Y1016000D01*
X-7620000Y-2991600D02*
X-5842000Y-1213600D01*
X-7620000Y-3240000D02*
X-7620000Y-2991600D01*
X10160000Y5651500D02*
X10160000Y5207000D01*
X9398000Y6413500D02*
X10160000Y5651500D01*
D33*
X10261600Y9880600D02*
X10261600Y9362800D01*
X10668000Y10287000D02*
X10261600Y9880600D01*
X10922000Y10287000D02*
X10668000Y10287000D01*
X11582400Y9817100D02*
X11582400Y9380400D01*
X11112500Y10287000D02*
X11582400Y9817100D01*
X10922000Y10287000D02*
X11112500Y10287000D01*
D35*
X9398000Y6540500D02*
X9398000Y6413500D01*
X1168368Y660432D02*
X1168368Y-406414D01*
X812800Y1016000D02*
X1168368Y660432D01*
X-2016000Y1016000D02*
X812800Y1016000D01*
X-2500000Y1500000D02*
X-2016000Y1016000D01*
X-2500000Y3300000D02*
X-2500000Y1500000D01*
D33*
X0Y-16891000D02*
X-1143000Y-18034000D01*
X-1143000Y-18034000D02*
X-5715000Y-18034000D01*
X-6794500Y-16954500D02*
X-8064500Y-16954500D01*
X-5715000Y-18034000D02*
X-6794500Y-16954500D01*
X8057000Y-14868000D02*
X8057000Y-15107800D01*
X8057000Y-15107800D02*
X7772400Y-15392400D01*
X7772400Y-15392400D02*
X7054093Y-15392400D01*
X7054093Y-15392400D02*
X5588000Y-16858493D01*
X5588000Y-16858493D02*
X5588000Y-17716500D01*
X5588000Y-18186400D02*
X5537200Y-18237200D01*
X5588000Y-17716500D02*
X5588000Y-17780000D01*
X5588000Y-17780000D02*
X5588000Y-18186400D01*
X9956800Y-6997700D02*
X9956800Y-8026400D01*
X10541000Y-6413500D02*
X9956800Y-6997700D01*
X10541000Y-5715000D02*
X10541000Y-6413500D01*
X10434000Y-5608000D02*
X10541000Y-5715000D01*
D35*
X13843000Y4492000D02*
X13843000Y5410200D01*
%TO.N,+3V0*%
X-13000000Y-3810000D02*
X-14630400Y-3810000D01*
X4470400Y-1270000D02*
X3675200Y-1270000D01*
X4724400Y-1524000D02*
X4470400Y-1270000D01*
D34*
X11988800Y-3505200D02*
X11988800Y-3454400D01*
X7620000Y-1186000D02*
X7620000Y-1168400D01*
D33*
X12192000Y-7670800D02*
X12192000Y-7467600D01*
X11754800Y-8108000D02*
X12192000Y-7670800D01*
X11348000Y-8108000D02*
X11754800Y-8108000D01*
D35*
X13563600Y7862600D02*
X13563600Y8331200D01*
X14351000Y9766800D02*
X13563600Y8979400D01*
X13563600Y8979400D02*
X13563600Y8331200D01*
X12893000Y7192000D02*
X13563600Y7862600D01*
X6815000Y-381000D02*
X3692800Y-381000D01*
X7620000Y-1186000D02*
X6815000Y-381000D01*
X3675200Y-1270000D02*
X3675200Y-398600D01*
X3573600Y-398600D02*
X3238500Y-63500D01*
X3675200Y-398600D02*
X3573600Y-398600D01*
X3388424Y3311579D02*
X9448800Y3311579D01*
X5384800Y7496402D02*
X5384800Y7975600D01*
X3238500Y5350102D02*
X5384800Y7496402D01*
X3238500Y1117600D02*
X3238500Y5350102D01*
X3238500Y1117600D02*
X3238500Y-63500D01*
X558800Y431800D02*
X558800Y457208D01*
X317500Y190500D02*
X558800Y431800D01*
X317500Y-508000D02*
X317500Y190500D01*
X1079500Y-1270000D02*
X317500Y-508000D01*
X3675200Y-1270000D02*
X1079500Y-1270000D01*
X-7696200Y-1143000D02*
X-7162800Y-1676400D01*
X-11183000Y-1143000D02*
X-7696200Y-1143000D01*
X-13000000Y-2960000D02*
X-11183000Y-1143000D01*
X-13000000Y-3810000D02*
X-13000000Y-2960000D01*
D33*
%TO.N,/PWR_ON*%
X13081000Y-8890000D02*
X13081000Y-8763000D01*
X13081000Y-8763000D02*
X14020808Y-7823192D01*
X14020808Y-7823192D02*
X14020808Y-7620000D01*
%TO.N,/~TA~*%
X4826000Y1100000D02*
X4297500Y571500D01*
X4826000Y1397000D02*
X4826000Y1100000D01*
%TO.N,/PB0*%
X12569246Y-3810000D02*
X11703010Y-4676236D01*
X13081000Y-3810000D02*
X12569246Y-3810000D01*
%TO.N,/ADC0*%
X5943600Y-1270000D02*
X6807200Y-2133600D01*
D34*
X5875200Y-1270000D02*
X5943600Y-1270000D01*
D33*
X13081000Y-6019800D02*
X12141200Y-5080000D01*
D34*
X13081000Y-6350000D02*
X13081000Y-6019800D01*
D33*
X13081000Y-6350000D02*
X13081000Y-7289800D01*
X13081000Y-7289800D02*
X12747350Y-7623450D01*
D34*
%TO.N,/~INT0~*%
X13081000Y-11430000D02*
X13081000Y-11926787D01*
D33*
X14122400Y-6959600D02*
X14122400Y-5283200D01*
X14478000Y-7315200D02*
X14122400Y-6959600D01*
X14478000Y-7924800D02*
X14478000Y-7315200D01*
X14122400Y-8280400D02*
X14478000Y-7924800D01*
X14122400Y-10388600D02*
X14122400Y-8280400D01*
X13081000Y-11430000D02*
X14122400Y-10388600D01*
D34*
%TO.N,/VBAT*%
X7600000Y20500000D02*
X7600000Y20467000D01*
X7556500Y20456500D02*
X7600000Y20500000D01*
X10300000Y13880800D02*
X8940800Y15240000D01*
X10300000Y13300000D02*
X10300000Y13880800D01*
X7600000Y20500000D02*
X6852401Y19752401D01*
X-13868499Y16570500D02*
X-13868408Y16570591D01*
D35*
X-13868400Y16570583D02*
X-13868408Y16570591D01*
X-13868400Y13531600D02*
X-13868400Y16570583D01*
X-14100000Y13300000D02*
X-13868400Y13531600D01*
D34*
X-14579600Y13779600D02*
X-14100000Y13300000D01*
D35*
X-14579600Y16570591D02*
X-14579600Y13779600D01*
X-9228000Y1270000D02*
X-10460000Y1270000D01*
X-6858000Y-1100000D02*
X-9228000Y1270000D01*
D33*
X13000198Y4599198D02*
X13000198Y5843541D01*
X12893000Y4492000D02*
X13000198Y4599198D01*
%TO.N,/PWR_ON_EXT*%
X13081000Y-13970000D02*
X14097000Y-12954000D01*
X14097000Y-12954000D02*
X14097000Y-12319000D01*
D34*
%TO.N,/TA1*%
X10033000Y-381000D02*
X9398000Y254000D01*
X9398000Y254000D02*
X8585206Y254000D01*
D33*
%TO.N,/SP+*%
X10985500Y1671500D02*
X12362000Y3048000D01*
X10985500Y1275000D02*
X10985500Y1671500D01*
X13309596Y3048000D02*
X13512796Y3251200D01*
X12362000Y3048000D02*
X13309596Y3048000D01*
X9771000Y17145000D02*
X8382006Y17145000D01*
D34*
%TO.N,/X1*%
X8660000Y5207000D02*
X8660000Y5360800D01*
D33*
X10261600Y7772400D02*
X10261600Y7162800D01*
X10668000Y8178800D02*
X10261600Y7772400D01*
X12484100Y8801100D02*
X11874500Y8191500D01*
X12788900Y8826500D02*
X12509500Y8826500D01*
X12852400Y8890000D02*
X12788900Y8826500D01*
X11874500Y8178800D02*
X10668000Y8178800D01*
X8660000Y6399400D02*
X8660000Y5207000D01*
X9423400Y7162800D02*
X8660000Y6399400D01*
X10261600Y7162800D02*
X9423400Y7162800D01*
D34*
%TO.N,/X2*%
X11660000Y5207000D02*
X12001500Y5548500D01*
X11660000Y4675000D02*
X11660000Y5207000D01*
D33*
X11660000Y7102800D02*
X11582400Y7180400D01*
X11660000Y5207000D02*
X11660000Y7102800D01*
X11582400Y7180400D02*
X11582400Y7366000D01*
X11582400Y7366000D02*
X12344400Y8128000D01*
X12344400Y8128000D02*
X12700000Y8128000D01*
X12700000Y8128000D02*
X12852400Y8280400D01*
%TO.N,Net-(C3-Pad2)*%
X14793000Y5679400D02*
X14732000Y5740400D01*
X14793000Y4492000D02*
X14793000Y5679400D01*
X14793000Y5679400D02*
X14071600Y6400800D01*
X14071600Y6400800D02*
X14071600Y7975600D01*
X14376400Y8280400D02*
X14630400Y8280400D01*
X14071600Y7975600D02*
X14376400Y8280400D01*
D34*
%TO.N,Net-(C_S2-Pad2)*%
X-11049000Y-13165000D02*
X-10769600Y-13165000D01*
D33*
X-8237000Y-15367000D02*
X-7636000Y-14766000D01*
X-9906000Y-15367000D02*
X-8237000Y-15367000D01*
X-10668000Y-14605000D02*
X-9906000Y-15367000D01*
X-10668000Y-13266600D02*
X-10668000Y-14605000D01*
X-10769600Y-13165000D02*
X-10668000Y-13266600D01*
%TO.N,Net-(D2-Pad1)*%
X7620000Y-3386000D02*
X7620000Y-2438384D01*
X7620000Y-2438384D02*
X7924800Y-2133584D01*
X6731000Y571500D02*
X6497500Y571500D01*
X7493000Y-190500D02*
X6731000Y571500D01*
%TO.N,Net-(C_S8-Pad2)*%
X11328410Y-10312410D02*
X11328410Y-11582400D01*
X10731500Y-9715500D02*
X11328410Y-10312410D01*
X10096500Y-9715500D02*
X10731500Y-9715500D01*
X9648000Y-9267000D02*
X10096500Y-9715500D01*
X9648000Y-8808000D02*
X9648000Y-9267000D01*
%TO.N,Net-(C_S6_1-Pad1)*%
X9804400Y-16103600D02*
X9753600Y-16052800D01*
X9804400Y-16205200D02*
X9804400Y-16103600D01*
X9804400Y-16205200D02*
X10179010Y-15830590D01*
X10179010Y-15830590D02*
X10179010Y-15189200D01*
%TO.N,Net-(C_S6_1-Pad2)*%
X8272600Y-15392400D02*
X7604400Y-16060600D01*
X9702800Y-15392400D02*
X8272600Y-15392400D01*
X9779000Y-15316200D02*
X9702800Y-15392400D01*
X9211370Y-13712680D02*
X9779000Y-14280310D01*
X9779000Y-14280310D02*
X9779000Y-15316200D01*
X7604400Y-16060600D02*
X7604400Y-16205200D01*
%TO.N,Net-(D_S78-Pad2)*%
X11879213Y-10039213D02*
X11879213Y-11582400D01*
X10648000Y-8808000D02*
X11879213Y-10039213D01*
%TD*%
M02*
