%TF.GenerationSoftware,KiCad,Pcbnew,(5.1.12)-1*%
%TF.CreationDate,2023-02-20T19:38:16+01:00*%
%TF.ProjectId,SolarSensorTagEFM32,536f6c61-7253-4656-9e73-6f7254616745,rev?*%
%TF.SameCoordinates,Original*%
%TF.FileFunction,Paste,Top*%
%TF.FilePolarity,Positive*%
%FSLAX46Y46*%
G04 Gerber Fmt 4.6, Leading zero omitted, Abs format (unit mm)*
G04 Created by KiCad (PCBNEW (5.1.12)-1) date 2023-02-20 19:38:16*
%MOMM*%
%LPD*%
G01*
G04 APERTURE LIST*
%ADD10R,1.200000X0.900000*%
%ADD11R,0.800000X1.200000*%
%ADD12R,0.650000X1.200000*%
%ADD13R,0.600000X1.200000*%
%ADD14R,0.800000X1.800000*%
%ADD15R,1.700000X2.000000*%
%ADD16R,0.800000X0.800000*%
%ADD17R,0.350000X0.500000*%
%ADD18R,0.900000X1.200000*%
G04 APERTURE END LIST*
D10*
%TO.C,D7*%
X12362000Y3048000D03*
X14562000Y3048000D03*
%TD*%
%TO.C,IC_S2*%
G36*
G01*
X-9548500Y-12971000D02*
X-9723500Y-12971000D01*
G75*
G02*
X-9811000Y-12883500I0J87500D01*
G01*
X-9811000Y-12448500D01*
G75*
G02*
X-9723500Y-12361000I87500J0D01*
G01*
X-9548500Y-12361000D01*
G75*
G02*
X-9461000Y-12448500I0J-87500D01*
G01*
X-9461000Y-12883500D01*
G75*
G02*
X-9548500Y-12971000I-87500J0D01*
G01*
G37*
G36*
G01*
X-8548500Y-12971000D02*
X-8723500Y-12971000D01*
G75*
G02*
X-8811000Y-12883500I0J87500D01*
G01*
X-8811000Y-12448500D01*
G75*
G02*
X-8723500Y-12361000I87500J0D01*
G01*
X-8548500Y-12361000D01*
G75*
G02*
X-8461000Y-12448500I0J-87500D01*
G01*
X-8461000Y-12883500D01*
G75*
G02*
X-8548500Y-12971000I-87500J0D01*
G01*
G37*
G36*
G01*
X-7548500Y-12971000D02*
X-7723500Y-12971000D01*
G75*
G02*
X-7811000Y-12883500I0J87500D01*
G01*
X-7811000Y-12448500D01*
G75*
G02*
X-7723500Y-12361000I87500J0D01*
G01*
X-7548500Y-12361000D01*
G75*
G02*
X-7461000Y-12448500I0J-87500D01*
G01*
X-7461000Y-12883500D01*
G75*
G02*
X-7548500Y-12971000I-87500J0D01*
G01*
G37*
G36*
G01*
X-7548500Y-15071000D02*
X-7723500Y-15071000D01*
G75*
G02*
X-7811000Y-14983500I0J87500D01*
G01*
X-7811000Y-14548500D01*
G75*
G02*
X-7723500Y-14461000I87500J0D01*
G01*
X-7548500Y-14461000D01*
G75*
G02*
X-7461000Y-14548500I0J-87500D01*
G01*
X-7461000Y-14983500D01*
G75*
G02*
X-7548500Y-15071000I-87500J0D01*
G01*
G37*
G36*
G01*
X-8548500Y-15071000D02*
X-8723500Y-15071000D01*
G75*
G02*
X-8811000Y-14983500I0J87500D01*
G01*
X-8811000Y-14548500D01*
G75*
G02*
X-8723500Y-14461000I87500J0D01*
G01*
X-8548500Y-14461000D01*
G75*
G02*
X-8461000Y-14548500I0J-87500D01*
G01*
X-8461000Y-14983500D01*
G75*
G02*
X-8548500Y-15071000I-87500J0D01*
G01*
G37*
G36*
G01*
X-9548500Y-15071000D02*
X-9723500Y-15071000D01*
G75*
G02*
X-9811000Y-14983500I0J87500D01*
G01*
X-9811000Y-14548500D01*
G75*
G02*
X-9723500Y-14461000I87500J0D01*
G01*
X-9548500Y-14461000D01*
G75*
G02*
X-9461000Y-14548500I0J-87500D01*
G01*
X-9461000Y-14983500D01*
G75*
G02*
X-9548500Y-15071000I-87500J0D01*
G01*
G37*
%TD*%
%TO.C,IC_S8*%
G36*
G01*
X8223000Y-5333000D02*
X8073000Y-5333000D01*
G75*
G02*
X7998000Y-5258000I0J75000D01*
G01*
X7998000Y-4558000D01*
G75*
G02*
X8073000Y-4483000I75000J0D01*
G01*
X8223000Y-4483000D01*
G75*
G02*
X8298000Y-4558000I0J-75000D01*
G01*
X8298000Y-5258000D01*
G75*
G02*
X8223000Y-5333000I-75000J0D01*
G01*
G37*
G36*
G01*
X8723000Y-5333000D02*
X8573000Y-5333000D01*
G75*
G02*
X8498000Y-5258000I0J75000D01*
G01*
X8498000Y-4558000D01*
G75*
G02*
X8573000Y-4483000I75000J0D01*
G01*
X8723000Y-4483000D01*
G75*
G02*
X8798000Y-4558000I0J-75000D01*
G01*
X8798000Y-5258000D01*
G75*
G02*
X8723000Y-5333000I-75000J0D01*
G01*
G37*
G36*
G01*
X9223000Y-5333000D02*
X9073000Y-5333000D01*
G75*
G02*
X8998000Y-5258000I0J75000D01*
G01*
X8998000Y-4558000D01*
G75*
G02*
X9073000Y-4483000I75000J0D01*
G01*
X9223000Y-4483000D01*
G75*
G02*
X9298000Y-4558000I0J-75000D01*
G01*
X9298000Y-5258000D01*
G75*
G02*
X9223000Y-5333000I-75000J0D01*
G01*
G37*
G36*
G01*
X9723000Y-5333000D02*
X9573000Y-5333000D01*
G75*
G02*
X9498000Y-5258000I0J75000D01*
G01*
X9498000Y-4558000D01*
G75*
G02*
X9573000Y-4483000I75000J0D01*
G01*
X9723000Y-4483000D01*
G75*
G02*
X9798000Y-4558000I0J-75000D01*
G01*
X9798000Y-5258000D01*
G75*
G02*
X9723000Y-5333000I-75000J0D01*
G01*
G37*
G36*
G01*
X10223000Y-5333000D02*
X10073000Y-5333000D01*
G75*
G02*
X9998000Y-5258000I0J75000D01*
G01*
X9998000Y-4558000D01*
G75*
G02*
X10073000Y-4483000I75000J0D01*
G01*
X10223000Y-4483000D01*
G75*
G02*
X10298000Y-4558000I0J-75000D01*
G01*
X10298000Y-5258000D01*
G75*
G02*
X10223000Y-5333000I-75000J0D01*
G01*
G37*
G36*
G01*
X10723000Y-5333000D02*
X10573000Y-5333000D01*
G75*
G02*
X10498000Y-5258000I0J75000D01*
G01*
X10498000Y-4558000D01*
G75*
G02*
X10573000Y-4483000I75000J0D01*
G01*
X10723000Y-4483000D01*
G75*
G02*
X10798000Y-4558000I0J-75000D01*
G01*
X10798000Y-5258000D01*
G75*
G02*
X10723000Y-5333000I-75000J0D01*
G01*
G37*
G36*
G01*
X10923000Y-5683000D02*
X10923000Y-5533000D01*
G75*
G02*
X10998000Y-5458000I75000J0D01*
G01*
X11698000Y-5458000D01*
G75*
G02*
X11773000Y-5533000I0J-75000D01*
G01*
X11773000Y-5683000D01*
G75*
G02*
X11698000Y-5758000I-75000J0D01*
G01*
X10998000Y-5758000D01*
G75*
G02*
X10923000Y-5683000I0J75000D01*
G01*
G37*
G36*
G01*
X10923000Y-6183000D02*
X10923000Y-6033000D01*
G75*
G02*
X10998000Y-5958000I75000J0D01*
G01*
X11698000Y-5958000D01*
G75*
G02*
X11773000Y-6033000I0J-75000D01*
G01*
X11773000Y-6183000D01*
G75*
G02*
X11698000Y-6258000I-75000J0D01*
G01*
X10998000Y-6258000D01*
G75*
G02*
X10923000Y-6183000I0J75000D01*
G01*
G37*
G36*
G01*
X10923000Y-6683000D02*
X10923000Y-6533000D01*
G75*
G02*
X10998000Y-6458000I75000J0D01*
G01*
X11698000Y-6458000D01*
G75*
G02*
X11773000Y-6533000I0J-75000D01*
G01*
X11773000Y-6683000D01*
G75*
G02*
X11698000Y-6758000I-75000J0D01*
G01*
X10998000Y-6758000D01*
G75*
G02*
X10923000Y-6683000I0J75000D01*
G01*
G37*
G36*
G01*
X10923000Y-7183000D02*
X10923000Y-7033000D01*
G75*
G02*
X10998000Y-6958000I75000J0D01*
G01*
X11698000Y-6958000D01*
G75*
G02*
X11773000Y-7033000I0J-75000D01*
G01*
X11773000Y-7183000D01*
G75*
G02*
X11698000Y-7258000I-75000J0D01*
G01*
X10998000Y-7258000D01*
G75*
G02*
X10923000Y-7183000I0J75000D01*
G01*
G37*
G36*
G01*
X10923000Y-7683000D02*
X10923000Y-7533000D01*
G75*
G02*
X10998000Y-7458000I75000J0D01*
G01*
X11698000Y-7458000D01*
G75*
G02*
X11773000Y-7533000I0J-75000D01*
G01*
X11773000Y-7683000D01*
G75*
G02*
X11698000Y-7758000I-75000J0D01*
G01*
X10998000Y-7758000D01*
G75*
G02*
X10923000Y-7683000I0J75000D01*
G01*
G37*
G36*
G01*
X10923000Y-8183000D02*
X10923000Y-8033000D01*
G75*
G02*
X10998000Y-7958000I75000J0D01*
G01*
X11698000Y-7958000D01*
G75*
G02*
X11773000Y-8033000I0J-75000D01*
G01*
X11773000Y-8183000D01*
G75*
G02*
X11698000Y-8258000I-75000J0D01*
G01*
X10998000Y-8258000D01*
G75*
G02*
X10923000Y-8183000I0J75000D01*
G01*
G37*
G36*
G01*
X10723000Y-9233000D02*
X10573000Y-9233000D01*
G75*
G02*
X10498000Y-9158000I0J75000D01*
G01*
X10498000Y-8458000D01*
G75*
G02*
X10573000Y-8383000I75000J0D01*
G01*
X10723000Y-8383000D01*
G75*
G02*
X10798000Y-8458000I0J-75000D01*
G01*
X10798000Y-9158000D01*
G75*
G02*
X10723000Y-9233000I-75000J0D01*
G01*
G37*
G36*
G01*
X10223000Y-9233000D02*
X10073000Y-9233000D01*
G75*
G02*
X9998000Y-9158000I0J75000D01*
G01*
X9998000Y-8458000D01*
G75*
G02*
X10073000Y-8383000I75000J0D01*
G01*
X10223000Y-8383000D01*
G75*
G02*
X10298000Y-8458000I0J-75000D01*
G01*
X10298000Y-9158000D01*
G75*
G02*
X10223000Y-9233000I-75000J0D01*
G01*
G37*
G36*
G01*
X9723000Y-9233000D02*
X9573000Y-9233000D01*
G75*
G02*
X9498000Y-9158000I0J75000D01*
G01*
X9498000Y-8458000D01*
G75*
G02*
X9573000Y-8383000I75000J0D01*
G01*
X9723000Y-8383000D01*
G75*
G02*
X9798000Y-8458000I0J-75000D01*
G01*
X9798000Y-9158000D01*
G75*
G02*
X9723000Y-9233000I-75000J0D01*
G01*
G37*
G36*
G01*
X9223000Y-9233000D02*
X9073000Y-9233000D01*
G75*
G02*
X8998000Y-9158000I0J75000D01*
G01*
X8998000Y-8458000D01*
G75*
G02*
X9073000Y-8383000I75000J0D01*
G01*
X9223000Y-8383000D01*
G75*
G02*
X9298000Y-8458000I0J-75000D01*
G01*
X9298000Y-9158000D01*
G75*
G02*
X9223000Y-9233000I-75000J0D01*
G01*
G37*
G36*
G01*
X8723000Y-9233000D02*
X8573000Y-9233000D01*
G75*
G02*
X8498000Y-9158000I0J75000D01*
G01*
X8498000Y-8458000D01*
G75*
G02*
X8573000Y-8383000I75000J0D01*
G01*
X8723000Y-8383000D01*
G75*
G02*
X8798000Y-8458000I0J-75000D01*
G01*
X8798000Y-9158000D01*
G75*
G02*
X8723000Y-9233000I-75000J0D01*
G01*
G37*
G36*
G01*
X8223000Y-9233000D02*
X8073000Y-9233000D01*
G75*
G02*
X7998000Y-9158000I0J75000D01*
G01*
X7998000Y-8458000D01*
G75*
G02*
X8073000Y-8383000I75000J0D01*
G01*
X8223000Y-8383000D01*
G75*
G02*
X8298000Y-8458000I0J-75000D01*
G01*
X8298000Y-9158000D01*
G75*
G02*
X8223000Y-9233000I-75000J0D01*
G01*
G37*
G36*
G01*
X7023000Y-8183000D02*
X7023000Y-8033000D01*
G75*
G02*
X7098000Y-7958000I75000J0D01*
G01*
X7798000Y-7958000D01*
G75*
G02*
X7873000Y-8033000I0J-75000D01*
G01*
X7873000Y-8183000D01*
G75*
G02*
X7798000Y-8258000I-75000J0D01*
G01*
X7098000Y-8258000D01*
G75*
G02*
X7023000Y-8183000I0J75000D01*
G01*
G37*
G36*
G01*
X7023000Y-7683000D02*
X7023000Y-7533000D01*
G75*
G02*
X7098000Y-7458000I75000J0D01*
G01*
X7798000Y-7458000D01*
G75*
G02*
X7873000Y-7533000I0J-75000D01*
G01*
X7873000Y-7683000D01*
G75*
G02*
X7798000Y-7758000I-75000J0D01*
G01*
X7098000Y-7758000D01*
G75*
G02*
X7023000Y-7683000I0J75000D01*
G01*
G37*
G36*
G01*
X7023000Y-7183000D02*
X7023000Y-7033000D01*
G75*
G02*
X7098000Y-6958000I75000J0D01*
G01*
X7798000Y-6958000D01*
G75*
G02*
X7873000Y-7033000I0J-75000D01*
G01*
X7873000Y-7183000D01*
G75*
G02*
X7798000Y-7258000I-75000J0D01*
G01*
X7098000Y-7258000D01*
G75*
G02*
X7023000Y-7183000I0J75000D01*
G01*
G37*
G36*
G01*
X7023000Y-6683000D02*
X7023000Y-6533000D01*
G75*
G02*
X7098000Y-6458000I75000J0D01*
G01*
X7798000Y-6458000D01*
G75*
G02*
X7873000Y-6533000I0J-75000D01*
G01*
X7873000Y-6683000D01*
G75*
G02*
X7798000Y-6758000I-75000J0D01*
G01*
X7098000Y-6758000D01*
G75*
G02*
X7023000Y-6683000I0J75000D01*
G01*
G37*
G36*
G01*
X7023000Y-6183000D02*
X7023000Y-6033000D01*
G75*
G02*
X7098000Y-5958000I75000J0D01*
G01*
X7798000Y-5958000D01*
G75*
G02*
X7873000Y-6033000I0J-75000D01*
G01*
X7873000Y-6183000D01*
G75*
G02*
X7798000Y-6258000I-75000J0D01*
G01*
X7098000Y-6258000D01*
G75*
G02*
X7023000Y-6183000I0J75000D01*
G01*
G37*
G36*
G01*
X7023000Y-5683000D02*
X7023000Y-5533000D01*
G75*
G02*
X7098000Y-5458000I75000J0D01*
G01*
X7798000Y-5458000D01*
G75*
G02*
X7873000Y-5533000I0J-75000D01*
G01*
X7873000Y-5683000D01*
G75*
G02*
X7798000Y-5758000I-75000J0D01*
G01*
X7098000Y-5758000D01*
G75*
G02*
X7023000Y-5683000I0J75000D01*
G01*
G37*
%TD*%
%TO.C,IC_S1*%
G36*
G01*
X-11280000Y-4215000D02*
X-11580000Y-4215000D01*
G75*
G02*
X-11730000Y-4065000I0J150000D01*
G01*
X-11730000Y-2415000D01*
G75*
G02*
X-11580000Y-2265000I150000J0D01*
G01*
X-11280000Y-2265000D01*
G75*
G02*
X-11130000Y-2415000I0J-150000D01*
G01*
X-11130000Y-4065000D01*
G75*
G02*
X-11280000Y-4215000I-150000J0D01*
G01*
G37*
G36*
G01*
X-10010000Y-4215000D02*
X-10310000Y-4215000D01*
G75*
G02*
X-10460000Y-4065000I0J150000D01*
G01*
X-10460000Y-2415000D01*
G75*
G02*
X-10310000Y-2265000I150000J0D01*
G01*
X-10010000Y-2265000D01*
G75*
G02*
X-9860000Y-2415000I0J-150000D01*
G01*
X-9860000Y-4065000D01*
G75*
G02*
X-10010000Y-4215000I-150000J0D01*
G01*
G37*
G36*
G01*
X-8740000Y-4215000D02*
X-9040000Y-4215000D01*
G75*
G02*
X-9190000Y-4065000I0J150000D01*
G01*
X-9190000Y-2415000D01*
G75*
G02*
X-9040000Y-2265000I150000J0D01*
G01*
X-8740000Y-2265000D01*
G75*
G02*
X-8590000Y-2415000I0J-150000D01*
G01*
X-8590000Y-4065000D01*
G75*
G02*
X-8740000Y-4215000I-150000J0D01*
G01*
G37*
G36*
G01*
X-7470000Y-4215000D02*
X-7770000Y-4215000D01*
G75*
G02*
X-7920000Y-4065000I0J150000D01*
G01*
X-7920000Y-2415000D01*
G75*
G02*
X-7770000Y-2265000I150000J0D01*
G01*
X-7470000Y-2265000D01*
G75*
G02*
X-7320000Y-2415000I0J-150000D01*
G01*
X-7320000Y-4065000D01*
G75*
G02*
X-7470000Y-4215000I-150000J0D01*
G01*
G37*
G36*
G01*
X-7470000Y-9165000D02*
X-7770000Y-9165000D01*
G75*
G02*
X-7920000Y-9015000I0J150000D01*
G01*
X-7920000Y-7365000D01*
G75*
G02*
X-7770000Y-7215000I150000J0D01*
G01*
X-7470000Y-7215000D01*
G75*
G02*
X-7320000Y-7365000I0J-150000D01*
G01*
X-7320000Y-9015000D01*
G75*
G02*
X-7470000Y-9165000I-150000J0D01*
G01*
G37*
G36*
G01*
X-8740000Y-9165000D02*
X-9040000Y-9165000D01*
G75*
G02*
X-9190000Y-9015000I0J150000D01*
G01*
X-9190000Y-7365000D01*
G75*
G02*
X-9040000Y-7215000I150000J0D01*
G01*
X-8740000Y-7215000D01*
G75*
G02*
X-8590000Y-7365000I0J-150000D01*
G01*
X-8590000Y-9015000D01*
G75*
G02*
X-8740000Y-9165000I-150000J0D01*
G01*
G37*
G36*
G01*
X-10010000Y-9165000D02*
X-10310000Y-9165000D01*
G75*
G02*
X-10460000Y-9015000I0J150000D01*
G01*
X-10460000Y-7365000D01*
G75*
G02*
X-10310000Y-7215000I150000J0D01*
G01*
X-10010000Y-7215000D01*
G75*
G02*
X-9860000Y-7365000I0J-150000D01*
G01*
X-9860000Y-9015000D01*
G75*
G02*
X-10010000Y-9165000I-150000J0D01*
G01*
G37*
G36*
G01*
X-11280000Y-9165000D02*
X-11580000Y-9165000D01*
G75*
G02*
X-11730000Y-9015000I0J150000D01*
G01*
X-11730000Y-7365000D01*
G75*
G02*
X-11580000Y-7215000I150000J0D01*
G01*
X-11280000Y-7215000D01*
G75*
G02*
X-11130000Y-7365000I0J-150000D01*
G01*
X-11130000Y-9015000D01*
G75*
G02*
X-11280000Y-9165000I-150000J0D01*
G01*
G37*
%TD*%
%TO.C,R3*%
X4297500Y571500D03*
X6497500Y571500D03*
%TD*%
D11*
%TO.C,IC5*%
X12893000Y7192000D03*
X14793000Y7192000D03*
D12*
X14793000Y4492000D03*
D13*
X13843000Y4492000D03*
D12*
X12893000Y4492000D03*
%TD*%
D14*
%TO.C,Y2*%
X10160000Y5207000D03*
X11660000Y5207000D03*
X8660000Y5207000D03*
%TD*%
D15*
%TO.C,C4*%
X14351000Y9766800D03*
X14351000Y13766800D03*
%TD*%
D16*
%TO.C,IC1*%
X8985500Y2225000D03*
X10985500Y3175000D03*
X10985500Y1275000D03*
%TD*%
D17*
%TO.C,IC_S4*%
X9357000Y-12818000D03*
X8707000Y-12818000D03*
X8057000Y-12818000D03*
X7407000Y-12818000D03*
X7407000Y-14868000D03*
X8057000Y-14868000D03*
X8707000Y-14868000D03*
X9357000Y-14868000D03*
%TD*%
D18*
%TO.C,C8*%
X10261600Y9362800D03*
X10261600Y7162800D03*
%TD*%
D10*
%TO.C,R_IN1*%
X5875200Y-1270000D03*
X3675200Y-1270000D03*
%TD*%
D18*
%TO.C,C9*%
X11582400Y9380400D03*
X11582400Y7180400D03*
%TD*%
%TO.C,R1*%
X7620000Y-3386000D03*
X7620000Y-1186000D03*
%TD*%
D10*
%TO.C,C_S6_1*%
X9804400Y-16205200D03*
X7604400Y-16205200D03*
%TD*%
D18*
%TO.C,C_S2*%
X-10922000Y-10965000D03*
X-10922000Y-13165000D03*
%TD*%
M02*
