%TF.GenerationSoftware,KiCad,Pcbnew,(5.1.12)-1*%
%TF.CreationDate,2023-02-20T19:38:16+01:00*%
%TF.ProjectId,SolarSensorTagEFM32,536f6c61-7253-4656-9e73-6f7254616745,rev?*%
%TF.SameCoordinates,Original*%
%TF.FileFunction,Legend,Top*%
%TF.FilePolarity,Positive*%
%FSLAX46Y46*%
G04 Gerber Fmt 4.6, Leading zero omitted, Abs format (unit mm)*
G04 Created by KiCad (PCBNEW (5.1.12)-1) date 2023-02-20 19:38:16*
%MOMM*%
%LPD*%
G01*
G04 APERTURE LIST*
%ADD10C,0.120000*%
%ADD11C,0.200000*%
%ADD12C,0.150000*%
%ADD13C,0.250000*%
%ADD14C,0.800000*%
%ADD15C,0.400000*%
%ADD16C,0.240000*%
%ADD17C,0.100000*%
%ADD18R,1.200000X0.900000*%
%ADD19C,2.200000*%
%ADD20R,2.600000X5.100000*%
%ADD21C,17.000000*%
%ADD22C,1.850000*%
%ADD23R,1.500000X1.500000*%
%ADD24O,1.700000X1.700000*%
%ADD25C,1.700000*%
%ADD26R,0.800000X1.200000*%
%ADD27R,0.650000X1.200000*%
%ADD28R,0.600000X1.200000*%
%ADD29R,0.800000X1.800000*%
%ADD30R,1.700000X2.000000*%
%ADD31R,0.800000X0.800000*%
%ADD32R,0.350000X0.500000*%
%ADD33R,1.700000X1.700000*%
%ADD34R,0.900000X1.200000*%
G04 APERTURE END LIST*
D10*
X-3351866Y-1751733D02*
X-3385199Y-1718400D01*
X-3451866Y-1618400D01*
X-3485199Y-1551733D01*
X-3518533Y-1451733D01*
X-3551866Y-1285066D01*
X-3551866Y-1151733D01*
X-3518533Y-985066D01*
X-3485199Y-885066D01*
X-3451866Y-818400D01*
X-3385199Y-718400D01*
X-3351866Y-685066D01*
X-2685200Y-1418400D02*
X-2718533Y-1451733D01*
X-2818533Y-1485066D01*
X-2885200Y-1485066D01*
X-2985200Y-1451733D01*
X-3051866Y-1385066D01*
X-3085200Y-1318400D01*
X-3118533Y-1185066D01*
X-3118533Y-1085066D01*
X-3085200Y-951733D01*
X-3051866Y-885066D01*
X-2985200Y-818400D01*
X-2885200Y-785066D01*
X-2818533Y-785066D01*
X-2718533Y-818400D01*
X-2685200Y-851733D01*
X-2451866Y-1751733D02*
X-2418533Y-1718400D01*
X-2351866Y-1618400D01*
X-2318533Y-1551733D01*
X-2285200Y-1451733D01*
X-2251866Y-1285066D01*
X-2251866Y-1151733D01*
X-2285200Y-985066D01*
X-2318533Y-885066D01*
X-2351866Y-818400D01*
X-2418533Y-718400D01*
X-2451866Y-685066D01*
X-1951866Y-851733D02*
X-1918533Y-818400D01*
X-1851866Y-785066D01*
X-1685200Y-785066D01*
X-1618533Y-818400D01*
X-1585200Y-851733D01*
X-1551866Y-918400D01*
X-1551866Y-985066D01*
X-1585200Y-1085066D01*
X-1985200Y-1485066D01*
X-1551866Y-1485066D01*
X-1285200Y-851733D02*
X-1251866Y-818400D01*
X-1185200Y-785066D01*
X-1018533Y-785066D01*
X-951866Y-818400D01*
X-918533Y-851733D01*
X-885200Y-918400D01*
X-885200Y-985066D01*
X-918533Y-1085066D01*
X-1318533Y-1485066D01*
X-885200Y-1485066D01*
D11*
X-11938000Y2413000D02*
X-9271000Y2413000D01*
D10*
X3200400Y-431800D02*
X3200400Y2362200D01*
X7035800Y-15316200D02*
X6629400Y-15748000D01*
X7747000Y6375400D02*
X9550400Y6705600D01*
D11*
X-9271000Y2413000D02*
X-8001000Y1143000D01*
X-11811000Y6985000D02*
X-11811000Y6223000D01*
X-12827000Y3302000D02*
X-11938000Y2413000D01*
X-12827000Y5207000D02*
X-12827000Y3302000D01*
X-11811000Y6223000D02*
X-12827000Y5207000D01*
X-12573000Y8255000D02*
X-11811000Y6985000D01*
D10*
X2625000Y3160000D02*
X-635000Y3160000D01*
X2625000Y-2200000D02*
X2625000Y3160000D01*
X-635000Y-2200000D02*
X2625000Y-2200000D01*
X-635000Y3200000D02*
X-635000Y-2200000D01*
D12*
X673142Y-1806285D02*
X-226857Y-1806285D01*
X201714Y-1806285D02*
X201714Y-1291999D01*
X673142Y-1291999D02*
X-226857Y-1291999D01*
X673142Y-863428D02*
X-226857Y-863428D01*
X415999Y-563428D01*
X-226857Y-263428D01*
X673142Y-263428D01*
X630285Y808000D02*
X673142Y936571D01*
X673142Y1150857D01*
X630285Y1236571D01*
X587428Y1279428D01*
X501714Y1322285D01*
X416000Y1322285D01*
X330285Y1279428D01*
X287428Y1236571D01*
X244571Y1150857D01*
X201714Y979428D01*
X158857Y893714D01*
X116000Y850857D01*
X30285Y808000D01*
X-55428Y808000D01*
X-141142Y850857D01*
X-184000Y893714D01*
X-226857Y979428D01*
X-226857Y1193714D01*
X-183999Y1322285D01*
X630285Y1665142D02*
X673142Y1793714D01*
X673142Y2008000D01*
X630285Y2093714D01*
X587428Y2136571D01*
X501714Y2179428D01*
X416000Y2179428D01*
X330285Y2136571D01*
X287428Y2093714D01*
X244571Y2008000D01*
X201714Y1836571D01*
X158857Y1750857D01*
X116000Y1708000D01*
X30285Y1665142D01*
X-55428Y1665142D01*
X-141142Y1708000D01*
X-183999Y1750857D01*
X-226857Y1836571D01*
X-226857Y2050857D01*
X-183999Y2179428D01*
X-226857Y2436571D02*
X-226857Y2950857D01*
X673142Y2693714D02*
X-226857Y2693714D01*
X1273142Y-863428D02*
X2173142Y-563428D01*
X1273142Y-263428D01*
X2173142Y507999D02*
X2173142Y-6285D01*
X2173142Y250857D02*
X1273142Y250857D01*
X1401714Y165142D01*
X1487428Y79428D01*
X1530285Y-6285D01*
X2087428Y893714D02*
X2130285Y936571D01*
X2173142Y893714D01*
X2130285Y850857D01*
X2087428Y893714D01*
X2173142Y893714D01*
X1273142Y1493714D02*
X1273142Y1579428D01*
X1316000Y1665142D01*
X1358857Y1707999D01*
X1444571Y1750857D01*
X1616000Y1793714D01*
X1830285Y1793714D01*
X2001714Y1750857D01*
X2087428Y1707999D01*
X2130285Y1665142D01*
X2173142Y1579428D01*
X2173142Y1493714D01*
X2130285Y1407999D01*
X2087428Y1365142D01*
X2001714Y1322285D01*
X1830285Y1279428D01*
X1616000Y1279428D01*
X1444571Y1322285D01*
X1358857Y1365142D01*
X1316000Y1407999D01*
X1273142Y1493714D01*
X-4953000Y-1016000D02*
X-4191000Y-1016000D01*
D10*
X8826500Y9334500D02*
X8826500Y10096500D01*
D12*
X9526500Y9726500D02*
G75*
G03*
X9526500Y9726500I-700000J0D01*
G01*
X8445500Y9715500D02*
X9207500Y9715500D01*
D10*
X4762500Y19685000D02*
X4762500Y20447000D01*
D12*
X5462500Y20077000D02*
G75*
G03*
X5462500Y20077000I-700000J0D01*
G01*
X4381500Y20066000D02*
X5143500Y20066000D01*
D10*
X-14351000Y17335500D02*
X-14351000Y18097500D01*
D12*
X-14732000Y17716500D02*
X-13970000Y17716500D01*
X-13651000Y17727500D02*
G75*
G03*
X-13651000Y17727500I-700000J0D01*
G01*
X-3872000Y-1005000D02*
G75*
G03*
X-3872000Y-1005000I-700000J0D01*
G01*
D11*
X8238285Y16648214D02*
X8281142Y16776785D01*
X8281142Y16991071D01*
X8238285Y17076785D01*
X8195428Y17119642D01*
X8109714Y17162500D01*
X8024000Y17162500D01*
X7938285Y17119642D01*
X7895428Y17076785D01*
X7852571Y16991071D01*
X7809714Y16819642D01*
X7766857Y16733928D01*
X7724000Y16691071D01*
X7638285Y16648214D01*
X7552571Y16648214D01*
X7466857Y16691071D01*
X7424000Y16733928D01*
X7381142Y16819642D01*
X7381142Y17033928D01*
X7424000Y17162500D01*
X7938285Y17548214D02*
X7938285Y18233928D01*
X8281142Y17891071D02*
X7595428Y17891071D01*
D12*
X-8547187Y-13712857D02*
X-8880520Y-13712857D01*
X-8932901Y-14131904D02*
X-8832901Y-13331904D01*
X-8356711Y-13331904D01*
D11*
X-10291607Y-5182857D02*
X-10413035Y-5240000D01*
X-10484464Y-5354285D01*
X-10441607Y-5468571D01*
X-10334464Y-5525714D01*
X-10213035Y-5468571D01*
X-10141607Y-5354285D01*
X-10184464Y-5240000D01*
X-10291607Y-5182857D01*
X-8998750Y-6268571D02*
X-9063035Y-6325714D01*
X-9241607Y-6382857D01*
X-9355892Y-6382857D01*
X-9520178Y-6325714D01*
X-9620178Y-6211428D01*
X-9663035Y-6097142D01*
X-9691607Y-5868571D01*
X-9670178Y-5697142D01*
X-9584464Y-5468571D01*
X-9513035Y-5354285D01*
X-9384464Y-5240000D01*
X-9205892Y-5182857D01*
X-9091607Y-5182857D01*
X-8927321Y-5240000D01*
X-8877321Y-5297142D01*
X4833904Y-16391000D02*
X4738666Y-16343380D01*
X4595809Y-16343380D01*
X4452952Y-16391000D01*
X4357714Y-16486238D01*
X4310095Y-16581476D01*
X4262476Y-16771952D01*
X4262476Y-16914809D01*
X4310095Y-17105285D01*
X4357714Y-17200523D01*
X4452952Y-17295761D01*
X4595809Y-17343380D01*
X4691047Y-17343380D01*
X4833904Y-17295761D01*
X4881523Y-17248142D01*
X4881523Y-16914809D01*
X4691047Y-16914809D01*
X-4262476Y-17343380D02*
X-4595809Y-16867190D01*
X-4833904Y-17343380D02*
X-4833904Y-16343380D01*
X-4452952Y-16343380D01*
X-4357714Y-16391000D01*
X-4310095Y-16438619D01*
X-4262476Y-16533857D01*
X-4262476Y-16676714D01*
X-4310095Y-16771952D01*
X-4357714Y-16819571D01*
X-4452952Y-16867190D01*
X-4833904Y-16867190D01*
D12*
X8449151Y-13835714D02*
X8586651Y-13878571D01*
X8628913Y-13921428D01*
X8665818Y-14007142D01*
X8649747Y-14135714D01*
X8591413Y-14221428D01*
X8538437Y-14264285D01*
X8437842Y-14307142D01*
X8056889Y-14307142D01*
X8169389Y-13407142D01*
X8502723Y-13407142D01*
X8592604Y-13450000D01*
X8634866Y-13492857D01*
X8671770Y-13578571D01*
X8661056Y-13664285D01*
X8602723Y-13750000D01*
X8549747Y-13792857D01*
X8449151Y-13835714D01*
X8115818Y-13835714D01*
X9037598Y-7058000D02*
X9609026Y-7058000D01*
X8880455Y-7400857D02*
X9430455Y-6200857D01*
X9680455Y-7400857D01*
X10577571Y-11329142D02*
X10577571Y-10429142D01*
X11006142Y-11329142D02*
X11006142Y-10429142D01*
X11520428Y-11329142D01*
X11520428Y-10429142D01*
D11*
X12453904Y-1850000D02*
X12358666Y-1807142D01*
X12215809Y-1807142D01*
X12072952Y-1850000D01*
X11977714Y-1935714D01*
X11930095Y-2021428D01*
X11882476Y-2192857D01*
X11882476Y-2321428D01*
X11930095Y-2492857D01*
X11977714Y-2578571D01*
X12072952Y-2664285D01*
X12215809Y-2707142D01*
X12311047Y-2707142D01*
X12453904Y-2664285D01*
X12501523Y-2621428D01*
X12501523Y-2321428D01*
X12311047Y-2321428D01*
D13*
X11652285Y2198619D02*
X12223714Y2198619D01*
X11938000Y1198619D02*
X11938000Y2198619D01*
D10*
%TO.C,D7*%
X13762000Y2448000D02*
X13162000Y2448000D01*
X13162000Y3648000D02*
X13762000Y3648000D01*
D14*
%TO.C,RF1*%
X-7601000Y1143000D02*
G75*
G03*
X-7601000Y1143000I-400000J0D01*
G01*
D15*
X-6896891Y3050628D02*
G75*
G02*
X-6901000Y-767000I-1104109J-1907628D01*
G01*
X-7303109Y2354218D02*
G75*
G02*
X-7301000Y-67000I-697891J-1211218D01*
G01*
D10*
%TO.C,IC_S2*%
X-7026000Y-14916000D02*
X-7026000Y-12416000D01*
X-10136000Y-12416000D02*
X-10246000Y-12416000D01*
X-10136000Y-15016000D02*
X-10236000Y-15016000D01*
X-10236000Y-15016000D02*
X-10236000Y-14516000D01*
X-7026000Y-15016000D02*
X-7136000Y-15016000D01*
X-7036000Y-12416000D02*
X-7136000Y-12416000D01*
D16*
X-10548000Y-15113000D02*
G75*
G03*
X-10548000Y-15113000I-120000J0D01*
G01*
D10*
%TO.C,BT1*%
X8250000Y10550000D02*
X8250000Y10100000D01*
X5501000Y21301000D02*
X3977000Y22350000D01*
X8200000Y3800000D02*
X1400000Y3800000D01*
X-12533000Y3800000D02*
X-11500000Y3800000D01*
X8250000Y10550000D02*
X13050000Y10550000D01*
X13050000Y10550000D02*
X13050000Y14800000D01*
X-13250000Y16050000D02*
X-15454000Y16050000D01*
X-15454000Y10550000D02*
X-13250000Y10550000D01*
X-13250000Y16050000D02*
X-13250000Y18634000D01*
X-10300000Y3800000D02*
X-6346385Y3801464D01*
X-4393045Y3228592D02*
G75*
G02*
X-6346385Y3801464I1893045J10071408D01*
G01*
D12*
X1408675Y3795146D02*
G75*
G02*
X-600000Y3200000I-3908675J9504854D01*
G01*
X7362705Y10606188D02*
G75*
G02*
X4845000Y6188001I-9862705J2693812D01*
G01*
X5617898Y19515265D02*
G75*
G02*
X7370000Y15966999I-8117898J-6215265D01*
G01*
X2272138Y22340553D02*
G75*
G02*
X4170000Y21047000I-4772138J-9040553D01*
G01*
X-8489571Y21583449D02*
G75*
G02*
X-7315000Y22316999I5989571J-8283449D01*
G01*
X-12369058Y15957054D02*
G75*
G02*
X-11275000Y18540000I9869058J-2657054D01*
G01*
X-10465596Y6890704D02*
G75*
G02*
X-12370000Y10633001I7965596J6409296D01*
G01*
X-6871970Y4057459D02*
G75*
G02*
X-8867000Y5300000I4371970J9242541D01*
G01*
D11*
%TO.C,IC_S8*%
X7698000Y-5058000D02*
G75*
G03*
X7698000Y-5058000I-100000J0D01*
G01*
D12*
X11548000Y-4708000D02*
X11548000Y-5208000D01*
X7248000Y-9008000D02*
X7248000Y-8508000D01*
X11548000Y-9008000D02*
X11548000Y-8508000D01*
X7248000Y-4708000D02*
X7748000Y-4708000D01*
X7248000Y-9008000D02*
X7748000Y-9008000D01*
X11548000Y-9008000D02*
X11048000Y-9008000D01*
X11548000Y-4708000D02*
X11048000Y-4708000D01*
X7248000Y-4708000D02*
X7248000Y-5208000D01*
D16*
%TO.C,IC_S1*%
X-11605000Y-9815000D02*
G75*
G03*
X-11605000Y-9815000I-120000J0D01*
G01*
D10*
X-6965000Y-5715000D02*
X-6965000Y-3765000D01*
X-6965000Y-5715000D02*
X-6965000Y-7665000D01*
X-12085000Y-5315000D02*
X-12085000Y-4815000D01*
X-12085000Y-7415000D02*
X-12085000Y-7915000D01*
X-6950000Y-9565000D02*
X-11075000Y-9565000D01*
X-6950000Y-9565000D02*
X-6950000Y-8215000D01*
X-6975000Y-3190000D02*
X-6975000Y-1865000D01*
X-6975000Y-1865000D02*
X-12100000Y-1865000D01*
X-12100000Y-2740000D02*
X-12100000Y-1865000D01*
D12*
%TO.C,D4*%
X3200000Y-17991000D02*
X2500000Y-18591000D01*
X-2500000Y-18291000D02*
X-2500000Y-18591000D01*
X-3000000Y-18291000D02*
X-2500000Y-18291000D01*
X-3000000Y-17991000D02*
X-3000000Y-18291000D01*
X-3700000Y-15691000D02*
X-3700000Y-18591000D01*
X3800000Y-15691000D02*
X3800000Y-18591000D01*
D10*
X-3700000Y-15691000D02*
X3800000Y-15691000D01*
%TO.C,J2*%
X-9170000Y-17270000D02*
X-9170000Y-17600000D01*
X-9170000Y-15400000D02*
X-10100000Y-15400000D01*
X-9170000Y-15750000D02*
X-9170000Y-15420000D01*
X-10100000Y-17600000D02*
X-9170000Y-17600000D01*
%TO.C,SP1*%
X10721000Y16095000D02*
X10921000Y16095000D01*
X8621000Y16095000D02*
X8821000Y16095000D01*
X8621000Y18288000D02*
X8621000Y16095000D01*
X10921000Y18281000D02*
X10921000Y16095000D01*
X8621000Y18288000D02*
X10921000Y18288000D01*
%TO.C,R3*%
X5697500Y-28500D02*
X5097500Y-28500D01*
X5097500Y1171500D02*
X5697500Y1171500D01*
D12*
%TO.C,IC5*%
X13593000Y6842000D02*
X14093000Y6842000D01*
D10*
X12233000Y6742000D02*
X12233000Y6392000D01*
X15453000Y4942000D02*
X15453000Y6742000D01*
%TO.C,Y2*%
X8010000Y4057000D02*
X8518000Y4057000D01*
X8010000Y5715000D02*
X8010000Y6223000D01*
X8010000Y4057000D02*
X8010000Y4707000D01*
X12310000Y4057000D02*
X12310000Y4699000D01*
X11802000Y6357000D02*
X12310000Y6357000D01*
X12310000Y5715000D02*
X12310000Y6357000D01*
X11802000Y4057000D02*
X12310000Y4057000D01*
%TO.C,TA1*%
X11662400Y762000D02*
X11962400Y762000D01*
X8662400Y-1524000D02*
X11962400Y-1524000D01*
X8662400Y762000D02*
X8662400Y-1524000D01*
X11962400Y762000D02*
X11962400Y-1524000D01*
X8662400Y762000D02*
X10312400Y762000D01*
%TO.C,C4*%
X13281000Y10966800D02*
X13281000Y12566800D01*
X15421000Y12566800D02*
X15421000Y10966800D01*
%TO.C,IC1*%
X10785500Y1925000D02*
X10785500Y2525000D01*
X9225500Y3805000D02*
X10685500Y3805000D01*
X9235500Y775000D02*
X9235500Y1475000D01*
X9225500Y3805000D02*
X9225500Y2975000D01*
D16*
%TO.C,IC_S4*%
X7552000Y-12093000D02*
G75*
G03*
X7552000Y-12093000I-120000J0D01*
G01*
D17*
X7032000Y-15343000D02*
X7382000Y-15343000D01*
X7032000Y-15343000D02*
X7032000Y-14893000D01*
X9732000Y-15343000D02*
X9732000Y-14893000D01*
X9732000Y-15343000D02*
X9382000Y-15343000D01*
X9382000Y-12343000D02*
X9732000Y-12343000D01*
X9732000Y-12343000D02*
X9732000Y-12793000D01*
X7032000Y-12793000D02*
X7032000Y-12343000D01*
D10*
%TO.C,J1*%
X-13910000Y-4810000D02*
X-13910000Y-5310000D01*
X-13910000Y-2480000D02*
X-15240000Y-2480000D01*
X-13910000Y-2810000D02*
X-13910000Y-2480000D01*
X-15240000Y-5080000D02*
X-13910000Y-5080000D01*
X-13910000Y-14910000D02*
X-13910000Y-15300000D01*
X-15240000Y-15300000D02*
X-13910000Y-15300000D01*
%TO.C,J5*%
X13910000Y-4810000D02*
X13910000Y-5310000D01*
X13910000Y-2480000D02*
X15240000Y-2480000D01*
X13910000Y-2810000D02*
X13910000Y-2480000D01*
X15240000Y-5080000D02*
X13910000Y-5080000D01*
X13910000Y-14910000D02*
X13910000Y-15300000D01*
X15240000Y-15300000D02*
X13910000Y-15300000D01*
%TO.C,C8*%
X9661600Y7962800D02*
X9661600Y8562800D01*
X10861600Y8562800D02*
X10861600Y7962800D01*
%TO.C,R_IN1*%
X4475200Y-670000D02*
X5075200Y-670000D01*
X5075200Y-1870000D02*
X4475200Y-1870000D01*
%TO.C,C9*%
X10982400Y7980400D02*
X10982400Y8580400D01*
X12182400Y8580400D02*
X12182400Y7980400D01*
%TO.C,R1*%
X8220000Y-1986000D02*
X8220000Y-2586000D01*
X7020000Y-2586000D02*
X7020000Y-1986000D01*
%TO.C,C_S6_1*%
X8404400Y-15605200D02*
X9004400Y-15605200D01*
X9004400Y-16805200D02*
X8404400Y-16805200D01*
%TO.C,C_S2*%
X-11522000Y-12365000D02*
X-11522000Y-11765000D01*
X-10322000Y-11765000D02*
X-10322000Y-12365000D01*
%TO.C,IN1*%
X12065000Y-11760200D02*
X12065000Y-15062200D01*
X12065000Y-15062200D02*
X9779000Y-15062200D01*
X12065000Y-11760200D02*
X9779000Y-11760200D01*
X9779000Y-11760200D02*
X9779000Y-15062200D01*
%TO.C,SP2*%
X8382000Y-4064000D02*
X11684000Y-4064000D01*
X8382000Y-1778000D02*
X8382000Y-4064000D01*
X11684000Y-1778000D02*
X11684000Y-4064000D01*
X8382000Y-1778000D02*
X11684000Y-1778000D01*
%TO.C,RF1*%
D17*
X-10605600Y3119428D02*
X-10662742Y3148000D01*
X-10691314Y3176571D01*
X-10719885Y3233714D01*
X-10719885Y3262285D01*
X-10691314Y3319428D01*
X-10662742Y3348000D01*
X-10605600Y3376571D01*
X-10491314Y3376571D01*
X-10434171Y3348000D01*
X-10405600Y3319428D01*
X-10377028Y3262285D01*
X-10377028Y3233714D01*
X-10405600Y3176571D01*
X-10434171Y3148000D01*
X-10491314Y3119428D01*
X-10605600Y3119428D01*
X-10662742Y3090857D01*
X-10691314Y3062285D01*
X-10719885Y3005142D01*
X-10719885Y2890857D01*
X-10691314Y2833714D01*
X-10662742Y2805142D01*
X-10605600Y2776571D01*
X-10491314Y2776571D01*
X-10434171Y2805142D01*
X-10405600Y2833714D01*
X-10377028Y2890857D01*
X-10377028Y3005142D01*
X-10405600Y3062285D01*
X-10434171Y3090857D01*
X-10491314Y3119428D01*
X-9862742Y3376571D02*
X-9977028Y3376571D01*
X-10034171Y3348000D01*
X-10062742Y3319428D01*
X-10119885Y3233714D01*
X-10148457Y3119428D01*
X-10148457Y2890857D01*
X-10119885Y2833714D01*
X-10091314Y2805142D01*
X-10034171Y2776571D01*
X-9919885Y2776571D01*
X-9862742Y2805142D01*
X-9834171Y2833714D01*
X-9805600Y2890857D01*
X-9805600Y3033714D01*
X-9834171Y3090857D01*
X-9862742Y3119428D01*
X-9919885Y3148000D01*
X-10034171Y3148000D01*
X-10091314Y3119428D01*
X-10119885Y3090857D01*
X-10148457Y3033714D01*
X-9462742Y3119428D02*
X-9519885Y3148000D01*
X-9548457Y3176571D01*
X-9577028Y3233714D01*
X-9577028Y3262285D01*
X-9548457Y3319428D01*
X-9519885Y3348000D01*
X-9462742Y3376571D01*
X-9348457Y3376571D01*
X-9291314Y3348000D01*
X-9262742Y3319428D01*
X-9234171Y3262285D01*
X-9234171Y3233714D01*
X-9262742Y3176571D01*
X-9291314Y3148000D01*
X-9348457Y3119428D01*
X-9462742Y3119428D01*
X-9519885Y3090857D01*
X-9548457Y3062285D01*
X-9577028Y3005142D01*
X-9577028Y2890857D01*
X-9548457Y2833714D01*
X-9519885Y2805142D01*
X-9462742Y2776571D01*
X-9348457Y2776571D01*
X-9291314Y2805142D01*
X-9262742Y2833714D01*
X-9234171Y2890857D01*
X-9234171Y3005142D01*
X-9262742Y3062285D01*
X-9291314Y3090857D01*
X-9348457Y3119428D01*
X-8977028Y2776571D02*
X-8977028Y3376571D01*
X-8777028Y2948000D01*
X-8577028Y3376571D01*
X-8577028Y2776571D01*
X-8291314Y2776571D02*
X-8291314Y3376571D01*
X-8034171Y2776571D02*
X-8034171Y3090857D01*
X-8062742Y3148000D01*
X-8119885Y3176571D01*
X-8205600Y3176571D01*
X-8262742Y3148000D01*
X-8291314Y3119428D01*
X-7805600Y3176571D02*
X-7491314Y3176571D01*
X-7805600Y2776571D01*
X-7491314Y2776571D01*
%TO.C,IC_S2*%
X-8957000Y-16224371D02*
X-8957000Y-15564371D01*
X-8265571Y-16161514D02*
X-8297000Y-16192942D01*
X-8391285Y-16224371D01*
X-8454142Y-16224371D01*
X-8548428Y-16192942D01*
X-8611285Y-16130085D01*
X-8642714Y-16067228D01*
X-8674142Y-15941514D01*
X-8674142Y-15847228D01*
X-8642714Y-15721514D01*
X-8611285Y-15658657D01*
X-8548428Y-15595800D01*
X-8454142Y-15564371D01*
X-8391285Y-15564371D01*
X-8297000Y-15595800D01*
X-8265571Y-15627228D01*
X-8139857Y-16287228D02*
X-7637000Y-16287228D01*
X-7511285Y-16192942D02*
X-7417000Y-16224371D01*
X-7259857Y-16224371D01*
X-7197000Y-16192942D01*
X-7165571Y-16161514D01*
X-7134142Y-16098657D01*
X-7134142Y-16035800D01*
X-7165571Y-15972942D01*
X-7197000Y-15941514D01*
X-7259857Y-15910085D01*
X-7385571Y-15878657D01*
X-7448428Y-15847228D01*
X-7479857Y-15815800D01*
X-7511285Y-15752942D01*
X-7511285Y-15690085D01*
X-7479857Y-15627228D01*
X-7448428Y-15595800D01*
X-7385571Y-15564371D01*
X-7228428Y-15564371D01*
X-7134142Y-15595800D01*
X-6882714Y-15627228D02*
X-6851285Y-15595800D01*
X-6788428Y-15564371D01*
X-6631285Y-15564371D01*
X-6568428Y-15595800D01*
X-6537000Y-15627228D01*
X-6505571Y-15690085D01*
X-6505571Y-15752942D01*
X-6537000Y-15847228D01*
X-6914142Y-16224371D01*
X-6505571Y-16224371D01*
%TO.C,BT1*%
D12*
X2257872Y5033552D02*
X2399763Y5083979D01*
X2466604Y5075772D01*
X2562763Y5030041D01*
X2650714Y4917468D01*
X2671825Y4813102D01*
X2663617Y4746260D01*
X2617886Y4650102D01*
X2317691Y4415564D01*
X1702030Y5203575D01*
X1964700Y5408795D01*
X2069066Y5429905D01*
X2135908Y5421698D01*
X2232066Y5375967D01*
X2290701Y5300918D01*
X2311811Y5196552D01*
X2303604Y5129711D01*
X2257872Y5033552D01*
X1995202Y4828331D01*
X2377468Y5731285D02*
X2827760Y6083091D01*
X3218275Y5119177D02*
X2602614Y5907188D01*
X4118859Y5822790D02*
X3668567Y5470984D01*
X3893713Y5646887D02*
X3278051Y6434898D01*
X3290954Y6263690D01*
X3274540Y6130007D01*
X3228809Y6033848D01*
%TO.C,IC_S8*%
D17*
X9661199Y-10102971D02*
X9661199Y-9442971D01*
X10352628Y-10040114D02*
X10321199Y-10071542D01*
X10226914Y-10102971D01*
X10164057Y-10102971D01*
X10069771Y-10071542D01*
X10006914Y-10008685D01*
X9975485Y-9945828D01*
X9944057Y-9820114D01*
X9944057Y-9725828D01*
X9975485Y-9600114D01*
X10006914Y-9537257D01*
X10069771Y-9474400D01*
X10164057Y-9442971D01*
X10226914Y-9442971D01*
X10321199Y-9474400D01*
X10352628Y-9505828D01*
X10478342Y-10165828D02*
X10981200Y-10165828D01*
X11106914Y-10071542D02*
X11201200Y-10102971D01*
X11358342Y-10102971D01*
X11421200Y-10071542D01*
X11452628Y-10040114D01*
X11484057Y-9977257D01*
X11484057Y-9914400D01*
X11452628Y-9851542D01*
X11421200Y-9820114D01*
X11358342Y-9788685D01*
X11232628Y-9757257D01*
X11169771Y-9725828D01*
X11138342Y-9694400D01*
X11106914Y-9631542D01*
X11106914Y-9568685D01*
X11138342Y-9505828D01*
X11169771Y-9474400D01*
X11232628Y-9442971D01*
X11389771Y-9442971D01*
X11484057Y-9474400D01*
X11861200Y-9725828D02*
X11798342Y-9694400D01*
X11766914Y-9662971D01*
X11735485Y-9600114D01*
X11735485Y-9568685D01*
X11766914Y-9505828D01*
X11798342Y-9474400D01*
X11861200Y-9442971D01*
X11986914Y-9442971D01*
X12049771Y-9474400D01*
X12081200Y-9505828D01*
X12112628Y-9568685D01*
X12112628Y-9600114D01*
X12081200Y-9662971D01*
X12049771Y-9694400D01*
X11986914Y-9725828D01*
X11861200Y-9725828D01*
X11798342Y-9757257D01*
X11766914Y-9788685D01*
X11735485Y-9851542D01*
X11735485Y-9977257D01*
X11766914Y-10040114D01*
X11798342Y-10071542D01*
X11861200Y-10102971D01*
X11986914Y-10102971D01*
X12049771Y-10071542D01*
X12081200Y-10040114D01*
X12112628Y-9977257D01*
X12112628Y-9851542D01*
X12081200Y-9788685D01*
X12049771Y-9757257D01*
X11986914Y-9725828D01*
%TO.C,IC_S1*%
D10*
X-11468733Y-1408866D02*
X-11468733Y-708866D01*
X-10735400Y-1342200D02*
X-10768733Y-1375533D01*
X-10868733Y-1408866D01*
X-10935400Y-1408866D01*
X-11035400Y-1375533D01*
X-11102066Y-1308866D01*
X-11135400Y-1242200D01*
X-11168733Y-1108866D01*
X-11168733Y-1008866D01*
X-11135400Y-875533D01*
X-11102066Y-808866D01*
X-11035400Y-742200D01*
X-10935400Y-708866D01*
X-10868733Y-708866D01*
X-10768733Y-742200D01*
X-10735400Y-775533D01*
X-10602066Y-1475533D02*
X-10068733Y-1475533D01*
X-9935400Y-1375533D02*
X-9835400Y-1408866D01*
X-9668733Y-1408866D01*
X-9602066Y-1375533D01*
X-9568733Y-1342200D01*
X-9535400Y-1275533D01*
X-9535400Y-1208866D01*
X-9568733Y-1142200D01*
X-9602066Y-1108866D01*
X-9668733Y-1075533D01*
X-9802066Y-1042200D01*
X-9868733Y-1008866D01*
X-9902066Y-975533D01*
X-9935400Y-908866D01*
X-9935400Y-842200D01*
X-9902066Y-775533D01*
X-9868733Y-742200D01*
X-9802066Y-708866D01*
X-9635400Y-708866D01*
X-9535400Y-742200D01*
X-8868733Y-1408866D02*
X-9268733Y-1408866D01*
X-9068733Y-1408866D02*
X-9068733Y-708866D01*
X-9135400Y-808866D01*
X-9202066Y-875533D01*
X-9268733Y-908866D01*
%TO.C,D4*%
X-6986628Y-17506904D02*
X-6986628Y-16706904D01*
X-6796152Y-16706904D01*
X-6681866Y-16745000D01*
X-6605676Y-16821190D01*
X-6567580Y-16897380D01*
X-6529485Y-17049761D01*
X-6529485Y-17164047D01*
X-6567580Y-17316428D01*
X-6605676Y-17392619D01*
X-6681866Y-17468809D01*
X-6796152Y-17506904D01*
X-6986628Y-17506904D01*
X-5843771Y-16973571D02*
X-5843771Y-17506904D01*
X-6034247Y-16668809D02*
X-6224723Y-17240238D01*
X-5729485Y-17240238D01*
D17*
X-8459142Y-18305428D02*
X-8744857Y-18305428D01*
X-8744857Y-17705428D01*
X-8259142Y-17991142D02*
X-8059142Y-17991142D01*
X-7973428Y-18305428D02*
X-8259142Y-18305428D01*
X-8259142Y-17705428D01*
X-7973428Y-17705428D01*
X-7716285Y-18305428D02*
X-7716285Y-17705428D01*
X-7573428Y-17705428D01*
X-7487714Y-17734000D01*
X-7430571Y-17791142D01*
X-7402000Y-17848285D01*
X-7373428Y-17962571D01*
X-7373428Y-18048285D01*
X-7402000Y-18162571D01*
X-7430571Y-18219714D01*
X-7487714Y-18276857D01*
X-7573428Y-18305428D01*
X-7716285Y-18305428D01*
X-6859142Y-18305428D02*
X-6859142Y-17705428D01*
X-6859142Y-18276857D02*
X-6916285Y-18305428D01*
X-7030571Y-18305428D01*
X-7087714Y-18276857D01*
X-7116285Y-18248285D01*
X-7144857Y-18191142D01*
X-7144857Y-18019714D01*
X-7116285Y-17962571D01*
X-7087714Y-17934000D01*
X-7030571Y-17905428D01*
X-6916285Y-17905428D01*
X-6859142Y-17934000D01*
X-6316285Y-17905428D02*
X-6316285Y-18305428D01*
X-6573428Y-17905428D02*
X-6573428Y-18219714D01*
X-6544857Y-18276857D01*
X-6487714Y-18305428D01*
X-6402000Y-18305428D01*
X-6344857Y-18276857D01*
X-6316285Y-18248285D01*
X-5944857Y-18305428D02*
X-6002000Y-18276857D01*
X-6030571Y-18248285D01*
X-6059142Y-18191142D01*
X-6059142Y-18019714D01*
X-6030571Y-17962571D01*
X-6002000Y-17934000D01*
X-5944857Y-17905428D01*
X-5859142Y-17905428D01*
X-5802000Y-17934000D01*
X-5773428Y-17962571D01*
X-5744857Y-18019714D01*
X-5744857Y-18191142D01*
X-5773428Y-18248285D01*
X-5802000Y-18276857D01*
X-5859142Y-18305428D01*
X-5944857Y-18305428D01*
X-5516285Y-18134000D02*
X-5230571Y-18134000D01*
X-5573428Y-18305428D02*
X-5373428Y-17705428D01*
X-5173428Y-18305428D01*
X-4630571Y-18248285D02*
X-4659142Y-18276857D01*
X-4744857Y-18305428D01*
X-4802000Y-18305428D01*
X-4887714Y-18276857D01*
X-4944857Y-18219714D01*
X-4973428Y-18162571D01*
X-5002000Y-18048285D01*
X-5002000Y-17962571D01*
X-4973428Y-17848285D01*
X-4944857Y-17791142D01*
X-4887714Y-17734000D01*
X-4802000Y-17705428D01*
X-4744857Y-17705428D01*
X-4659142Y-17734000D01*
X-4630571Y-17762571D01*
X-4402000Y-18134000D02*
X-4116285Y-18134000D01*
X-4459142Y-18305428D02*
X-4259142Y-17705428D01*
X-4059142Y-18305428D01*
%TO.C,R3*%
D10*
X6191266Y1441495D02*
X5924600Y1822447D01*
X5734123Y1441495D02*
X5734123Y2241495D01*
X6038885Y2241495D01*
X6115076Y2203400D01*
X6153171Y2165304D01*
X6191266Y2089114D01*
X6191266Y1974828D01*
X6153171Y1898638D01*
X6115076Y1860542D01*
X6038885Y1822447D01*
X5734123Y1822447D01*
X6457933Y2241495D02*
X6953171Y2241495D01*
X6686504Y1936733D01*
X6800790Y1936733D01*
X6876980Y1898638D01*
X6915076Y1860542D01*
X6953171Y1784352D01*
X6953171Y1593876D01*
X6915076Y1517685D01*
X6876980Y1479590D01*
X6800790Y1441495D01*
X6572219Y1441495D01*
X6496028Y1479590D01*
X6457933Y1517685D01*
%TO.C,IC5*%
X13119047Y5466190D02*
X13119047Y6226190D01*
X13957142Y5538571D02*
X13919047Y5502380D01*
X13804761Y5466190D01*
X13728571Y5466190D01*
X13614285Y5502380D01*
X13538095Y5574761D01*
X13500000Y5647142D01*
X13461904Y5791904D01*
X13461904Y5900476D01*
X13500000Y6045238D01*
X13538095Y6117619D01*
X13614285Y6190000D01*
X13728571Y6226190D01*
X13804761Y6226190D01*
X13919047Y6190000D01*
X13957142Y6153809D01*
X14680952Y6226190D02*
X14300000Y6226190D01*
X14261904Y5864285D01*
X14300000Y5900476D01*
X14376190Y5936666D01*
X14566666Y5936666D01*
X14642857Y5900476D01*
X14680952Y5864285D01*
X14719047Y5791904D01*
X14719047Y5610952D01*
X14680952Y5538571D01*
X14642857Y5502380D01*
X14566666Y5466190D01*
X14376190Y5466190D01*
X14300000Y5502380D01*
X14261904Y5538571D01*
%TO.C,Y2*%
D12*
X6404028Y4644228D02*
X6404028Y4215657D01*
X6104028Y5115657D02*
X6404028Y4644228D01*
X6704028Y5115657D01*
X6961171Y5029942D02*
X7004028Y5072800D01*
X7089742Y5115657D01*
X7304028Y5115657D01*
X7389742Y5072800D01*
X7432600Y5029942D01*
X7475457Y4944228D01*
X7475457Y4858514D01*
X7432600Y4729942D01*
X6918314Y4215657D01*
X7475457Y4215657D01*
%TO.C,C4*%
D10*
X14154166Y11398285D02*
X14116071Y11360190D01*
X14001785Y11322095D01*
X13925595Y11322095D01*
X13811309Y11360190D01*
X13735119Y11436380D01*
X13697023Y11512571D01*
X13658928Y11664952D01*
X13658928Y11779238D01*
X13697023Y11931619D01*
X13735119Y12007809D01*
X13811309Y12084000D01*
X13925595Y12122095D01*
X14001785Y12122095D01*
X14116071Y12084000D01*
X14154166Y12045904D01*
X14839880Y11855428D02*
X14839880Y11322095D01*
X14649404Y12160190D02*
X14458928Y11588761D01*
X14954166Y11588761D01*
%TO.C,IC1*%
X6653219Y2711495D02*
X6653219Y3511495D01*
X7491314Y2787685D02*
X7453219Y2749590D01*
X7338933Y2711495D01*
X7262742Y2711495D01*
X7148457Y2749590D01*
X7072266Y2825780D01*
X7034171Y2901971D01*
X6996076Y3054352D01*
X6996076Y3168638D01*
X7034171Y3321019D01*
X7072266Y3397209D01*
X7148457Y3473400D01*
X7262742Y3511495D01*
X7338933Y3511495D01*
X7453219Y3473400D01*
X7491314Y3435304D01*
X8253219Y2711495D02*
X7796076Y2711495D01*
X8024647Y2711495D02*
X8024647Y3511495D01*
X7948457Y3397209D01*
X7872266Y3321019D01*
X7796076Y3282923D01*
%TO.C,IC_S4*%
D17*
X6546971Y-18345257D02*
X5886971Y-18345257D01*
X6484114Y-17653828D02*
X6515542Y-17685257D01*
X6546971Y-17779542D01*
X6546971Y-17842400D01*
X6515542Y-17936685D01*
X6452685Y-17999542D01*
X6389828Y-18030971D01*
X6264114Y-18062400D01*
X6169828Y-18062400D01*
X6044114Y-18030971D01*
X5981257Y-17999542D01*
X5918400Y-17936685D01*
X5886971Y-17842400D01*
X5886971Y-17779542D01*
X5918400Y-17685257D01*
X5949828Y-17653828D01*
X6609828Y-17528114D02*
X6609828Y-17025257D01*
X6515542Y-16899542D02*
X6546971Y-16805257D01*
X6546971Y-16648114D01*
X6515542Y-16585257D01*
X6484114Y-16553828D01*
X6421257Y-16522400D01*
X6358400Y-16522400D01*
X6295542Y-16553828D01*
X6264114Y-16585257D01*
X6232685Y-16648114D01*
X6201257Y-16773828D01*
X6169828Y-16836685D01*
X6138400Y-16868114D01*
X6075542Y-16899542D01*
X6012685Y-16899542D01*
X5949828Y-16868114D01*
X5918400Y-16836685D01*
X5886971Y-16773828D01*
X5886971Y-16616685D01*
X5918400Y-16522400D01*
X6106971Y-15956685D02*
X6546971Y-15956685D01*
X5855542Y-16113828D02*
X6326971Y-16270971D01*
X6326971Y-15862400D01*
%TO.C,C8*%
D10*
X6775466Y5962685D02*
X6737371Y5924590D01*
X6623085Y5886495D01*
X6546895Y5886495D01*
X6432609Y5924590D01*
X6356419Y6000780D01*
X6318323Y6076971D01*
X6280228Y6229352D01*
X6280228Y6343638D01*
X6318323Y6496019D01*
X6356419Y6572209D01*
X6432609Y6648400D01*
X6546895Y6686495D01*
X6623085Y6686495D01*
X6737371Y6648400D01*
X6775466Y6610304D01*
X7232609Y6343638D02*
X7156419Y6381733D01*
X7118323Y6419828D01*
X7080228Y6496019D01*
X7080228Y6534114D01*
X7118323Y6610304D01*
X7156419Y6648400D01*
X7232609Y6686495D01*
X7384990Y6686495D01*
X7461180Y6648400D01*
X7499276Y6610304D01*
X7537371Y6534114D01*
X7537371Y6496019D01*
X7499276Y6419828D01*
X7461180Y6381733D01*
X7384990Y6343638D01*
X7232609Y6343638D01*
X7156419Y6305542D01*
X7118323Y6267447D01*
X7080228Y6191257D01*
X7080228Y6038876D01*
X7118323Y5962685D01*
X7156419Y5924590D01*
X7232609Y5886495D01*
X7384990Y5886495D01*
X7461180Y5924590D01*
X7499276Y5962685D01*
X7537371Y6038876D01*
X7537371Y6191257D01*
X7499276Y6267447D01*
X7461180Y6305542D01*
X7384990Y6343638D01*
%TO.C,R_IN1*%
X3418019Y2686095D02*
X3151352Y3067047D01*
X2960876Y2686095D02*
X2960876Y3486095D01*
X3265638Y3486095D01*
X3341828Y3448000D01*
X3379923Y3409904D01*
X3418019Y3333714D01*
X3418019Y3219428D01*
X3379923Y3143238D01*
X3341828Y3105142D01*
X3265638Y3067047D01*
X2960876Y3067047D01*
X3570400Y2609904D02*
X4179923Y2609904D01*
X4370400Y2686095D02*
X4370400Y3486095D01*
X4751352Y2686095D02*
X4751352Y3486095D01*
X5208495Y2686095D01*
X5208495Y3486095D01*
X6008495Y2686095D02*
X5551352Y2686095D01*
X5779923Y2686095D02*
X5779923Y3486095D01*
X5703733Y3371809D01*
X5627542Y3295619D01*
X5551352Y3257523D01*
%TO.C,C9*%
X13112714Y9137666D02*
X13150809Y9099571D01*
X13188904Y8985285D01*
X13188904Y8909095D01*
X13150809Y8794809D01*
X13074619Y8718619D01*
X12998428Y8680523D01*
X12846047Y8642428D01*
X12731761Y8642428D01*
X12579380Y8680523D01*
X12503190Y8718619D01*
X12427000Y8794809D01*
X12388904Y8909095D01*
X12388904Y8985285D01*
X12427000Y9099571D01*
X12465095Y9137666D01*
X13188904Y9518619D02*
X13188904Y9671000D01*
X13150809Y9747190D01*
X13112714Y9785285D01*
X12998428Y9861476D01*
X12846047Y9899571D01*
X12541285Y9899571D01*
X12465095Y9861476D01*
X12427000Y9823380D01*
X12388904Y9747190D01*
X12388904Y9594809D01*
X12427000Y9518619D01*
X12465095Y9480523D01*
X12541285Y9442428D01*
X12731761Y9442428D01*
X12807952Y9480523D01*
X12846047Y9518619D01*
X12884142Y9594809D01*
X12884142Y9747190D01*
X12846047Y9823380D01*
X12807952Y9861476D01*
X12731761Y9899571D01*
%TO.C,R1*%
X8190666Y263666D02*
X7857333Y30333D01*
X8190666Y-136333D02*
X7490666Y-136333D01*
X7490666Y130333D01*
X7524000Y197000D01*
X7557333Y230333D01*
X7624000Y263666D01*
X7724000Y263666D01*
X7790666Y230333D01*
X7824000Y197000D01*
X7857333Y130333D01*
X7857333Y-136333D01*
X8190666Y930333D02*
X8190666Y530333D01*
X8190666Y730333D02*
X7490666Y730333D01*
X7590666Y663666D01*
X7657333Y597000D01*
X7690666Y530333D01*
%TO.C,C_S6_1*%
X7339200Y-17801400D02*
X7305866Y-17834733D01*
X7205866Y-17868066D01*
X7139200Y-17868066D01*
X7039200Y-17834733D01*
X6972533Y-17768066D01*
X6939200Y-17701400D01*
X6905866Y-17568066D01*
X6905866Y-17468066D01*
X6939200Y-17334733D01*
X6972533Y-17268066D01*
X7039200Y-17201400D01*
X7139200Y-17168066D01*
X7205866Y-17168066D01*
X7305866Y-17201400D01*
X7339200Y-17234733D01*
X7472533Y-17934733D02*
X8005866Y-17934733D01*
X8139200Y-17834733D02*
X8239200Y-17868066D01*
X8405866Y-17868066D01*
X8472533Y-17834733D01*
X8505866Y-17801400D01*
X8539200Y-17734733D01*
X8539200Y-17668066D01*
X8505866Y-17601400D01*
X8472533Y-17568066D01*
X8405866Y-17534733D01*
X8272533Y-17501400D01*
X8205866Y-17468066D01*
X8172533Y-17434733D01*
X8139200Y-17368066D01*
X8139200Y-17301400D01*
X8172533Y-17234733D01*
X8205866Y-17201400D01*
X8272533Y-17168066D01*
X8439200Y-17168066D01*
X8539200Y-17201400D01*
X9139200Y-17168066D02*
X9005866Y-17168066D01*
X8939200Y-17201400D01*
X8905866Y-17234733D01*
X8839200Y-17334733D01*
X8805866Y-17468066D01*
X8805866Y-17734733D01*
X8839200Y-17801400D01*
X8872533Y-17834733D01*
X8939200Y-17868066D01*
X9072533Y-17868066D01*
X9139200Y-17834733D01*
X9172533Y-17801400D01*
X9205866Y-17734733D01*
X9205866Y-17568066D01*
X9172533Y-17501400D01*
X9139200Y-17468066D01*
X9072533Y-17434733D01*
X8939200Y-17434733D01*
X8872533Y-17468066D01*
X8839200Y-17501400D01*
X8805866Y-17568066D01*
X9339200Y-17934733D02*
X9872533Y-17934733D01*
X10405866Y-17868066D02*
X10005866Y-17868066D01*
X10205866Y-17868066D02*
X10205866Y-17168066D01*
X10139200Y-17268066D01*
X10072533Y-17334733D01*
X10005866Y-17368066D01*
%TO.C,C_S2*%
D17*
X-11713304Y-14504171D02*
X-11737114Y-14527980D01*
X-11808542Y-14551790D01*
X-11856161Y-14551790D01*
X-11927590Y-14527980D01*
X-11975209Y-14480361D01*
X-11999019Y-14432742D01*
X-12022828Y-14337504D01*
X-12022828Y-14266076D01*
X-11999019Y-14170838D01*
X-11975209Y-14123219D01*
X-11927590Y-14075600D01*
X-11856161Y-14051790D01*
X-11808542Y-14051790D01*
X-11737114Y-14075600D01*
X-11713304Y-14099409D01*
X-11618066Y-14599409D02*
X-11237114Y-14599409D01*
X-11141876Y-14527980D02*
X-11070447Y-14551790D01*
X-10951400Y-14551790D01*
X-10903780Y-14527980D01*
X-10879971Y-14504171D01*
X-10856161Y-14456552D01*
X-10856161Y-14408933D01*
X-10879971Y-14361314D01*
X-10903780Y-14337504D01*
X-10951400Y-14313695D01*
X-11046638Y-14289885D01*
X-11094257Y-14266076D01*
X-11118066Y-14242266D01*
X-11141876Y-14194647D01*
X-11141876Y-14147028D01*
X-11118066Y-14099409D01*
X-11094257Y-14075600D01*
X-11046638Y-14051790D01*
X-10927590Y-14051790D01*
X-10856161Y-14075600D01*
X-10665685Y-14099409D02*
X-10641876Y-14075600D01*
X-10594257Y-14051790D01*
X-10475209Y-14051790D01*
X-10427590Y-14075600D01*
X-10403780Y-14099409D01*
X-10379971Y-14147028D01*
X-10379971Y-14194647D01*
X-10403780Y-14266076D01*
X-10689495Y-14551790D01*
X-10379971Y-14551790D01*
%TD*%
%LPC*%
D18*
%TO.C,D7*%
X12362000Y3048000D03*
X14562000Y3048000D03*
%TD*%
%TO.C,IC_S2*%
G36*
G01*
X-9548500Y-12971000D02*
X-9723500Y-12971000D01*
G75*
G02*
X-9811000Y-12883500I0J87500D01*
G01*
X-9811000Y-12448500D01*
G75*
G02*
X-9723500Y-12361000I87500J0D01*
G01*
X-9548500Y-12361000D01*
G75*
G02*
X-9461000Y-12448500I0J-87500D01*
G01*
X-9461000Y-12883500D01*
G75*
G02*
X-9548500Y-12971000I-87500J0D01*
G01*
G37*
G36*
G01*
X-8548500Y-12971000D02*
X-8723500Y-12971000D01*
G75*
G02*
X-8811000Y-12883500I0J87500D01*
G01*
X-8811000Y-12448500D01*
G75*
G02*
X-8723500Y-12361000I87500J0D01*
G01*
X-8548500Y-12361000D01*
G75*
G02*
X-8461000Y-12448500I0J-87500D01*
G01*
X-8461000Y-12883500D01*
G75*
G02*
X-8548500Y-12971000I-87500J0D01*
G01*
G37*
G36*
G01*
X-7548500Y-12971000D02*
X-7723500Y-12971000D01*
G75*
G02*
X-7811000Y-12883500I0J87500D01*
G01*
X-7811000Y-12448500D01*
G75*
G02*
X-7723500Y-12361000I87500J0D01*
G01*
X-7548500Y-12361000D01*
G75*
G02*
X-7461000Y-12448500I0J-87500D01*
G01*
X-7461000Y-12883500D01*
G75*
G02*
X-7548500Y-12971000I-87500J0D01*
G01*
G37*
G36*
G01*
X-7548500Y-15071000D02*
X-7723500Y-15071000D01*
G75*
G02*
X-7811000Y-14983500I0J87500D01*
G01*
X-7811000Y-14548500D01*
G75*
G02*
X-7723500Y-14461000I87500J0D01*
G01*
X-7548500Y-14461000D01*
G75*
G02*
X-7461000Y-14548500I0J-87500D01*
G01*
X-7461000Y-14983500D01*
G75*
G02*
X-7548500Y-15071000I-87500J0D01*
G01*
G37*
G36*
G01*
X-8548500Y-15071000D02*
X-8723500Y-15071000D01*
G75*
G02*
X-8811000Y-14983500I0J87500D01*
G01*
X-8811000Y-14548500D01*
G75*
G02*
X-8723500Y-14461000I87500J0D01*
G01*
X-8548500Y-14461000D01*
G75*
G02*
X-8461000Y-14548500I0J-87500D01*
G01*
X-8461000Y-14983500D01*
G75*
G02*
X-8548500Y-15071000I-87500J0D01*
G01*
G37*
G36*
G01*
X-9548500Y-15071000D02*
X-9723500Y-15071000D01*
G75*
G02*
X-9811000Y-14983500I0J87500D01*
G01*
X-9811000Y-14548500D01*
G75*
G02*
X-9723500Y-14461000I87500J0D01*
G01*
X-9548500Y-14461000D01*
G75*
G02*
X-9461000Y-14548500I0J-87500D01*
G01*
X-9461000Y-14983500D01*
G75*
G02*
X-9548500Y-15071000I-87500J0D01*
G01*
G37*
%TD*%
D19*
%TO.C,IC6*%
X8144000Y7869000D03*
%TD*%
D17*
%TO.C,BT1*%
G36*
X7800000Y15800000D02*
G01*
X10800000Y15800000D01*
X10800000Y15400000D01*
X11500000Y14700000D01*
X12800000Y14700000D01*
X12800000Y10800000D01*
X7800000Y10800000D01*
X7800000Y15800000D01*
G37*
G36*
X5800000Y20000000D02*
G01*
X5800000Y22300000D01*
X8900000Y22300000D01*
X8900000Y18600000D01*
X6700000Y18600000D01*
X5800000Y20000000D01*
G37*
G36*
G01*
X-9863604Y6502082D02*
X-9297918Y5936396D01*
G75*
G02*
X-9297918Y5370710I-282843J-282843D01*
G01*
X-10570710Y4097918D01*
G75*
G02*
X-11136396Y4097918I-282843J282843D01*
G01*
X-11702082Y4663604D01*
G75*
G02*
X-11702082Y5229290I282843J282843D01*
G01*
X-10429290Y6502082D01*
G75*
G02*
X-9863604Y6502082I282843J-282843D01*
G01*
G37*
G36*
G01*
X-1000000Y2550000D02*
X-1000000Y450000D01*
G75*
G02*
X-1750000Y-300000I-750000J0D01*
G01*
X-3250000Y-300000D01*
G75*
G02*
X-4000000Y450000I0J750000D01*
G01*
X-4000000Y2550000D01*
G75*
G02*
X-3250000Y3300000I750000J0D01*
G01*
X-1750000Y3300000D01*
G75*
G02*
X-1000000Y2550000I0J-750000D01*
G01*
G37*
D20*
X-14100000Y13300000D03*
D21*
X-2500000Y13300000D03*
%TD*%
D22*
%TO.C,TRX1*%
X-13500000Y9200000D03*
X-13500000Y6700000D03*
%TD*%
%TO.C,J4*%
G36*
G01*
X-9985000Y520000D02*
X-10935000Y520000D01*
G75*
G02*
X-11310000Y895000I0J375000D01*
G01*
X-11310000Y1645000D01*
G75*
G02*
X-10935000Y2020000I375000J0D01*
G01*
X-9985000Y2020000D01*
G75*
G02*
X-9610000Y1645000I0J-375000D01*
G01*
X-9610000Y895000D01*
G75*
G02*
X-9985000Y520000I-375000J0D01*
G01*
G37*
%TD*%
%TO.C,IC_S8*%
G36*
G01*
X8223000Y-5333000D02*
X8073000Y-5333000D01*
G75*
G02*
X7998000Y-5258000I0J75000D01*
G01*
X7998000Y-4558000D01*
G75*
G02*
X8073000Y-4483000I75000J0D01*
G01*
X8223000Y-4483000D01*
G75*
G02*
X8298000Y-4558000I0J-75000D01*
G01*
X8298000Y-5258000D01*
G75*
G02*
X8223000Y-5333000I-75000J0D01*
G01*
G37*
G36*
G01*
X8723000Y-5333000D02*
X8573000Y-5333000D01*
G75*
G02*
X8498000Y-5258000I0J75000D01*
G01*
X8498000Y-4558000D01*
G75*
G02*
X8573000Y-4483000I75000J0D01*
G01*
X8723000Y-4483000D01*
G75*
G02*
X8798000Y-4558000I0J-75000D01*
G01*
X8798000Y-5258000D01*
G75*
G02*
X8723000Y-5333000I-75000J0D01*
G01*
G37*
G36*
G01*
X9223000Y-5333000D02*
X9073000Y-5333000D01*
G75*
G02*
X8998000Y-5258000I0J75000D01*
G01*
X8998000Y-4558000D01*
G75*
G02*
X9073000Y-4483000I75000J0D01*
G01*
X9223000Y-4483000D01*
G75*
G02*
X9298000Y-4558000I0J-75000D01*
G01*
X9298000Y-5258000D01*
G75*
G02*
X9223000Y-5333000I-75000J0D01*
G01*
G37*
G36*
G01*
X9723000Y-5333000D02*
X9573000Y-5333000D01*
G75*
G02*
X9498000Y-5258000I0J75000D01*
G01*
X9498000Y-4558000D01*
G75*
G02*
X9573000Y-4483000I75000J0D01*
G01*
X9723000Y-4483000D01*
G75*
G02*
X9798000Y-4558000I0J-75000D01*
G01*
X9798000Y-5258000D01*
G75*
G02*
X9723000Y-5333000I-75000J0D01*
G01*
G37*
G36*
G01*
X10223000Y-5333000D02*
X10073000Y-5333000D01*
G75*
G02*
X9998000Y-5258000I0J75000D01*
G01*
X9998000Y-4558000D01*
G75*
G02*
X10073000Y-4483000I75000J0D01*
G01*
X10223000Y-4483000D01*
G75*
G02*
X10298000Y-4558000I0J-75000D01*
G01*
X10298000Y-5258000D01*
G75*
G02*
X10223000Y-5333000I-75000J0D01*
G01*
G37*
G36*
G01*
X10723000Y-5333000D02*
X10573000Y-5333000D01*
G75*
G02*
X10498000Y-5258000I0J75000D01*
G01*
X10498000Y-4558000D01*
G75*
G02*
X10573000Y-4483000I75000J0D01*
G01*
X10723000Y-4483000D01*
G75*
G02*
X10798000Y-4558000I0J-75000D01*
G01*
X10798000Y-5258000D01*
G75*
G02*
X10723000Y-5333000I-75000J0D01*
G01*
G37*
G36*
G01*
X10923000Y-5683000D02*
X10923000Y-5533000D01*
G75*
G02*
X10998000Y-5458000I75000J0D01*
G01*
X11698000Y-5458000D01*
G75*
G02*
X11773000Y-5533000I0J-75000D01*
G01*
X11773000Y-5683000D01*
G75*
G02*
X11698000Y-5758000I-75000J0D01*
G01*
X10998000Y-5758000D01*
G75*
G02*
X10923000Y-5683000I0J75000D01*
G01*
G37*
G36*
G01*
X10923000Y-6183000D02*
X10923000Y-6033000D01*
G75*
G02*
X10998000Y-5958000I75000J0D01*
G01*
X11698000Y-5958000D01*
G75*
G02*
X11773000Y-6033000I0J-75000D01*
G01*
X11773000Y-6183000D01*
G75*
G02*
X11698000Y-6258000I-75000J0D01*
G01*
X10998000Y-6258000D01*
G75*
G02*
X10923000Y-6183000I0J75000D01*
G01*
G37*
G36*
G01*
X10923000Y-6683000D02*
X10923000Y-6533000D01*
G75*
G02*
X10998000Y-6458000I75000J0D01*
G01*
X11698000Y-6458000D01*
G75*
G02*
X11773000Y-6533000I0J-75000D01*
G01*
X11773000Y-6683000D01*
G75*
G02*
X11698000Y-6758000I-75000J0D01*
G01*
X10998000Y-6758000D01*
G75*
G02*
X10923000Y-6683000I0J75000D01*
G01*
G37*
G36*
G01*
X10923000Y-7183000D02*
X10923000Y-7033000D01*
G75*
G02*
X10998000Y-6958000I75000J0D01*
G01*
X11698000Y-6958000D01*
G75*
G02*
X11773000Y-7033000I0J-75000D01*
G01*
X11773000Y-7183000D01*
G75*
G02*
X11698000Y-7258000I-75000J0D01*
G01*
X10998000Y-7258000D01*
G75*
G02*
X10923000Y-7183000I0J75000D01*
G01*
G37*
G36*
G01*
X10923000Y-7683000D02*
X10923000Y-7533000D01*
G75*
G02*
X10998000Y-7458000I75000J0D01*
G01*
X11698000Y-7458000D01*
G75*
G02*
X11773000Y-7533000I0J-75000D01*
G01*
X11773000Y-7683000D01*
G75*
G02*
X11698000Y-7758000I-75000J0D01*
G01*
X10998000Y-7758000D01*
G75*
G02*
X10923000Y-7683000I0J75000D01*
G01*
G37*
G36*
G01*
X10923000Y-8183000D02*
X10923000Y-8033000D01*
G75*
G02*
X10998000Y-7958000I75000J0D01*
G01*
X11698000Y-7958000D01*
G75*
G02*
X11773000Y-8033000I0J-75000D01*
G01*
X11773000Y-8183000D01*
G75*
G02*
X11698000Y-8258000I-75000J0D01*
G01*
X10998000Y-8258000D01*
G75*
G02*
X10923000Y-8183000I0J75000D01*
G01*
G37*
G36*
G01*
X10723000Y-9233000D02*
X10573000Y-9233000D01*
G75*
G02*
X10498000Y-9158000I0J75000D01*
G01*
X10498000Y-8458000D01*
G75*
G02*
X10573000Y-8383000I75000J0D01*
G01*
X10723000Y-8383000D01*
G75*
G02*
X10798000Y-8458000I0J-75000D01*
G01*
X10798000Y-9158000D01*
G75*
G02*
X10723000Y-9233000I-75000J0D01*
G01*
G37*
G36*
G01*
X10223000Y-9233000D02*
X10073000Y-9233000D01*
G75*
G02*
X9998000Y-9158000I0J75000D01*
G01*
X9998000Y-8458000D01*
G75*
G02*
X10073000Y-8383000I75000J0D01*
G01*
X10223000Y-8383000D01*
G75*
G02*
X10298000Y-8458000I0J-75000D01*
G01*
X10298000Y-9158000D01*
G75*
G02*
X10223000Y-9233000I-75000J0D01*
G01*
G37*
G36*
G01*
X9723000Y-9233000D02*
X9573000Y-9233000D01*
G75*
G02*
X9498000Y-9158000I0J75000D01*
G01*
X9498000Y-8458000D01*
G75*
G02*
X9573000Y-8383000I75000J0D01*
G01*
X9723000Y-8383000D01*
G75*
G02*
X9798000Y-8458000I0J-75000D01*
G01*
X9798000Y-9158000D01*
G75*
G02*
X9723000Y-9233000I-75000J0D01*
G01*
G37*
G36*
G01*
X9223000Y-9233000D02*
X9073000Y-9233000D01*
G75*
G02*
X8998000Y-9158000I0J75000D01*
G01*
X8998000Y-8458000D01*
G75*
G02*
X9073000Y-8383000I75000J0D01*
G01*
X9223000Y-8383000D01*
G75*
G02*
X9298000Y-8458000I0J-75000D01*
G01*
X9298000Y-9158000D01*
G75*
G02*
X9223000Y-9233000I-75000J0D01*
G01*
G37*
G36*
G01*
X8723000Y-9233000D02*
X8573000Y-9233000D01*
G75*
G02*
X8498000Y-9158000I0J75000D01*
G01*
X8498000Y-8458000D01*
G75*
G02*
X8573000Y-8383000I75000J0D01*
G01*
X8723000Y-8383000D01*
G75*
G02*
X8798000Y-8458000I0J-75000D01*
G01*
X8798000Y-9158000D01*
G75*
G02*
X8723000Y-9233000I-75000J0D01*
G01*
G37*
G36*
G01*
X8223000Y-9233000D02*
X8073000Y-9233000D01*
G75*
G02*
X7998000Y-9158000I0J75000D01*
G01*
X7998000Y-8458000D01*
G75*
G02*
X8073000Y-8383000I75000J0D01*
G01*
X8223000Y-8383000D01*
G75*
G02*
X8298000Y-8458000I0J-75000D01*
G01*
X8298000Y-9158000D01*
G75*
G02*
X8223000Y-9233000I-75000J0D01*
G01*
G37*
G36*
G01*
X7023000Y-8183000D02*
X7023000Y-8033000D01*
G75*
G02*
X7098000Y-7958000I75000J0D01*
G01*
X7798000Y-7958000D01*
G75*
G02*
X7873000Y-8033000I0J-75000D01*
G01*
X7873000Y-8183000D01*
G75*
G02*
X7798000Y-8258000I-75000J0D01*
G01*
X7098000Y-8258000D01*
G75*
G02*
X7023000Y-8183000I0J75000D01*
G01*
G37*
G36*
G01*
X7023000Y-7683000D02*
X7023000Y-7533000D01*
G75*
G02*
X7098000Y-7458000I75000J0D01*
G01*
X7798000Y-7458000D01*
G75*
G02*
X7873000Y-7533000I0J-75000D01*
G01*
X7873000Y-7683000D01*
G75*
G02*
X7798000Y-7758000I-75000J0D01*
G01*
X7098000Y-7758000D01*
G75*
G02*
X7023000Y-7683000I0J75000D01*
G01*
G37*
G36*
G01*
X7023000Y-7183000D02*
X7023000Y-7033000D01*
G75*
G02*
X7098000Y-6958000I75000J0D01*
G01*
X7798000Y-6958000D01*
G75*
G02*
X7873000Y-7033000I0J-75000D01*
G01*
X7873000Y-7183000D01*
G75*
G02*
X7798000Y-7258000I-75000J0D01*
G01*
X7098000Y-7258000D01*
G75*
G02*
X7023000Y-7183000I0J75000D01*
G01*
G37*
G36*
G01*
X7023000Y-6683000D02*
X7023000Y-6533000D01*
G75*
G02*
X7098000Y-6458000I75000J0D01*
G01*
X7798000Y-6458000D01*
G75*
G02*
X7873000Y-6533000I0J-75000D01*
G01*
X7873000Y-6683000D01*
G75*
G02*
X7798000Y-6758000I-75000J0D01*
G01*
X7098000Y-6758000D01*
G75*
G02*
X7023000Y-6683000I0J75000D01*
G01*
G37*
G36*
G01*
X7023000Y-6183000D02*
X7023000Y-6033000D01*
G75*
G02*
X7098000Y-5958000I75000J0D01*
G01*
X7798000Y-5958000D01*
G75*
G02*
X7873000Y-6033000I0J-75000D01*
G01*
X7873000Y-6183000D01*
G75*
G02*
X7798000Y-6258000I-75000J0D01*
G01*
X7098000Y-6258000D01*
G75*
G02*
X7023000Y-6183000I0J75000D01*
G01*
G37*
G36*
G01*
X7023000Y-5683000D02*
X7023000Y-5533000D01*
G75*
G02*
X7098000Y-5458000I75000J0D01*
G01*
X7798000Y-5458000D01*
G75*
G02*
X7873000Y-5533000I0J-75000D01*
G01*
X7873000Y-5683000D01*
G75*
G02*
X7798000Y-5758000I-75000J0D01*
G01*
X7098000Y-5758000D01*
G75*
G02*
X7023000Y-5683000I0J75000D01*
G01*
G37*
%TD*%
%TO.C,IC_S1*%
G36*
G01*
X-11280000Y-4215000D02*
X-11580000Y-4215000D01*
G75*
G02*
X-11730000Y-4065000I0J150000D01*
G01*
X-11730000Y-2415000D01*
G75*
G02*
X-11580000Y-2265000I150000J0D01*
G01*
X-11280000Y-2265000D01*
G75*
G02*
X-11130000Y-2415000I0J-150000D01*
G01*
X-11130000Y-4065000D01*
G75*
G02*
X-11280000Y-4215000I-150000J0D01*
G01*
G37*
G36*
G01*
X-10010000Y-4215000D02*
X-10310000Y-4215000D01*
G75*
G02*
X-10460000Y-4065000I0J150000D01*
G01*
X-10460000Y-2415000D01*
G75*
G02*
X-10310000Y-2265000I150000J0D01*
G01*
X-10010000Y-2265000D01*
G75*
G02*
X-9860000Y-2415000I0J-150000D01*
G01*
X-9860000Y-4065000D01*
G75*
G02*
X-10010000Y-4215000I-150000J0D01*
G01*
G37*
G36*
G01*
X-8740000Y-4215000D02*
X-9040000Y-4215000D01*
G75*
G02*
X-9190000Y-4065000I0J150000D01*
G01*
X-9190000Y-2415000D01*
G75*
G02*
X-9040000Y-2265000I150000J0D01*
G01*
X-8740000Y-2265000D01*
G75*
G02*
X-8590000Y-2415000I0J-150000D01*
G01*
X-8590000Y-4065000D01*
G75*
G02*
X-8740000Y-4215000I-150000J0D01*
G01*
G37*
G36*
G01*
X-7470000Y-4215000D02*
X-7770000Y-4215000D01*
G75*
G02*
X-7920000Y-4065000I0J150000D01*
G01*
X-7920000Y-2415000D01*
G75*
G02*
X-7770000Y-2265000I150000J0D01*
G01*
X-7470000Y-2265000D01*
G75*
G02*
X-7320000Y-2415000I0J-150000D01*
G01*
X-7320000Y-4065000D01*
G75*
G02*
X-7470000Y-4215000I-150000J0D01*
G01*
G37*
G36*
G01*
X-7470000Y-9165000D02*
X-7770000Y-9165000D01*
G75*
G02*
X-7920000Y-9015000I0J150000D01*
G01*
X-7920000Y-7365000D01*
G75*
G02*
X-7770000Y-7215000I150000J0D01*
G01*
X-7470000Y-7215000D01*
G75*
G02*
X-7320000Y-7365000I0J-150000D01*
G01*
X-7320000Y-9015000D01*
G75*
G02*
X-7470000Y-9165000I-150000J0D01*
G01*
G37*
G36*
G01*
X-8740000Y-9165000D02*
X-9040000Y-9165000D01*
G75*
G02*
X-9190000Y-9015000I0J150000D01*
G01*
X-9190000Y-7365000D01*
G75*
G02*
X-9040000Y-7215000I150000J0D01*
G01*
X-8740000Y-7215000D01*
G75*
G02*
X-8590000Y-7365000I0J-150000D01*
G01*
X-8590000Y-9015000D01*
G75*
G02*
X-8740000Y-9165000I-150000J0D01*
G01*
G37*
G36*
G01*
X-10010000Y-9165000D02*
X-10310000Y-9165000D01*
G75*
G02*
X-10460000Y-9015000I0J150000D01*
G01*
X-10460000Y-7365000D01*
G75*
G02*
X-10310000Y-7215000I150000J0D01*
G01*
X-10010000Y-7215000D01*
G75*
G02*
X-9860000Y-7365000I0J-150000D01*
G01*
X-9860000Y-9015000D01*
G75*
G02*
X-10010000Y-9165000I-150000J0D01*
G01*
G37*
G36*
G01*
X-11280000Y-9165000D02*
X-11580000Y-9165000D01*
G75*
G02*
X-11730000Y-9015000I0J150000D01*
G01*
X-11730000Y-7365000D01*
G75*
G02*
X-11580000Y-7215000I150000J0D01*
G01*
X-11280000Y-7215000D01*
G75*
G02*
X-11130000Y-7365000I0J-150000D01*
G01*
X-11130000Y-9015000D01*
G75*
G02*
X-11280000Y-9165000I-150000J0D01*
G01*
G37*
%TD*%
D23*
%TO.C,D4*%
X-2540000Y-16891000D03*
D24*
X0Y-16891000D03*
X2540000Y-16891000D03*
%TD*%
D25*
%TO.C,J2*%
X-10160000Y-16510000D03*
%TD*%
%TO.C,SP1*%
G36*
G01*
X8871000Y16695000D02*
X8871000Y17595000D01*
G75*
G02*
X9321000Y18045000I450000J0D01*
G01*
X10221000Y18045000D01*
G75*
G02*
X10671000Y17595000I0J-450000D01*
G01*
X10671000Y16695000D01*
G75*
G02*
X10221000Y16245000I-450000J0D01*
G01*
X9321000Y16245000D01*
G75*
G02*
X8871000Y16695000I0J450000D01*
G01*
G37*
%TD*%
D18*
%TO.C,R3*%
X4297500Y571500D03*
X6497500Y571500D03*
%TD*%
D26*
%TO.C,IC5*%
X12893000Y7192000D03*
X14793000Y7192000D03*
D27*
X14793000Y4492000D03*
D28*
X13843000Y4492000D03*
D27*
X12893000Y4492000D03*
%TD*%
D29*
%TO.C,Y2*%
X10160000Y5207000D03*
X11660000Y5207000D03*
X8660000Y5207000D03*
%TD*%
%TO.C,TA1*%
G36*
G01*
X8912400Y-831000D02*
X8912400Y69000D01*
G75*
G02*
X9362400Y519000I450000J0D01*
G01*
X11262400Y519000D01*
G75*
G02*
X11712400Y69000I0J-450000D01*
G01*
X11712400Y-831000D01*
G75*
G02*
X11262400Y-1281000I-450000J0D01*
G01*
X9362400Y-1281000D01*
G75*
G02*
X8912400Y-831000I0J450000D01*
G01*
G37*
%TD*%
D30*
%TO.C,C4*%
X14351000Y9766800D03*
X14351000Y13766800D03*
%TD*%
D31*
%TO.C,IC1*%
X8985500Y2225000D03*
X10985500Y3175000D03*
X10985500Y1275000D03*
%TD*%
D32*
%TO.C,IC_S4*%
X9357000Y-12818000D03*
X8707000Y-12818000D03*
X8057000Y-12818000D03*
X7407000Y-12818000D03*
X7407000Y-14868000D03*
X8057000Y-14868000D03*
X8707000Y-14868000D03*
X9357000Y-14868000D03*
%TD*%
D33*
%TO.C,J1*%
X-15240000Y-3810000D03*
D24*
X-15240000Y-6350000D03*
X-15240000Y-8890000D03*
X-15240000Y-11430000D03*
X-15240000Y-13970000D03*
%TD*%
D33*
%TO.C,J5*%
X15240000Y-3810000D03*
D24*
X15240000Y-6350000D03*
X15240000Y-8890000D03*
X15240000Y-11430000D03*
X15240000Y-13970000D03*
%TD*%
%TO.C,J3*%
G36*
G01*
X-13750000Y-4285000D02*
X-13750000Y-3335000D01*
G75*
G02*
X-13375000Y-2960000I375000J0D01*
G01*
X-12625000Y-2960000D01*
G75*
G02*
X-12250000Y-3335000I0J-375000D01*
G01*
X-12250000Y-4285000D01*
G75*
G02*
X-12625000Y-4660000I-375000J0D01*
G01*
X-13375000Y-4660000D01*
G75*
G02*
X-13750000Y-4285000I0J375000D01*
G01*
G37*
G36*
G01*
X-13750000Y-6825000D02*
X-13750000Y-5875000D01*
G75*
G02*
X-13375000Y-5500000I375000J0D01*
G01*
X-12625000Y-5500000D01*
G75*
G02*
X-12250000Y-5875000I0J-375000D01*
G01*
X-12250000Y-6825000D01*
G75*
G02*
X-12625000Y-7200000I-375000J0D01*
G01*
X-13375000Y-7200000D01*
G75*
G02*
X-13750000Y-6825000I0J375000D01*
G01*
G37*
G36*
G01*
X-13750000Y-9365000D02*
X-13750000Y-8415000D01*
G75*
G02*
X-13375000Y-8040000I375000J0D01*
G01*
X-12625000Y-8040000D01*
G75*
G02*
X-12250000Y-8415000I0J-375000D01*
G01*
X-12250000Y-9365000D01*
G75*
G02*
X-12625000Y-9740000I-375000J0D01*
G01*
X-13375000Y-9740000D01*
G75*
G02*
X-13750000Y-9365000I0J375000D01*
G01*
G37*
G36*
G01*
X-13750000Y-11905000D02*
X-13750000Y-10955000D01*
G75*
G02*
X-13375000Y-10580000I375000J0D01*
G01*
X-12625000Y-10580000D01*
G75*
G02*
X-12250000Y-10955000I0J-375000D01*
G01*
X-12250000Y-11905000D01*
G75*
G02*
X-12625000Y-12280000I-375000J0D01*
G01*
X-13375000Y-12280000D01*
G75*
G02*
X-13750000Y-11905000I0J375000D01*
G01*
G37*
G36*
G01*
X-13750000Y-14445000D02*
X-13750000Y-13495000D01*
G75*
G02*
X-13375000Y-13120000I375000J0D01*
G01*
X-12625000Y-13120000D01*
G75*
G02*
X-12250000Y-13495000I0J-375000D01*
G01*
X-12250000Y-14445000D01*
G75*
G02*
X-12625000Y-14820000I-375000J0D01*
G01*
X-13375000Y-14820000D01*
G75*
G02*
X-13750000Y-14445000I0J375000D01*
G01*
G37*
%TD*%
%TO.C,J6*%
G36*
G01*
X12331000Y-4285000D02*
X12331000Y-3335000D01*
G75*
G02*
X12706000Y-2960000I375000J0D01*
G01*
X13456000Y-2960000D01*
G75*
G02*
X13831000Y-3335000I0J-375000D01*
G01*
X13831000Y-4285000D01*
G75*
G02*
X13456000Y-4660000I-375000J0D01*
G01*
X12706000Y-4660000D01*
G75*
G02*
X12331000Y-4285000I0J375000D01*
G01*
G37*
G36*
G01*
X12331000Y-6825000D02*
X12331000Y-5875000D01*
G75*
G02*
X12706000Y-5500000I375000J0D01*
G01*
X13456000Y-5500000D01*
G75*
G02*
X13831000Y-5875000I0J-375000D01*
G01*
X13831000Y-6825000D01*
G75*
G02*
X13456000Y-7200000I-375000J0D01*
G01*
X12706000Y-7200000D01*
G75*
G02*
X12331000Y-6825000I0J375000D01*
G01*
G37*
G36*
G01*
X12331000Y-9365000D02*
X12331000Y-8415000D01*
G75*
G02*
X12706000Y-8040000I375000J0D01*
G01*
X13456000Y-8040000D01*
G75*
G02*
X13831000Y-8415000I0J-375000D01*
G01*
X13831000Y-9365000D01*
G75*
G02*
X13456000Y-9740000I-375000J0D01*
G01*
X12706000Y-9740000D01*
G75*
G02*
X12331000Y-9365000I0J375000D01*
G01*
G37*
G36*
G01*
X12331000Y-11905000D02*
X12331000Y-10955000D01*
G75*
G02*
X12706000Y-10580000I375000J0D01*
G01*
X13456000Y-10580000D01*
G75*
G02*
X13831000Y-10955000I0J-375000D01*
G01*
X13831000Y-11905000D01*
G75*
G02*
X13456000Y-12280000I-375000J0D01*
G01*
X12706000Y-12280000D01*
G75*
G02*
X12331000Y-11905000I0J375000D01*
G01*
G37*
G36*
G01*
X12331000Y-14445000D02*
X12331000Y-13495000D01*
G75*
G02*
X12706000Y-13120000I375000J0D01*
G01*
X13456000Y-13120000D01*
G75*
G02*
X13831000Y-13495000I0J-375000D01*
G01*
X13831000Y-14445000D01*
G75*
G02*
X13456000Y-14820000I-375000J0D01*
G01*
X12706000Y-14820000D01*
G75*
G02*
X12331000Y-14445000I0J375000D01*
G01*
G37*
%TD*%
D34*
%TO.C,C8*%
X10261600Y9362800D03*
X10261600Y7162800D03*
%TD*%
D18*
%TO.C,R_IN1*%
X5875200Y-1270000D03*
X3675200Y-1270000D03*
%TD*%
D34*
%TO.C,C9*%
X11582400Y9380400D03*
X11582400Y7180400D03*
%TD*%
%TO.C,R1*%
X7620000Y-3386000D03*
X7620000Y-1186000D03*
%TD*%
D18*
%TO.C,C_S6_1*%
X9804400Y-16205200D03*
X7604400Y-16205200D03*
%TD*%
D34*
%TO.C,C_S2*%
X-10922000Y-10965000D03*
X-10922000Y-13165000D03*
%TD*%
%TO.C,IN1*%
G36*
G01*
X10472000Y-12011200D02*
X11372000Y-12011200D01*
G75*
G02*
X11822000Y-12461200I0J-450000D01*
G01*
X11822000Y-14361200D01*
G75*
G02*
X11372000Y-14811200I-450000J0D01*
G01*
X10472000Y-14811200D01*
G75*
G02*
X10022000Y-14361200I0J450000D01*
G01*
X10022000Y-12461200D01*
G75*
G02*
X10472000Y-12011200I450000J0D01*
G01*
G37*
%TD*%
%TO.C,SP2*%
G36*
G01*
X8633000Y-3371000D02*
X8633000Y-2471000D01*
G75*
G02*
X9083000Y-2021000I450000J0D01*
G01*
X10983000Y-2021000D01*
G75*
G02*
X11433000Y-2471000I0J-450000D01*
G01*
X11433000Y-3371000D01*
G75*
G02*
X10983000Y-3821000I-450000J0D01*
G01*
X9083000Y-3821000D01*
G75*
G02*
X8633000Y-3371000I0J450000D01*
G01*
G37*
%TD*%
M02*
