%TF.GenerationSoftware,KiCad,Pcbnew,(5.1.12)-1*%
%TF.CreationDate,2023-02-20T19:38:16+01:00*%
%TF.ProjectId,SolarSensorTagEFM32,536f6c61-7253-4656-9e73-6f7254616745,rev?*%
%TF.SameCoordinates,Original*%
%TF.FileFunction,Copper,L3,Inr*%
%TF.FilePolarity,Positive*%
%FSLAX46Y46*%
G04 Gerber Fmt 4.6, Leading zero omitted, Abs format (unit mm)*
G04 Created by KiCad (PCBNEW (5.1.12)-1) date 2023-02-20 19:38:16*
%MOMM*%
%LPD*%
G01*
G04 APERTURE LIST*
%TA.AperFunction,NonConductor*%
%ADD10C,0.200000*%
%TD*%
%TA.AperFunction,NonConductor*%
%ADD11C,0.150000*%
%TD*%
%TA.AperFunction,ComponentPad*%
%ADD12C,2.200000*%
%TD*%
%TA.AperFunction,ComponentPad*%
%ADD13C,1.850000*%
%TD*%
%TA.AperFunction,ComponentPad*%
%ADD14R,1.500000X1.500000*%
%TD*%
%TA.AperFunction,ComponentPad*%
%ADD15O,1.700000X1.700000*%
%TD*%
%TA.AperFunction,ComponentPad*%
%ADD16C,1.700000*%
%TD*%
%TA.AperFunction,ComponentPad*%
%ADD17R,1.700000X1.700000*%
%TD*%
%TA.AperFunction,ViaPad*%
%ADD18C,0.400000*%
%TD*%
%TA.AperFunction,Conductor*%
%ADD19C,0.200000*%
%TD*%
%TA.AperFunction,Conductor*%
%ADD20C,0.400000*%
%TD*%
%TA.AperFunction,Conductor*%
%ADD21C,0.100000*%
%TD*%
G04 APERTURE END LIST*
D10*
X800000Y-9878571D02*
X1728571Y-9878571D01*
X1228571Y-10450000D01*
X1442857Y-10450000D01*
X1585714Y-10521428D01*
X1657142Y-10592857D01*
X1728571Y-10735714D01*
X1728571Y-11092857D01*
X1657142Y-11235714D01*
X1585714Y-11307142D01*
X1442857Y-11378571D01*
X1014285Y-11378571D01*
X871428Y-11307142D01*
X800000Y-11235714D01*
D11*
X0Y-9144000D02*
X0Y-12192000D01*
X2540000Y-9144000D02*
X2540000Y-12192000D01*
X5080000Y-9144000D02*
X5080000Y-12192000D01*
X-5080000Y-9144000D02*
X5080000Y-9144000D01*
X-5080000Y-12192000D02*
X-5080000Y-9144000D01*
X5080000Y-12192000D02*
X-5080000Y-12192000D01*
D12*
%TO.N,GND*%
%TO.C,IC6*%
X8144000Y7869000D03*
%TD*%
D13*
%TO.N,N/C*%
%TO.C,TRX1*%
X-13500000Y9200000D03*
X-13500000Y6700000D03*
%TD*%
D14*
%TO.N,/DLED_R*%
%TO.C,D4*%
X-2540000Y-16891000D03*
D15*
%TO.N,GND*%
X0Y-16891000D03*
%TO.N,/DLED_G*%
X2540000Y-16891000D03*
%TD*%
D16*
%TO.N,/~TA~*%
%TO.C,J2*%
X-10160000Y-16510000D03*
%TD*%
D17*
%TO.N,+3V0*%
%TO.C,J1*%
X-15240000Y-3810000D03*
D15*
%TO.N,/SWDIO*%
X-15240000Y-6350000D03*
%TO.N,/SWCLK*%
X-15240000Y-8890000D03*
%TO.N,/~RESET~*%
X-15240000Y-11430000D03*
%TO.N,GND*%
X-15240000Y-13970000D03*
%TD*%
D17*
%TO.N,/VSPI*%
%TO.C,J5*%
X15240000Y-3810000D03*
D15*
%TO.N,/SPI_MISO*%
X15240000Y-6350000D03*
%TO.N,/SPI_SCK*%
X15240000Y-8890000D03*
%TO.N,/SPI_MOSI*%
X15240000Y-11430000D03*
%TO.N,/~SPI_SS~*%
X15240000Y-13970000D03*
%TD*%
D18*
%TO.N,/I2C_SCL*%
X-12649200Y-7620000D03*
X-10287000Y7747000D03*
X-8991600Y-5384800D03*
X8788400Y-5994400D03*
X8077200Y-14071606D03*
X-9635999Y-13970002D03*
X6477000Y17399000D03*
X9398000Y-4165600D03*
X-10871200Y-9601200D03*
%TO.N,/I2C_SDA*%
X-12090400Y-7467600D03*
X-10922000Y6985000D03*
X9347200Y-1625606D03*
X-9855200Y-13411200D03*
X8494211Y-13720946D03*
X8432800Y-6654800D03*
X-8128000Y-16256000D03*
X6286500Y16700500D03*
%TO.N,/VI2C*%
X3606800Y-17780000D03*
X-14071600Y-9855200D03*
X-11785600Y-9601200D03*
X-11633202Y-5232402D03*
X8067595Y-13456158D03*
X8686797Y-17373597D03*
X-7302500Y-14033500D03*
X10159993Y-18033993D03*
X-9398000Y-17907000D03*
X10033000Y-6096000D03*
%TO.N,GND*%
X7620000Y17907000D03*
X9461500Y-2222500D03*
X889000Y9017000D03*
X14986000Y11582400D03*
X7747000Y10033000D03*
X4127500Y15200000D03*
X14986000Y12344400D03*
X-7315200Y-9652000D03*
X-2540000Y2133600D03*
X-9448800Y-4724400D03*
X-1473200Y18034000D03*
X7366000Y-12090400D03*
X-11096688Y-5501693D03*
X-3300000Y2133600D03*
X10261600Y2895602D03*
X3860802Y2082800D03*
X8585206Y-15849600D03*
X9729748Y-12066554D03*
X7631989Y-5080000D03*
X10922000Y10287000D03*
X-11480799Y-11887199D03*
X1168368Y-406414D03*
X-11176000Y-14351000D03*
X-1314410Y9017000D03*
X9398000Y6540500D03*
X9398000Y8826500D03*
X-8064500Y-16954500D03*
X5588000Y-17780000D03*
X13843000Y5410200D03*
%TO.N,/~INT1~*%
X6959596Y13106400D03*
X6400800Y4724400D03*
%TO.N,+3V0*%
X5384800Y7975600D03*
X12192000Y-7467600D03*
X4724400Y-1524000D03*
X11988800Y-3454400D03*
X3238500Y1117600D03*
X-7162800Y-1676400D03*
X-13208000Y-7620000D03*
X558800Y457208D03*
X9093200Y-17018000D03*
X9448800Y3311579D03*
X13563600Y8331200D03*
X6985000Y15049500D03*
%TO.N,/PWR_ON*%
X6146798Y18135600D03*
X14020808Y-7620000D03*
%TO.N,/~TA~*%
X4775202Y5130800D03*
X4826000Y1397000D03*
X-11176000Y2794000D03*
%TO.N,/PB0*%
X12801600Y10109200D03*
X11703010Y-4676236D03*
%TO.N,/~SPI_SS~*%
X7112000Y1422404D03*
X7315200Y4826000D03*
%TO.N,/SPI_MOSI*%
X10058398Y3911600D03*
X-50800Y2946400D03*
%TO.N,/SPI_MISO*%
X11023600Y3962400D03*
X660400Y3708400D03*
X13411200Y-7670800D03*
%TO.N,/SPI_SCK*%
X6756400Y4267200D03*
X-254000Y4114800D03*
X10541000Y-7048500D03*
%TO.N,/VBAT_M_ON*%
X-7416799Y3809999D03*
X4075183Y7010400D03*
%TO.N,/VBAT_M*%
X12496800Y5486400D03*
X-10058400Y2794000D03*
%TO.N,/ADC0*%
X10922000Y-14325600D03*
X6807200Y-2133600D03*
X2606789Y2032000D03*
X12141200Y-5080000D03*
X12747350Y-7623450D03*
X13563600Y6096000D03*
X5334000Y18846800D03*
%TO.N,/~RESET~*%
X13258800Y11836400D03*
X-11800000Y3302000D03*
%TO.N,/~INT0~*%
X14122400Y-5283200D03*
X4724404Y-16611600D03*
X8737600Y812800D03*
X6705600Y12293600D03*
X13411200Y-11836400D03*
%TO.N,/VSPI*%
X665612Y1570768D03*
X4635492Y18859500D03*
%TO.N,/VBAT*%
X7302500Y21780500D03*
X12242800Y12496800D03*
X14782800Y2946400D03*
X6540500Y20193000D03*
X-14579600Y16570591D03*
X12242800Y11887200D03*
X6540500Y20828000D03*
X-13868408Y16570591D03*
X-6858000Y-1100000D03*
X13000198Y5843541D03*
%TO.N,/PWR_ON_EXT*%
X-11277600Y17272000D03*
X14097000Y-12319000D03*
%TO.N,/~PWR_ON~*%
X2082800Y1574800D03*
X6032500Y1651000D03*
X5384796Y18135600D03*
%TO.N,/LED_R*%
X4673604Y5994400D03*
X-7620000Y2400000D03*
X-7366000Y-15494000D03*
%TO.N,/LED_G*%
X4470400Y7416800D03*
X-8255000Y3810000D03*
X-8445500Y-17526000D03*
%TO.N,/SPI_PWR*%
X609602Y-1625600D03*
X7874000Y4775200D03*
%TO.N,/I2C_PWR*%
X-9753600Y4013200D03*
X7162800Y14020800D03*
X-8890000Y-4622800D03*
%TO.N,/TA1*%
X8585206Y254000D03*
%TO.N,/SP+*%
X13512796Y3251200D03*
X8382006Y17145000D03*
%TO.N,/X1*%
X12852400Y8890000D03*
%TO.N,/X2*%
X12852400Y8280400D03*
%TO.N,/SPI_SS*%
X12446000Y-2489200D03*
X1320800Y1574800D03*
%TO.N,Net-(C3-Pad2)*%
X14630400Y8280400D03*
X2730500Y20701000D03*
%TO.N,Net-(D2-Pad1)*%
X7924800Y-2133584D03*
X7493000Y-190500D03*
%TO.N,Net-(C_S8-Pad2)*%
X11328410Y-11582400D03*
%TO.N,Net-(C_S6_1-Pad1)*%
X10179010Y-15189200D03*
%TO.N,Net-(C_S6_1-Pad2)*%
X9211370Y-13712680D03*
%TO.N,Net-(D_S78-Pad2)*%
X11879213Y-11582400D03*
X6032500Y-17208500D03*
%TO.N,/SWDIO*%
X5486400Y5384798D03*
%TO.N,/SWCLK*%
X5943600Y5070165D03*
%TD*%
D19*
%TO.N,/I2C_SCL*%
X8432794Y-14427200D02*
X8077200Y-14071606D01*
X9448800Y-14427200D02*
X8432794Y-14427200D01*
X10795000Y-13081000D02*
X9448800Y-14427200D01*
X10795000Y-11303000D02*
X10795000Y-13081000D01*
X10858500Y-11239500D02*
X10795000Y-11303000D01*
X10858500Y-8826500D02*
X10858500Y-11239500D01*
X8940800Y-6908800D02*
X10858500Y-8826500D01*
X8940800Y-6146800D02*
X8940800Y-6908800D01*
X8788400Y-5994400D02*
X8940800Y-6146800D01*
X9906000Y-3657600D02*
X9398000Y-4165600D01*
X9906000Y-1905000D02*
X9906000Y-3657600D01*
X6477000Y17399000D02*
X6794500Y17081500D01*
X6794500Y17081500D02*
X6794500Y16802100D01*
X6794500Y16802100D02*
X8204200Y15392400D01*
X8204200Y15392400D02*
X8204200Y11544300D01*
X8204200Y11544300D02*
X10439400Y9309100D01*
X10439400Y9309100D02*
X10439400Y5168900D01*
X10439400Y5168900D02*
X8788400Y3517900D01*
X8788400Y3517900D02*
X8788400Y2387600D01*
X8788400Y2387600D02*
X9853076Y1322924D01*
X9853076Y1322924D02*
X9853076Y116424D01*
X9853076Y116424D02*
X9842500Y105848D01*
X9842500Y105848D02*
X9842500Y-1841500D01*
X9842500Y-1841500D02*
X9906000Y-1905000D01*
X-8382000Y-7112000D02*
X-10871200Y-9601200D01*
X-8382000Y-3429000D02*
X-8382000Y-7112000D01*
X-8890000Y6350000D02*
X-8890000Y-2921000D01*
X-8890000Y-2921000D02*
X-8382000Y-3429000D01*
X-10287000Y7747000D02*
X-8890000Y6350000D01*
%TO.N,/I2C_SDA*%
X-12090400Y-8390400D02*
X-12090400Y-7467600D01*
X-12400000Y-8700000D02*
X-12090400Y-8390400D01*
X-11688800Y-13411200D02*
X-12400000Y-12700000D01*
X-12400000Y-12700000D02*
X-12400000Y-8700000D01*
X-9855200Y-13411200D02*
X-11688800Y-13411200D01*
X-12090400Y-6705600D02*
X-12090400Y-7467600D01*
X-12446000Y-6350000D02*
X-12090400Y-6705600D01*
X-12446000Y-5207000D02*
X-12446000Y-6350000D01*
X-10033000Y508000D02*
X-10033000Y-2794000D01*
X-10033000Y-2794000D02*
X-12446000Y-5207000D01*
X-10541000Y4445000D02*
X-10541000Y1016000D01*
X-10541000Y1016000D02*
X-10033000Y508000D01*
X-10922000Y4826000D02*
X-10541000Y4445000D01*
X-10922000Y6985000D02*
X-10922000Y4826000D01*
X-8191500Y-16256000D02*
X-8128000Y-16256000D01*
X-10350500Y-14097000D02*
X-8191500Y-16256000D01*
X-10350500Y-13398500D02*
X-10350500Y-14097000D01*
X9347200Y1280840D02*
X9347200Y-1625606D01*
X8382000Y3759200D02*
X8382000Y2246040D01*
X10033000Y5410200D02*
X8382000Y3759200D01*
X7721600Y11328400D02*
X10033000Y9017000D01*
X8382000Y2246040D02*
X9347200Y1280840D01*
X7721600Y15265400D02*
X7721600Y11328400D01*
X10033000Y9017000D02*
X10033000Y5410200D01*
X6286500Y16700500D02*
X7721600Y15265400D01*
X8432800Y-7035800D02*
X8432800Y-6654800D01*
X10350500Y-11195050D02*
X10414000Y-11131550D01*
X10350500Y-12915900D02*
X10350500Y-11195050D01*
X10058400Y-13208000D02*
X10350500Y-12915900D01*
X10414000Y-9017000D02*
X8432800Y-7035800D01*
X9007157Y-13208000D02*
X10058400Y-13208000D01*
X10414000Y-11131550D02*
X10414000Y-9017000D01*
X8494211Y-13720946D02*
X9007157Y-13208000D01*
%TO.N,/VI2C*%
X7429500Y-13843000D02*
X7816342Y-13456158D01*
X6731000Y-16192500D02*
X7429500Y-15494000D01*
X7816342Y-13456158D02*
X8067595Y-13456158D01*
X3873500Y-16510000D02*
X4191000Y-16192500D01*
X3873500Y-17513300D02*
X3873500Y-16510000D01*
X7429500Y-15494000D02*
X7429500Y-13843000D01*
X4191000Y-16192500D02*
X6731000Y-16192500D01*
X3606800Y-17780000D02*
X3873500Y-17513300D01*
X-9261501Y-18043499D02*
X-9398000Y-17907000D01*
X3343301Y-18043499D02*
X-9261501Y-18043499D01*
X3606800Y-17780000D02*
X3343301Y-18043499D01*
X3606800Y-17780000D02*
X4060806Y-18234006D01*
X4060806Y-18234006D02*
X9959980Y-18234006D01*
X9959980Y-18234006D02*
X10159993Y-18033993D01*
D20*
%TO.N,GND*%
X-10319395Y-4724400D02*
X-11096688Y-5501693D01*
X-9448800Y-4724400D02*
X-10319395Y-4724400D01*
X-2540000Y2133600D02*
X14Y-406414D01*
X14Y-406414D02*
X1168368Y-406414D01*
X6654806Y-17780000D02*
X8585206Y-15849600D01*
X5588000Y-17780000D02*
X6654806Y-17780000D01*
D19*
X-11322021Y-5727026D02*
X-11322021Y-11728421D01*
X-11322021Y-11728421D02*
X-11480799Y-11887199D01*
X-11096688Y-5501693D02*
X-11322021Y-5727026D01*
%TO.N,/~INT1~*%
X6400800Y5727700D02*
X6400800Y4724400D01*
X5969000Y6159500D02*
X6400800Y5727700D01*
X6553200Y13106400D02*
X5969000Y12522200D01*
X5969000Y12522200D02*
X5969000Y6159500D01*
X6959596Y13106400D02*
X6553200Y13106400D01*
D20*
%TO.N,+3V0*%
X558800Y457208D02*
X1676392Y457208D01*
X3657600Y-1524000D02*
X4724400Y-1524000D01*
X1676392Y457208D02*
X3657600Y-1524000D01*
X5384800Y13449300D02*
X6985000Y15049500D01*
X5384800Y7975600D02*
X5384800Y13449300D01*
D21*
%TO.N,/PWR_ON*%
X14020808Y-7416808D02*
X14020808Y-7620000D01*
D19*
X6553200Y18135600D02*
X6146798Y18135600D01*
X7188200Y17500600D02*
X6553200Y18135600D01*
X7188200Y16967200D02*
X7188200Y17500600D01*
X14020808Y-7416808D02*
X13208000Y-6604000D01*
X13208000Y-6604000D02*
X12890500Y-6604000D01*
X12890500Y-6604000D02*
X11049000Y-4762500D01*
X11049000Y-4762500D02*
X11049000Y-1524000D01*
X11049000Y-1524000D02*
X10922000Y-1397000D01*
X10922000Y-1397000D02*
X10922000Y2184400D01*
X10922000Y2184400D02*
X11684000Y2946400D01*
X11684000Y2946400D02*
X11684000Y4318000D01*
X11684000Y4318000D02*
X10845800Y5156200D01*
X10845800Y5156200D02*
X10845800Y9537700D01*
X10845800Y9537700D02*
X8661400Y11722100D01*
X8661400Y11722100D02*
X8661400Y15494000D01*
X8661400Y15494000D02*
X7188200Y16967200D01*
%TO.N,/~TA~*%
X4826000Y5080002D02*
X4826000Y1397000D01*
X4775202Y5130800D02*
X4826000Y5080002D01*
X-9945442Y-15327558D02*
X-9945442Y-16168442D01*
X-10414000Y-14859000D02*
X-9945442Y-15327558D01*
X-11938000Y-14859000D02*
X-10414000Y-14859000D01*
X-13100000Y-13697000D02*
X-11938000Y-14859000D01*
X-13100000Y-8600000D02*
X-13100000Y-13697000D01*
X-13700000Y-8000000D02*
X-13100000Y-8600000D01*
X-13700000Y-7300000D02*
X-13700000Y-8000000D01*
X-13400000Y-7000000D02*
X-13700000Y-7300000D01*
X-11176000Y2794000D02*
X-11176000Y907998D01*
X-11176000Y907998D02*
X-10541000Y272998D01*
X-10541000Y272998D02*
X-10541000Y-2413000D01*
X-10541000Y-2413000D02*
X-13400000Y-5272000D01*
X-13400000Y-5272000D02*
X-13400000Y-7000000D01*
D21*
%TO.N,/PB0*%
X12242800Y2946400D02*
X12242800Y2895600D01*
D19*
X11430000Y-4403226D02*
X11703010Y-4676236D01*
X11430000Y-1397000D02*
X11430000Y-4403226D01*
X11303000Y-1270000D02*
X11430000Y-1397000D01*
X11303000Y1955800D02*
X11303000Y-1270000D01*
X12242800Y2895600D02*
X11303000Y1955800D01*
X12801600Y9702800D02*
X12801600Y10109200D01*
X12395200Y9296400D02*
X12801600Y9702800D01*
X12395200Y8001000D02*
X12395200Y9296400D01*
X14351000Y6045200D02*
X12395200Y8001000D01*
X14351000Y5003800D02*
X14351000Y6045200D01*
X12242800Y2895600D02*
X14351000Y5003800D01*
%TO.N,/~SPI_SS~*%
X7315200Y1625604D02*
X7315200Y4826000D01*
X7112000Y1422404D02*
X7315200Y1625604D01*
X9956800Y-5334000D02*
X9855200Y-5334000D01*
X8826500Y-4305300D02*
X8826500Y-800100D01*
X11226800Y-8534400D02*
X11226800Y-6604000D01*
X11226800Y-6604000D02*
X9956800Y-5334000D01*
X12446000Y-9753600D02*
X11226800Y-8534400D01*
X12446000Y-13665200D02*
X12446000Y-9753600D01*
X8826500Y-800100D02*
X7112000Y914400D01*
X12801600Y-14020800D02*
X12446000Y-13665200D01*
X7112000Y914400D02*
X7112000Y1422404D01*
X9855200Y-5334000D02*
X8826500Y-4305300D01*
X14700000Y-14020800D02*
X12801600Y-14020800D01*
%TO.N,/SPI_MOSI*%
X14651010Y-11764990D02*
X14859000Y-11557000D01*
X14605000Y-12573000D02*
X14605000Y-11938000D01*
X14224000Y-12954000D02*
X14605000Y-12573000D01*
X10058398Y3911600D02*
X10058398Y3301998D01*
X10210800Y1646350D02*
X10210800Y-1701800D01*
X9804400Y2052750D02*
X10210800Y1646350D01*
X10058398Y3301998D02*
X9804400Y3048000D01*
X9804400Y3048000D02*
X9804400Y2052750D01*
X10210800Y-1701800D02*
X10287000Y-1778000D01*
X10287000Y-5105400D02*
X11684000Y-6502400D01*
X11684000Y-6502400D02*
X11684000Y-8128000D01*
X11684000Y-8128000D02*
X12903200Y-9347200D01*
X12903200Y-9347200D02*
X12903200Y-12598400D01*
X12903200Y-12598400D02*
X13258800Y-12954000D01*
X10287000Y-1778000D02*
X10287000Y-5105400D01*
X13258800Y-12954000D02*
X14224000Y-12954000D01*
%TO.N,/SPI_MISO*%
X13411200Y-7366000D02*
X13411200Y-7670800D01*
X13106400Y-7061200D02*
X13411200Y-7366000D01*
X12827000Y-7061200D02*
X13106400Y-7061200D01*
X10668000Y-4902200D02*
X12827000Y-7061200D01*
X10668000Y-1657350D02*
X10668000Y-4902200D01*
X10566400Y-1555750D02*
X10668000Y-1657350D01*
X10566400Y2438400D02*
X10566400Y-1555750D01*
X10722001Y2594001D02*
X10566400Y2438400D01*
X10722001Y3660801D02*
X10722001Y2594001D01*
X11023600Y3962400D02*
X10722001Y3660801D01*
%TO.N,/SPI_SCK*%
X6556401Y4067201D02*
X6756400Y4267200D01*
X6556401Y-777901D02*
X6556401Y4067201D01*
X7366000Y-1587500D02*
X6556401Y-777901D01*
X7366000Y-3403600D02*
X7366000Y-1587500D01*
X9347200Y-5384800D02*
X7366000Y-3403600D01*
X9347200Y-6137542D02*
X9347200Y-5384800D01*
X10258158Y-7048500D02*
X9347200Y-6137542D01*
X10541000Y-7048500D02*
X10258158Y-7048500D01*
%TO.N,/ADC0*%
X6299200Y-1625600D02*
X6807200Y-2133600D01*
X5638800Y-1625600D02*
X6299200Y-1625600D01*
X4055201Y-42001D02*
X5638800Y-1625600D01*
X3344001Y-42001D02*
X4055201Y-42001D01*
X2692400Y609600D02*
X3344001Y-42001D01*
X2692400Y1946389D02*
X2692400Y609600D01*
X2606789Y2032000D02*
X2692400Y1946389D01*
X8102600Y18161000D02*
X7416800Y18846800D01*
X8102600Y17653000D02*
X8102600Y18161000D01*
X13563600Y6096000D02*
X11912600Y7747000D01*
X11912600Y7747000D02*
X11912600Y9525000D01*
X11912600Y9525000D02*
X12166600Y9779000D01*
X12166600Y9779000D02*
X12166600Y10617200D01*
X12166600Y10617200D02*
X12750800Y11201400D01*
X12750800Y11201400D02*
X12750800Y12801600D01*
X12750800Y12801600D02*
X12522200Y13030200D01*
X12522200Y13030200D02*
X9829800Y13030200D01*
X9829800Y13030200D02*
X9144000Y13716000D01*
X9144000Y13716000D02*
X9144000Y15646400D01*
X9144000Y15646400D02*
X7797800Y16992600D01*
X7797800Y16992600D02*
X7797800Y17348200D01*
X7797800Y17348200D02*
X8102600Y17653000D01*
X7416800Y18846800D02*
X5334000Y18846800D01*
%TO.N,/~RESET~*%
X-14020800Y-11379200D02*
X-14790780Y-11379200D01*
X-13500000Y-10858400D02*
X-14020800Y-11379200D01*
X-11800000Y3302000D02*
X-11800000Y1837500D01*
X-11800000Y1837500D02*
X-11521750Y1559250D01*
X-11521750Y1559250D02*
X-11521750Y472750D01*
X-11521750Y472750D02*
X-11029997Y-19003D01*
X-11029997Y-19003D02*
X-11029997Y-1987597D01*
X-11029997Y-1987597D02*
X-13817600Y-4775200D01*
X-13817600Y-4775200D02*
X-13817600Y-6617600D01*
X-13817600Y-6617600D02*
X-14100000Y-6900000D01*
X-14100000Y-6900000D02*
X-14100000Y-8300000D01*
X-14100000Y-8300000D02*
X-13500000Y-8900000D01*
X-13500000Y-8900000D02*
X-13500000Y-10858400D01*
%TO.N,/~INT0~*%
X6413500Y6985000D02*
X6413500Y12001500D01*
X8382000Y5016500D02*
X6413500Y6985000D01*
X8382000Y4470400D02*
X8382000Y5016500D01*
X6413500Y12001500D02*
X6705600Y12293600D01*
X7975600Y4064000D02*
X8382000Y4470400D01*
X7975600Y1574800D02*
X7975600Y4064000D01*
X8737600Y812800D02*
X7975600Y1574800D01*
D20*
%TO.N,/VSPI*%
X665612Y1570768D02*
X665612Y2088012D01*
X665612Y2088012D02*
X1473200Y2895600D01*
X1473200Y2895600D02*
X1473200Y15697208D01*
X1473200Y15697208D02*
X4635492Y18859500D01*
%TO.N,/VBAT*%
X-6350000Y-592000D02*
X-6858000Y-1100000D01*
X-6350000Y9052183D02*
X-6350000Y-592000D01*
X-13868408Y16570591D02*
X-6350000Y9052183D01*
X11353800Y7489939D02*
X13000198Y5843541D01*
X11353800Y9855200D02*
X11353800Y7489939D01*
X11531600Y10033000D02*
X11353800Y9855200D01*
X11531600Y11176000D02*
X11531600Y10033000D01*
X12242800Y11887200D02*
X11531600Y11176000D01*
D19*
%TO.N,/PWR_ON_EXT*%
X13970000Y-8439202D02*
X13970000Y-12192000D01*
X14478000Y-7931202D02*
X13970000Y-8439202D01*
X14478000Y-7315200D02*
X14478000Y-7931202D01*
X13258800Y-6096000D02*
X14478000Y-7315200D01*
X13258800Y-3606800D02*
X13258800Y-6096000D01*
X12649200Y-2997200D02*
X13258800Y-3606800D01*
X12090400Y-2997200D02*
X12649200Y-2997200D01*
X11811000Y-2717800D02*
X12090400Y-2997200D01*
X11811000Y-1275053D02*
X11811000Y-2717800D01*
X11807994Y-1266994D02*
X11811000Y-1275053D01*
X11684000Y-1143000D02*
X11807994Y-1266994D01*
X11684000Y1676400D02*
X11684000Y-1143000D01*
X12750800Y2743200D02*
X11684000Y1676400D01*
X13665200Y2743200D02*
X12750800Y2743200D01*
X15157401Y4235401D02*
X13665200Y2743200D01*
X13970000Y-12192000D02*
X14097000Y-12319000D01*
X-11277600Y17272000D02*
X-8280400Y17272000D01*
X15157401Y10039399D02*
X15157401Y4235401D01*
X-8280400Y17272000D02*
X-3759200Y21793200D01*
X-3759200Y21793200D02*
X6527800Y21793200D01*
X6527800Y21793200D02*
X8432800Y19888200D01*
X8432800Y19888200D02*
X8432800Y19024600D01*
X8432800Y19024600D02*
X10541000Y16916400D01*
X10541000Y16916400D02*
X10541000Y14706600D01*
X10541000Y14706600D02*
X10871200Y14376400D01*
X10871200Y14376400D02*
X13157200Y14376400D01*
X13157200Y14376400D02*
X14503400Y13030200D01*
X14503400Y13030200D02*
X14503400Y10693400D01*
X14503400Y10693400D02*
X15157401Y10039399D01*
%TO.N,/~PWR_ON~*%
X2082800Y14833604D02*
X5384796Y18135600D01*
X2082800Y1574800D02*
X2082800Y14833604D01*
%TO.N,/LED_R*%
X-10160000Y-11430000D02*
X-7874000Y-13716000D01*
X-10160000Y-10160000D02*
X-10160000Y-11430000D01*
X-7874000Y-14986000D02*
X-7366000Y-15494000D01*
X-7366000Y-7366000D02*
X-10160000Y-10160000D01*
X-7366000Y-2692400D02*
X-7366000Y-7366000D01*
X-7620000Y-2438400D02*
X-7366000Y-2692400D01*
X-7874000Y-13716000D02*
X-7874000Y-14986000D01*
X-7620000Y2400000D02*
X-7620000Y-2438400D01*
%TO.N,/LED_G*%
X-7747000Y-17526000D02*
X-8445500Y-17526000D01*
X-7429500Y-17208500D02*
X-7747000Y-17526000D01*
X-7429500Y-16192500D02*
X-7429500Y-17208500D01*
X-8636000Y-14986000D02*
X-7429500Y-16192500D01*
X-8636000Y-13716000D02*
X-8636000Y-14986000D01*
X-10668000Y-11684000D02*
X-8636000Y-13716000D01*
X-10668000Y-10083800D02*
X-10668000Y-11684000D01*
X-7874000Y-7289800D02*
X-10668000Y-10083800D01*
X-7874000Y-2921000D02*
X-7874000Y-7289800D01*
X-8255000Y-2540000D02*
X-7874000Y-2921000D01*
X-8255000Y3810000D02*
X-8255000Y-2540000D01*
%TO.N,/I2C_PWR*%
X-8890000Y-4114800D02*
X-8890000Y-4622800D01*
X-9525000Y-3479800D02*
X-8890000Y-4114800D01*
X-9525000Y3784600D02*
X-9525000Y-3479800D01*
X-9753600Y4013200D02*
X-9525000Y3784600D01*
%TO.N,/SP+*%
X9626600Y15900406D02*
X8382006Y17145000D01*
X9626600Y13970000D02*
X9626600Y15900406D01*
X10083800Y13512800D02*
X9626600Y13970000D01*
X12852400Y13512800D02*
X10083800Y13512800D01*
X13766800Y10007600D02*
X13766800Y12598400D01*
X14122400Y9652000D02*
X13766800Y10007600D01*
X14122400Y7366000D02*
X14122400Y9652000D01*
X14795500Y6692900D02*
X14122400Y7366000D01*
X14795500Y4533904D02*
X14795500Y6692900D01*
X13766800Y12598400D02*
X12852400Y13512800D01*
X13512796Y3251200D02*
X14795500Y4533904D01*
%TO.N,Net-(C3-Pad2)*%
X4826000Y20701000D02*
X2730500Y20701000D01*
X5842000Y19685000D02*
X4826000Y20701000D01*
X7213600Y19685000D02*
X5842000Y19685000D01*
X10083800Y16814800D02*
X7213600Y19685000D01*
X10083800Y14300200D02*
X10083800Y16814800D01*
X10464800Y13919200D02*
X10083800Y14300200D01*
X13055600Y13919200D02*
X10464800Y13919200D01*
X14147800Y12827000D02*
X13055600Y13919200D01*
X14147800Y10388600D02*
X14147800Y12827000D01*
X14630400Y9906000D02*
X14147800Y10388600D01*
X14630400Y8331200D02*
X14630400Y9906000D01*
%TO.N,Net-(D2-Pad1)*%
X7493000Y-190500D02*
X7493000Y-825500D01*
X7924800Y-1257300D02*
X7924800Y-2133584D01*
X7493000Y-825500D02*
X7924800Y-1257300D01*
%TO.N,Net-(D_S78-Pad2)*%
X6413500Y-17208500D02*
X6032500Y-17208500D01*
X8483600Y-15138400D02*
X6413500Y-17208500D01*
X9347200Y-15138400D02*
X8483600Y-15138400D01*
X11879213Y-12606387D02*
X9347200Y-15138400D01*
X11879213Y-11582400D02*
X11879213Y-12606387D01*
%TD*%
M02*
